<?xml version="1.0" encoding="utf-8"?>
<!-- Generator: Adobe Illustrator 24.0.2, SVG Export Plug-In . SVG Version: 6.00 Build 0)  -->
<svg version="1.1" id="Capa_1" xmlns="http://www.w3.org/2000/svg" xmlns:xlink="http://www.w3.org/1999/xlink" x="0px" y="0px"
	 viewBox="0 0 566.9 141.7" style="enable-background:new 0 0 566.9 141.7;" xml:space="preserve">
<style type="text/css">
	.st0{fill:url(#SVGID_1_);}
	.st1{fill:#66595C;}
</style>
<linearGradient id="SVGID_1_" gradientUnits="userSpaceOnUse" x1="283.45" y1="1.682073e-05" x2="283.45" y2="141.7">
	<stop  offset="0" style="stop-color:#95D4C6"/>
	<stop  offset="0.5" style="stop-color:#BCD9BE"/>
	<stop  offset="0.9993" style="stop-color:#A1C594"/>
</linearGradient>
<rect y="0" class="st0" width="566.9" height="141.7"/>
<g>
	<g>
		<path class="st1" d="M376.9,52.8c-2.1,3.1-4.2,6.1-6.3,9.2c-3.7,5.5-7.5,10.9-11.2,16.4c-0.1,0.2-0.3,0.4-0.5,0.6
			c-1.1,1.5-2.2,1.5-3.2,0c-2-2.8-3.9-5.7-5.9-8.6c-3.8-5.5-7.6-11.1-11.4-16.6c-0.2-0.4-0.5-0.7-1-1.4c-0.1,0.9-0.1,1.4-0.1,1.9
			c0,12.9,0,25.7,0,38.6c0,0.5,0,1,0,1.4c0,1.1-0.6,1.7-1.7,1.7c-1.1,0-1.6-0.7-1.7-1.8c0-0.5,0-1,0-1.4c0-15,0-29.9,0-44.9
			c0-0.7,0.4-1.6,0.9-1.9c0.8-0.5,1.9-0.4,2.6,0.5c0.5,0.5,0.9,1.1,1.3,1.7c6,8.8,11.9,17.7,17.9,26.5c0.2,0.3,0.4,0.6,0.7,1
			c0.4-0.5,0.7-0.9,0.9-1.3c6.2-9.1,12.3-18.2,18.5-27.4c0.7-1,1.5-1.6,2.7-1.3c1.3,0.3,1.5,1.3,1.5,2.5c0,15.1,0,30.2,0,45.3
			c0,1-0.1,1.9-1.2,2.4c-1.2,0.5-2.4-0.2-2.5-1.5c0-0.4,0-0.8,0-1.2c0-12.9,0-25.9,0-38.8c0-0.5,0-1,0-1.5
			C377.1,52.8,377,52.8,376.9,52.8z"/>
		<path class="st1" d="M259.8,71c0.1-11.8,7.6-22.1,18.4-25c14.6-3.8,28.2,4.1,31.4,19c2.4,11.4-2.3,23.1-12.4,28.6
			c-14.1,7.7-33.3,1-36.8-17.8C260,74.2,260,72.6,259.8,71z M284.5,48.3c-4.8,0.1-9.2,1.8-12.8,4.8c-8.2,7-10.4,19.3-5.1,29.2
			c6.6,12.4,23.6,15,33.3,4.9c5.9-6.1,7.5-13.5,5.9-21.6C303.9,55.3,294.8,48,284.5,48.3z"/>
		<path class="st1" d="M168.8,81.9c-4.6,0-9.1,0-13.7,0c-0.9,0-1.3,0.3-1.7,1.1c-1.7,3.9-3.4,7.7-5.1,11.5c-0.2,0.5-0.5,1.1-0.9,1.2
			c-0.6,0.2-1.6,0.4-2,0c-0.4-0.3-0.6-1.4-0.4-1.9c1-2.4,2.1-4.7,3.2-7.1c6-13,12-26,18-39c0.5-1.1,1-2.1,2.4-2.2
			c1.3-0.1,2.2,0.3,2.7,1.5c7,15.2,14,30.4,21.1,45.6c0.2,0.4,0.3,0.7,0.4,1.1c0.4,1,0.1,1.8-0.8,2.2c-1,0.4-1.8,0.1-2.3-0.8
			c-0.5-0.8-0.8-1.7-1.2-2.6c-1.4-3.1-2.9-6.3-4.3-9.4c-0.4-0.9-0.9-1.2-1.9-1.2C177.8,81.9,173.3,81.9,168.8,81.9z M155.6,78.6
			c9,0,17.7,0,26.5,0c-4.4-9.7-8.7-19.2-13.2-29.1C164.3,59.4,160,68.9,155.6,78.6z"/>
		<path class="st1" d="M226.6,72.5c0,7.1,0,14.2,0,21.3c0,1.6-0.6,2.3-1.8,2.3c-0.9,0-1.5-0.4-1.6-1.3c-0.1-0.6-0.1-1.1-0.1-1.7
			c0-14,0-28,0-42c0-1.8,0-1.8-1.8-1.8c-4.7,0-9.4,0-14.1,0c-1.3,0-1.9-0.5-1.9-1.6c0-0.9,0.4-1.4,1.3-1.5c0.5-0.1,1-0.1,1.4-0.1
			c11.1,0,22.3,0,33.4,0c2.1,0,2.8,0.4,2.8,1.6c0,1.2-0.7,1.6-2.7,1.6c-4.5,0-9,0-13.4,0c-1.2,0-1.5,0.4-1.5,1.5
			C226.6,58,226.6,65.2,226.6,72.5z"/>
	</g>
	<g>
		<path class="st1" d="M115.2,57c-10.2-4.3-23.8-7.1-38.4-7.9c-2.3-0.1-4.6-0.2-6.8-0.2c10.8-13.2,22.4-22,30-22.3
			c1.5-0.1,2.8,0.3,3.8,0.9c3.3,2.1,4.2,8.2,2.5,16.7c-0.2,1.2,0.5,2.3,1.7,2.5c1.2,0.2,2.3-0.5,2.5-1.7c2.1-10.6,0.6-17.9-4.4-21.1
			c-1.8-1.2-3.9-1.7-6.3-1.6C90.3,22.7,76.8,33,64.5,49c-5.4,0.2-10.5,0.6-15.1,1.3c-0.6-2.5-1-5-1.3-7.3
			c-1.2-9.7,0.3-16.3,4.1-18.2c0.6-0.3,1.3-0.5,2.1-0.6c3.3-0.2,7.7,1.9,12.6,5.9c0.9,0.8,2.3,0.6,3-0.3c0.8-0.9,0.6-2.3-0.3-3
			C63.8,22,58.4,19.6,54,19.9c-1.3,0.1-2.6,0.4-3.7,1c-5.5,2.8-7.8,10.8-6.4,22.5c0.3,2.4,0.7,4.9,1.3,7.5
			c-15.3,3.1-25,9.2-25.4,16.9c-0.3,5.5,4,10.6,12.5,15c1,0.5,2.3,0.1,2.9-0.9c0.5-1,0.1-2.3-0.9-2.9c-6.7-3.5-10.4-7.4-10.2-11
			c0.3-5,8.3-10.2,22.2-13c1.3,4.7,2.9,9.5,4.9,14.4c-10.9,20.5-15.7,41.9-6,48.2c1.7,1.1,3.6,1.6,5.8,1.6c4.3,0,9.6-2.2,15.6-6.4
			c1-0.7,1.2-2,0.5-3s-2-1.2-3-0.5c-7.2,5.1-13.3,6.8-16.6,4.7c-3.5-2.3-4.3-9.1-2.1-18.5c1.5-6.5,4.2-13.7,7.9-21.1
			c0.9,2,1.9,4.1,2.9,6.1c6.6,13,14.8,24.4,22.9,31.9c6.5,6,12.5,9.1,17.4,9.1c1.7,0,3.2-0.3,4.6-1.1c5.3-2.7,7.6-10.3,6.5-21.3
			c-1.1-10.3-5-22.9-11-35.4c-0.5-1.1-1.8-1.5-2.9-1c-1.1,0.5-1.5,1.8-1,2.9c5.8,12.1,9.6,24.2,10.6,34c0.9,9-0.6,15.2-4.2,17.1
			c-3.8,1.9-10-0.8-17.1-7.4c-7.7-7.2-15.5-18.1-22-30.7c-1.5-3-2.9-6-4.2-9c1.6-2.8,3.3-5.7,5.1-8.5c1.8-2.8,3.8-5.5,5.7-8.1
			c0.6,0,1.2,0,1.8,0c2.5,0,5.3,0.1,8.1,0.2c14.1,0.7,27.3,3.4,37,7.6c8.9,3.8,13.9,8.4,13.7,12.6c-0.2,3.6-4.3,7.2-11.3,9.9
			c-1.1,0.4-1.6,1.7-1.2,2.8c0.3,0.8,1.1,1.4,2,1.4c0.3,0,0.5,0,0.8-0.1c8.9-3.4,13.7-8.2,14-13.6C131.8,67.6,126.1,61.6,115.2,57z
			 M57.3,59c-1.2,1.9-2.4,3.8-3.6,5.8c-1.3-3.5-2.5-7-3.4-10.3c3.3-0.5,6.9-0.9,10.8-1.1C59.9,55.2,58.6,57.1,57.3,59z"/>
		<circle class="st1" cx="76" cy="71.6" r="6.4"/>
	</g>
</g>
</svg>
