<?xml version="1.0" encoding="utf-8"?>
<!-- Generator: Adobe Illustrator 24.0.2, SVG Export Plug-In . SVG Version: 6.00 Build 0)  -->
<svg version="1.1" id="Capa_1" xmlns="http://www.w3.org/2000/svg" xmlns:xlink="http://www.w3.org/1999/xlink" x="0px" y="0px"
	 viewBox="0 0 566.9 141.7" style="enable-background:new 0 0 566.9 141.7;" xml:space="preserve">
<style type="text/css">
	.st0{fill:#3E474A;}
	.st1{fill-rule:evenodd;clip-rule:evenodd;fill:#FFFFFF;}
	.st2{fill-rule:evenodd;clip-rule:evenodd;fill:#47B353;}
	.st3{fill-rule:evenodd;clip-rule:evenodd;fill:#3E474A;}
</style>
<rect y="0" class="st0" width="566.9" height="141.7"/>
<g transform="translate(0.000000, 0.945000)">
	<path id="Fill-4" class="st1" d="M59.1,117.2L26.9,98.1c-3.1-1.9-5.1-5.4-5.1-9.1V50.8c0-3.7,2-7.2,5.1-9.1l32.2-19.1
		c1.5-0.9,3.3-1.4,5.1-1.4c1.8,0,3.5,0.5,5.1,1.4l32.2,19.1c2.7,1.6,4.4,4.3,4.9,7.4c-1.1-2.3-3.5-2.9-6.3-1.3L69.6,66.6
		c-3.8,2.2-6.6,4.7-6.6,9.3v37.5c0,2.7,1.1,4.5,2.8,5c-0.6,0.1-1.1,0.2-1.7,0.2C62.4,118.6,60.6,118.1,59.1,117.2 M102.5,39.8
		L70.4,20.7c-1.9-1.1-4.1-1.7-6.2-1.7s-4.3,0.6-6.2,1.7L25.8,39.8c-3.8,2.3-6.2,6.5-6.2,11.1V89c0,4.6,2.4,8.8,6.2,11.1l32.2,19
		c1.9,1.1,4.1,1.7,6.2,1.7s4.3-0.6,6.2-1.7l32.2-19.1c3.8-2.3,6.2-6.5,6.2-11.1V50.8C108.7,46.3,106.4,42,102.5,39.8"/>
	<path id="Fill-6" class="st2" d="M94.1,92.7l-8,4.8c-0.2,0.1-0.4,0.3-0.4,0.5v2.1c0,0.3,0.2,0.4,0.4,0.2l8.1-4.9
		c0.2-0.1,0.2-0.4,0.2-0.6V93C94.5,92.7,94.3,92.6,94.1,92.7"/>
	<path id="Fill-8" class="st3" d="M77,75c0.3-0.1,0.5,0,0.5,0.4v2.8c1.2-0.5,2.2-0.6,3.1-0.4c0.2,0.1,0.3,0.3,0.2,0.6l-0.6,2.5
		c0,0.2-0.2,0.4-0.3,0.5c-0.1,0.1-0.1,0.1-0.2,0.1s-0.2,0.1-0.2,0c-0.4-0.1-1.4-0.3-3,0.5s-2.2,2.2-2.2,3.3c0,1.3,0.7,1.6,2.9,1.7
		c3,0,4.3,1.3,4.3,4.3c0,2.9-1.5,6.1-3.9,8l0.1,2.7c0,0.3-0.2,0.7-0.5,0.8l-1.6,0.9c-0.3,0.1-0.5,0-0.5-0.4v-2.7
		c-1.4,0.6-2.8,0.7-3.7,0.4c-0.2-0.1-0.2-0.3-0.2-0.6l0.6-2.5c0-0.2,0.2-0.4,0.3-0.5c0,0,0.1-0.1,0.2-0.1s0.2-0.1,0.3,0
		c1,0.3,2.2,0.2,3.4-0.4c1.5-0.8,2.5-2.3,2.5-3.9c0-1.4-0.8-2-2.6-2c-2.3,0-4.5-0.5-4.6-3.9c0-2.8,1.4-5.8,3.8-7.6v-2.8
		c0-0.3,0.2-0.7,0.5-0.8L77,75z"/>
	<g>
		<path id="Fill-10" class="st1" d="M130.3,72.8h7.1c1,0,1.9,0.2,2.8,0.5c0.8,0.3,1.5,0.7,2.1,1.2s1,1.1,1.4,1.8
			c0.3,0.7,0.5,1.5,0.5,2.5c0,0.9-0.2,1.7-0.5,2.4c-0.4,0.7-0.8,1.3-1.5,1.8c-0.6,0.5-1.4,0.9-2.2,1.2c-0.9,0.3-1.8,0.4-2.7,0.5
			h-6.8V72.8H130.3z M142.4,62.3c-0.4,0.6-0.8,1.1-1.4,1.6c-0.6,0.4-1.3,0.8-2.1,1s-1.7,0.4-2.6,0.4h-6v-10h5.9
			c0.9,0,1.9,0.1,2.8,0.3c0.8,0.2,1.6,0.5,2.2,0.9c0.6,0.4,1,0.9,1.4,1.5c0.3,0.6,0.5,1.3,0.5,2.2C142.9,61.1,142.8,61.7,142.4,62.3
			L142.4,62.3z M150.3,71.4c-0.8-1-1.8-1.8-2.9-2.5c-0.1-0.1-0.3-0.2-0.4-0.2c0.9-0.6,1.7-1.3,2.3-2.1c0.7-0.8,1.3-1.8,1.7-2.8
			c0.4-1,0.6-2.2,0.7-3.5c0-2.2-0.4-4.1-1.4-5.7c-0.9-1.6-2.1-2.9-3.7-3.9c-1.5-1-3.2-1.7-5.1-2.2c-1.8-0.5-3.7-0.7-5.6-0.7H123
			c-0.9,0-1.6,0.7-1.6,1.5v41.2c0,0.9,0.7,1.5,1.6,1.5h14c2,0,4-0.3,5.8-0.9c1.9-0.6,3.6-1.4,5.1-2.5s2.7-2.5,3.6-4.2
			c0.9-1.7,1.4-3.6,1.3-5.8c0-1.4-0.2-2.7-0.7-3.9C151.8,73.5,151.1,72.4,150.3,71.4L150.3,71.4z"/>
		<path id="Fill-12" class="st1" d="M176.7,73.7h-7.1l3.6-11L176.7,73.7z M177.1,48.8c-0.2-0.6-0.8-1.1-1.6-1.1h-4.6
			c-0.7,0-1.3,0.4-1.5,1.1l-14,41.2c-0.2,0.5-0.1,1,0.2,1.4s0.8,0.6,1.3,0.6h5.5c0.7,0,1.3-0.4,1.6-1.1l3.1-9.6h12l3.1,9.6
			c0.2,0.7,0.8,1.1,1.6,1.1h5.5c0.5,0,1-0.2,1.3-0.6s0.4-0.9,0.2-1.4L177.1,48.8z"/>
		<path id="Fill-14" class="st1" d="M223.9,73c-0.7-0.9-1.6-1.8-2.6-2.5c-0.9-0.7-2-1.4-3.1-1.9c-1.1-0.6-2.2-1.1-3.3-1.5
			s-2.2-0.8-3.4-1.1c-1-0.3-2-0.6-3-1c-1-0.3-1.9-0.8-2.7-1.3c-0.8-0.5-1.4-1-1.9-1.7c-0.4-0.6-0.6-1.3-0.6-2.1s0.2-1.5,0.5-2.2
			c0.4-0.6,0.8-1.2,1.4-1.6c0.6-0.4,1.3-0.8,2.2-1c1.9-0.5,4-0.5,5.5,0.1c0.8,0.3,1.6,0.7,2.1,1.3c0.6,0.6,1.1,1.2,1.5,2
			s0.7,1.8,0.8,2.8c0.1,0.8,0.8,1.4,1.6,1.4h5.6c0.4,0,0.9-0.2,1.2-0.5s0.5-0.7,0.5-1.1c0-2.1-0.5-4.1-1.5-5.8
			c-0.9-1.7-2.1-3.2-3.6-4.4s-3.2-2.1-5.1-2.8c-3.6-1.2-7.7-1.3-11.6-0.2c-1.9,0.6-3.5,1.4-5,2.4c-1.5,1.1-2.7,2.4-3.7,4
			s-1.4,3.5-1.4,5.5s0.5,3.9,1.5,5.4c0.9,1.5,2.1,2.8,3.6,3.8c1.4,1,3,1.9,4.7,2.6c1.6,0.7,3.2,1.3,4.8,1.8c1,0.3,2.1,0.7,3.2,1.1
			c1,0.4,2,0.8,2.8,1.3s1.4,1.1,1.9,1.8c0.4,0.6,0.6,1.4,0.6,2.3s-0.2,1.6-0.5,2.1c-0.4,0.6-0.9,1.1-1.5,1.6c-0.7,0.4-1.4,0.8-2.3,1
			c-2,0.5-4.2,0.4-6-0.1c-0.9-0.3-1.8-0.7-2.5-1.3c-0.7-0.6-1.3-1.2-1.7-2.1c-0.5-0.8-0.8-1.8-0.9-2.9c-0.1-0.8-0.8-1.3-1.6-1.3
			h-5.6c-0.4,0-0.9,0.2-1.2,0.5s-0.5,0.7-0.5,1.1c0.1,2.2,0.6,4.2,1.7,6c1,1.7,2.4,3.2,4,4.4c1.6,1.2,3.4,2.1,5.4,2.7
			s4.1,0.9,6.2,0.9c1.9,0,3.8-0.3,5.6-0.8c1.9-0.5,3.6-1.3,5.1-2.3c1.6-1,2.8-2.4,3.8-3.9c1-1.6,1.5-3.5,1.5-5.6
			c0-1.4-0.2-2.7-0.6-3.9C225.2,75,224.6,73.9,223.9,73"/>
		<path id="Fill-16" class="st1" d="M260,47.8h-5.2c-0.9,0-1.6,0.7-1.6,1.5v16.2h-14.5V49.3c0-0.9-0.7-1.5-1.6-1.5h-5.2
			c-0.9,0-1.6,0.7-1.6,1.5v41.2c0,0.9,0.7,1.5,1.6,1.5h5.2c0.9,0,1.6-0.7,1.6-1.5V73h14.5v17.5c0,0.9,0.7,1.5,1.6,1.5h5.2
			c0.9,0,1.6-0.7,1.6-1.5V49.3C261.6,48.5,260.9,47.8,260,47.8"/>
		<polygon id="Fill-18" class="st1" points="126.5,99.2 124.5,99.2 124.5,104.4 123.4,104.4 123.4,99.2 121.5,99.2 121.5,98.3 
			126.5,98.3 		"/>
		<polygon id="Fill-20" class="st1" points="132.5,104.4 131.5,104.4 131.5,101.7 129.3,101.7 129.3,104.4 128.3,104.4 128.3,98.3 
			129.3,98.3 129.3,100.9 131.5,100.9 131.5,98.3 132.5,98.3 		"/>
		<polygon id="Fill-22" class="st1" points="138.6,101.7 135.9,101.7 135.9,103.6 139,103.6 139,104.4 134.9,104.4 134.9,98.3 
			139,98.3 139,99.2 135.9,99.2 135.9,100.9 138.6,100.9 		"/>
		<path id="Fill-24" class="st1" d="M148.8,101.7v1.9h1.2c0.2,0,0.3,0,0.5-0.1c0.1,0,0.3-0.1,0.4-0.2c0.1-0.1,0.2-0.2,0.2-0.3
			c0.1-0.1,0.1-0.2,0.1-0.4c0-0.2,0-0.3-0.1-0.4s-0.1-0.2-0.2-0.3c-0.1-0.1-0.2-0.1-0.3-0.2c-0.1,0-0.3-0.1-0.5-0.1L148.8,101.7
			L148.8,101.7z M148.8,100.9h1c0.2,0,0.3,0,0.4-0.1c0.1,0,0.3-0.1,0.4-0.2c0.1-0.1,0.2-0.2,0.2-0.3c0.1-0.1,0.1-0.2,0.1-0.4
			c0-0.2,0-0.3-0.1-0.4s-0.1-0.2-0.2-0.3c-0.1-0.1-0.2-0.1-0.4-0.2c-0.1,0-0.3,0-0.5-0.1h-1v2H148.8z M147.7,104.4v-6.1h2
			c0.3,0,0.6,0,0.9,0.1c0.3,0.1,0.5,0.2,0.7,0.3c0.2,0.1,0.4,0.3,0.5,0.5s0.2,0.5,0.2,0.7c0,0.3-0.1,0.6-0.3,0.8
			c-0.2,0.2-0.4,0.4-0.7,0.5c0.2,0,0.3,0.1,0.5,0.2c0.1,0.1,0.3,0.2,0.4,0.3c0.1,0.1,0.2,0.3,0.2,0.4c0,0.2,0.1,0.3,0.1,0.5
			c0,0.3-0.1,0.5-0.2,0.8c-0.1,0.2-0.3,0.4-0.5,0.6c-0.2,0.1-0.4,0.3-0.7,0.3c-0.3,0.1-0.6,0.1-0.9,0.1
			C149.9,104.4,147.7,104.4,147.7,104.4z"/>
		<path id="Fill-26" class="st1" d="M157.4,101c0-0.2,0-0.5-0.1-0.7c0-0.2-0.1-0.4-0.2-0.6c-0.1-0.2-0.2-0.3-0.4-0.4
			s-0.4-0.2-0.6-0.2c-0.2,0-0.4,0.1-0.6,0.2c-0.2,0.1-0.3,0.3-0.4,0.4c-0.1,0.2-0.2,0.4-0.2,0.6s-0.1,0.5-0.1,0.7v0.8
			c0,0.2,0,0.5,0.1,0.7c0,0.2,0.1,0.4,0.2,0.6c0.1,0.2,0.2,0.3,0.4,0.4s0.4,0.2,0.6,0.2c0.2,0,0.4-0.1,0.6-0.2
			c0.2-0.1,0.3-0.3,0.4-0.4c0.1-0.2,0.2-0.4,0.2-0.6s0.1-0.5,0.1-0.7V101z M158.5,101.8c0,0.4,0,0.7-0.1,1s-0.2,0.6-0.4,0.9
			s-0.4,0.5-0.7,0.6s-0.6,0.2-1,0.2s-0.7-0.1-1-0.2c-0.3-0.2-0.5-0.4-0.7-0.6c-0.2-0.3-0.3-0.5-0.4-0.9c-0.1-0.3-0.1-0.7-0.1-1V101
			c0-0.2,0-0.5,0.1-0.7c0-0.2,0.1-0.4,0.2-0.6c0.1-0.2,0.2-0.4,0.3-0.6s0.3-0.3,0.4-0.4c0.2-0.1,0.4-0.2,0.6-0.3
			c0.2-0.1,0.4-0.1,0.7-0.1c0.4,0,0.7,0.1,1,0.2c0.3,0.2,0.5,0.4,0.7,0.6c0.2,0.3,0.3,0.5,0.4,0.9c0.1,0.3,0.1,0.7,0.1,1v0.8H158.5z
			"/>
		<path id="Fill-28" class="st1" d="M164.8,98.3v4.1c0,0.3-0.1,0.6-0.2,0.9c-0.1,0.3-0.2,0.5-0.4,0.7s-0.4,0.3-0.7,0.4
			s-0.6,0.2-0.9,0.2c-0.3,0-0.6-0.1-0.9-0.2c-0.3-0.1-0.5-0.2-0.7-0.4c-0.2-0.2-0.3-0.4-0.4-0.7c-0.1-0.3-0.2-0.5-0.2-0.9v-4.1h1
			v4.1c0,0.2,0,0.4,0.1,0.5c0,0.2,0.1,0.3,0.2,0.4c0.1,0.1,0.2,0.2,0.3,0.3c0.1,0.1,0.3,0.1,0.5,0.1s0.3,0,0.5-0.1
			c0.1-0.1,0.2-0.2,0.3-0.3c0.1-0.1,0.2-0.2,0.2-0.4c0-0.2,0.1-0.3,0.1-0.5v-4.1H164.8z"/>
		<path id="Fill-30" class="st1" d="M168.1,101.2h1c0.2,0,0.3,0,0.5-0.1c0.1,0,0.3-0.1,0.4-0.2c0.1-0.1,0.2-0.2,0.2-0.3
			c0.1-0.1,0.1-0.3,0.1-0.4c0-0.2,0-0.3-0.1-0.5c-0.1-0.1-0.1-0.2-0.2-0.3c-0.1-0.1-0.2-0.2-0.4-0.2c-0.1,0-0.3-0.1-0.5-0.1h-1
			V101.2z M169.2,102.1h-1.1v2.4H167v-6.1h2c0.3,0,0.6,0,0.9,0.1c0.3,0.1,0.5,0.2,0.7,0.3c0.2,0.2,0.4,0.3,0.5,0.6
			c0.1,0.2,0.2,0.5,0.2,0.8c0,0.2,0,0.4-0.1,0.6s-0.1,0.3-0.2,0.5c-0.1,0.1-0.2,0.3-0.4,0.4c-0.1,0.1-0.3,0.2-0.5,0.3l1.4,2.6l0,0
			h-1.1L169.2,102.1z"/>
		<polygon id="Fill-32" class="st1" points="177.7,104.4 176.6,104.4 174.5,100.2 174.5,104.4 173.4,104.4 173.4,98.3 174.5,98.3 
			176.6,102.5 176.6,98.3 177.7,98.3 		"/>
		<polygon id="Fill-34" class="st1" points="183.7,101.7 181.1,101.7 181.1,103.6 184.2,103.6 184.2,104.4 180,104.4 180,98.3 
			184.1,98.3 184.1,99.2 181.1,99.2 181.1,100.9 183.7,100.9 		"/>
		<polygon id="Fill-36" class="st1" points="186.9,102.2 190.4,102.2 190.4,101.4 186.9,101.4 		"/>
		<path id="Fill-38" class="st1" d="M194.2,102.2h1.5l-0.7-2.4L194.2,102.2z M196,103h-2l-0.4,1.4h-1.1l2.1-6.1h0.9l2,6.1h-1.1
			L196,103z"/>
		<path id="Fill-39" class="st1" d="M203.6,103.7c-0.1,0.1-0.2,0.2-0.4,0.3c-0.1,0.1-0.3,0.2-0.5,0.3c-0.2,0.1-0.4,0.1-0.6,0.2
			c-0.2,0-0.4,0.1-0.7,0.1c-0.4,0-0.7-0.1-1-0.2s-0.5-0.3-0.8-0.6c-0.2-0.2-0.4-0.5-0.5-0.9c-0.1-0.3-0.2-0.7-0.2-1.1V101
			c0-0.4,0.1-0.7,0.2-1.1c0.1-0.3,0.3-0.6,0.5-0.9s0.4-0.4,0.7-0.6c0.3-0.1,0.6-0.2,1-0.2c0.3,0,0.6,0,0.9,0.1
			c0.3,0.1,0.5,0.2,0.7,0.4c0.2,0.2,0.3,0.4,0.4,0.6c0.1,0.2,0.2,0.5,0.2,0.8h-1c0-0.2-0.1-0.3-0.1-0.4c-0.1-0.1-0.1-0.2-0.2-0.3
			s-0.2-0.2-0.3-0.2s-0.3-0.1-0.5-0.1s-0.4,0.1-0.6,0.2c-0.2,0.1-0.3,0.2-0.4,0.4c-0.1,0.2-0.2,0.4-0.2,0.6s-0.1,0.5-0.1,0.7v0.8
			c0,0.3,0,0.5,0.1,0.7s0.1,0.4,0.2,0.6c0.1,0.2,0.3,0.3,0.4,0.4c0.2,0.1,0.4,0.2,0.6,0.2c0.1,0,0.2,0,0.3,0s0.2,0,0.3-0.1
			c0.1,0,0.2-0.1,0.3-0.1s0.1-0.1,0.2-0.2v-1.2h-1.2v-0.8h2.2L203.6,103.7z"/>
		<path id="Fill-40" class="st1" d="M207.1,102.2h1.5l-0.7-2.4L207.1,102.2z M208.9,103h-2l-0.4,1.4h-1.1l2.1-6.1h0.9l2,6.1h-1.1
			L208.9,103z"/>
		<polygon id="Fill-41" class="st1" points="212.4,98.3 216.2,98.3 216.2,99.2 214.8,99.2 214.8,103.6 216.2,103.6 216.2,104.4 
			212.4,104.4 212.4,103.6 213.7,103.6 213.7,99.2 212.4,99.2 		"/>
		<polygon id="Fill-42" class="st1" points="222.8,104.4 221.8,104.4 219.7,100.2 219.7,104.4 218.6,104.4 218.6,98.3 219.7,98.3 
			221.7,102.5 221.7,98.3 222.8,98.3 		"/>
		<path id="Fill-43" class="st1" d="M234.9,102.9c0-0.1,0-0.3-0.1-0.4s-0.2-0.2-0.3-0.3c-0.1-0.1-0.3-0.2-0.4-0.2
			c-0.2-0.1-0.3-0.1-0.5-0.2c-0.3-0.1-0.5-0.2-0.7-0.3c-0.2-0.1-0.5-0.2-0.7-0.4c-0.2-0.1-0.3-0.3-0.5-0.5c-0.1-0.2-0.2-0.4-0.2-0.7
			c0-0.3,0.1-0.5,0.2-0.7c0.1-0.2,0.3-0.4,0.5-0.5s0.4-0.3,0.7-0.3c0.3-0.1,0.5-0.1,0.8-0.1s0.6,0,0.9,0.1c0.3,0.1,0.5,0.2,0.7,0.4
			c0.2,0.2,0.4,0.4,0.5,0.6s0.2,0.5,0.2,0.8h-1.1c0-0.2,0-0.3-0.1-0.4s-0.1-0.2-0.2-0.3c-0.1-0.1-0.2-0.2-0.4-0.2
			c-0.1-0.1-0.3-0.1-0.5-0.1s-0.3,0-0.4,0.1s-0.3,0.1-0.4,0.2c-0.1,0.1-0.2,0.2-0.2,0.3c-0.1,0.1-0.1,0.2-0.1,0.4
			c0,0.1,0,0.3,0.1,0.4s0.2,0.2,0.3,0.3c0.1,0.1,0.3,0.1,0.4,0.2c0.2,0.1,0.3,0.1,0.5,0.2c0.3,0.1,0.5,0.2,0.8,0.3
			c0.2,0.1,0.5,0.2,0.6,0.4c0.2,0.2,0.3,0.3,0.4,0.5c0.1,0.2,0.2,0.4,0.2,0.7c0,0.3-0.1,0.5-0.2,0.7c-0.1,0.2-0.3,0.4-0.5,0.5
			s-0.4,0.2-0.7,0.3c-0.3,0.1-0.5,0.1-0.8,0.1c-0.2,0-0.4,0-0.6-0.1c-0.2,0-0.4-0.1-0.6-0.2c-0.2-0.1-0.3-0.2-0.5-0.3
			c-0.2-0.1-0.3-0.2-0.4-0.4c-0.1-0.1-0.2-0.3-0.3-0.5s-0.1-0.4-0.1-0.6h1.1c0,0.2,0.1,0.3,0.1,0.5c0.1,0.1,0.2,0.3,0.3,0.3
			c0.1,0.1,0.3,0.2,0.4,0.2c0.2,0,0.3,0.1,0.5,0.1s0.3,0,0.4-0.1c0.1,0,0.3-0.1,0.4-0.2c0.1-0.1,0.2-0.2,0.2-0.3
			C234.9,103.1,234.9,103,234.9,102.9"/>
		<polygon id="Fill-44" class="st1" points="242.2,104.4 241.1,104.4 241.1,101.7 239,101.7 239,104.4 237.9,104.4 237.9,98.3 
			239,98.3 239,100.9 241.1,100.9 241.1,98.3 242.2,98.3 		"/>
		<polygon id="Fill-45" class="st1" points="248.2,101.7 245.6,101.7 245.6,103.6 248.7,103.6 248.7,104.4 244.5,104.4 244.5,98.3 
			248.6,98.3 248.6,99.2 245.6,99.2 245.6,100.9 248.2,100.9 		"/>
		<polygon id="Fill-46" class="st1" points="252.1,103.6 255.1,103.6 255.1,104.4 251,104.4 251,98.3 252.1,98.3 		"/>
		<polygon id="Fill-47" class="st1" points="258.5,103.6 261.6,103.6 261.6,104.4 257.5,104.4 257.5,98.3 258.5,98.3 		"/>
	</g>
</g>
</svg>
