<?xml version="1.0" encoding="utf-8"?>
<!-- Generator: Adobe Illustrator 24.0.2, SVG Export Plug-In . SVG Version: 6.00 Build 0)  -->
<svg version="1.1" id="Capa_1" xmlns="http://www.w3.org/2000/svg" xmlns:xlink="http://www.w3.org/1999/xlink" x="0px" y="0px"
	 viewBox="0 0 566.9 141.7" style="enable-background:new 0 0 566.9 141.7;" xml:space="preserve">
<style type="text/css">
	.st0{fill:#EFEFEF;}
	.st1{fill:#265787;}
	.st2{fill:#EA7600;}
	.st3{fill:#236192;}
	.st4{font-family:'OpenSans-SemiBold';}
	.st5{font-size:10.7716px;}
</style>
<rect y="0.2" class="st0" width="566.9" height="141.7"/>
<g transform="matrix(4.1667 0 0 4.9888 -191.11 2195)">
	<g transform="matrix(2.6642 0 0 2.6642 -520.32 532.51)">
		<path class="st1" d="M219.9-359.2c0-0.3,0.2-0.6,0.5-0.8c0.3-0.2,0.6-0.3,1-0.3c0.4,0,0.7,0.1,1,0.3c0.3,0.2,0.4,0.5,0.5,0.8
			c0,0.3-0.1,0.6-0.4,0.8c-0.3,0.2-0.6,0.4-1.1,0.4s-0.8-0.1-1.1-0.4C220.1-358.6,219.9-358.9,219.9-359.2L219.9-359.2z"/>
		<path class="st2" d="M217.6-358.6c0,0.1,0,0.3,0.1,0.5c0.1,0.4,0.4,0.7,0.7,1c0.3,0.3,0.8,0.6,1.3,0.8c0.5,0.2,1.1,0.3,1.6,0.3
			c0.6,0,1.1-0.1,1.6-0.3c0.5-0.2,0.9-0.4,1.3-0.8c0.3-0.3,0.6-0.7,0.7-1c0.1-0.2,0.1-0.4,0.1-0.6c0-0.2,0-0.4,0-0.6
			c-0.1-0.4-0.2-0.7-0.5-1c-0.2-0.3-0.5-0.5-0.8-0.8l0,0l-3.4-2.2c0,0,0,0,0,0c-0.2-0.1-0.6-0.1-0.8,0c-0.2,0.1-0.3,0.4-0.1,0.5l0,0
			l1.4,1l-4.3,0h0c-0.4,0-0.7,0.2-0.8,0.4c-0.1,0.2,0.2,0.5,0.5,0.5l0,0l2.2,0l-3.9,2.5c0,0,0,0,0,0c-0.4,0.2-0.5,0.6-0.3,0.9
			c0.2,0.2,0.7,0.3,1.1,0l2.1-1.4C217.6-358.9,217.6-358.7,217.6-358.6L217.6-358.6z M223-358c-0.4,0.4-1,0.6-1.7,0.6
			c-0.7,0-1.3-0.2-1.7-0.6c-0.2-0.2-0.4-0.4-0.5-0.6c-0.1-0.2-0.1-0.4-0.1-0.7c0-0.2,0.1-0.4,0.2-0.6c0.1-0.2,0.3-0.4,0.5-0.5
			c0.4-0.3,1-0.4,1.5-0.4c0.6,0,1.1,0.2,1.5,0.4c0.2,0.1,0.4,0.3,0.5,0.5c0.1,0.2,0.2,0.4,0.2,0.6c0,0.2,0,0.5-0.1,0.7
			C223.4-358.4,223.3-358.2,223-358L223-358z"/>
		<path class="st1" d="M243-359.2c0-0.3,0.3-0.5,0.7-0.5c0.4,0,0.7,0.2,0.7,0.5H243z M244.4-358.5c-0.1,0.2-0.4,0.4-0.7,0.4
			c-0.4,0-0.7-0.2-0.7-0.6h2.5v-0.1c0-0.9-0.6-1.4-1.8-1.4c-1.1,0-1.8,0.5-1.8,1.3c0,0.8,0.7,1.3,1.8,1.3c0.7,0,1.2-0.2,1.5-0.5
			L244.4-358.5L244.4-358.5z"/>
		<path class="st1" d="M231.8-359.2c0-0.3,0.3-0.5,0.7-0.5c0.4,0,0.7,0.2,0.7,0.5H231.8z M233.2-358.5c-0.1,0.2-0.4,0.4-0.7,0.4
			c-0.4,0-0.7-0.2-0.7-0.6h2.5v-0.1c0-0.9-0.6-1.4-1.8-1.4c-1.1,0-1.8,0.5-1.8,1.3c0,0.8,0.7,1.3,1.8,1.3c0.7,0,1.2-0.2,1.5-0.5
			L233.2-358.5L233.2-358.5z"/>
		<rect x="229.6" y="-360.8" class="st1" width="0.9" height="3.1"/>
		<path class="st1" d="M234.5-360h0.9v0.2c0.3-0.3,0.7-0.4,1.2-0.4c0.5,0,0.9,0.1,1.1,0.4c0.2,0.2,0.2,0.5,0.2,0.8v1.4h-0.9v-1.2
			c0-0.5-0.1-0.7-0.6-0.7c-0.5,0-0.9,0.3-0.9,0.7v1.2h-0.9V-360L234.5-360z"/>
		<path class="st1" d="M240.8-358.9c0,0.4-0.3,0.7-0.9,0.7c-0.5,0-0.9-0.3-0.9-0.7c0-0.4,0.3-0.7,0.9-0.7
			C240.4-359.6,240.8-359.3,240.8-358.9z M240.8-359.9c-0.2-0.2-0.6-0.3-1-0.3c-1,0-1.7,0.5-1.7,1.3c0,0.8,0.7,1.3,1.7,1.3
			c0.5,0,0.8-0.1,1-0.3v0.2h0.9v-3.3l-0.9,0.2V-359.9z"/>
		<path class="st1" d="M227.5-359.6c0.5,0,0.9,0.3,0.9,0.7c0,0.4-0.3,0.7-0.9,0.7c-0.5,0-0.9-0.3-0.9-0.7
			C226.6-359.3,227-359.6,227.5-359.6z M226.6-360.8l-0.9-0.2v3.3h0.9v-0.2c0.3,0.2,0.6,0.3,1,0.3c1,0,1.7-0.5,1.7-1.3
			c0-0.8-0.7-1.3-1.7-1.3c-0.5,0-0.8,0.1-1,0.3V-360.8L226.6-360.8z"/>
		<path class="st1" d="M245.7-357.7v-2.3h0.9v0.1c0.3-0.3,0.6-0.4,0.9-0.4c0.1,0,0.1,0,0.3,0v0.7c-0.1,0-0.2,0-0.3,0
			c-0.5,0-0.9,0.3-0.9,0.8v1.1H245.7L245.7-357.7z"/>
	</g>
	<g transform="matrix(.27199 0 0 .27199 -78.096 -584.9)">
		<text transform="matrix(0.8824 0 0 0.737 805.4664 580.7903)" class="st3 st4 st5">®</text>
	</g>
</g>
</svg>
