<?xml version="1.0" encoding="utf-8"?>
<!-- Generator: Adobe Illustrator 24.0.2, SVG Export Plug-In . SVG Version: 6.00 Build 0)  -->
<svg version="1.1" id="Capa_1" xmlns="http://www.w3.org/2000/svg" xmlns:xlink="http://www.w3.org/1999/xlink" x="0px" y="0px"
	 viewBox="0 0 566.9 141.7" style="enable-background:new 0 0 566.9 141.7;" xml:space="preserve">
<style type="text/css">
	.st0{fill:url(#SVGID_1_);}
	.st1{fill:#FFFFFF;}
	.st2{fill:url(#SVGID_2_);}
</style>
<linearGradient id="SVGID_1_" gradientUnits="userSpaceOnUse" x1="0" y1="-379.9421" x2="566.9" y2="-379.9421" gradientTransform="matrix(1 0 0 -1 0 -309.0921)">
	<stop  offset="0" style="stop-color:#9013FE"/>
	<stop  offset="1" style="stop-color:#6610F2"/>
</linearGradient>
<rect y="0" class="st0" width="566.9" height="141.7"/>
<g>
	<g>
		<path class="st1" d="M34,33c-0.2-7.1,5.3-13.3,12.6-13.3h75.2c7.3,0,12.7,6.5,12.6,13.3c-0.2,6.6,0.1,15.4,2.3,22.4
			c2.2,7.1,5.9,11.6,12,12.1v6.5c-6,0.6-9.8,5-12,12.1c-2.2,7.1-2.4,15.8-2.3,22.4c0.2,7.1-5.3,13.3-12.6,13.3H46.6
			c-7.3,0-12.7-6.5-12.6-13.3c0.2-6.6-0.1-15.4-2.3-22.4c-2.2-7.1-5.9-11.6-12-12.1v-6.5c6-0.6,9.8-5,12-12.1
			C34,48.4,34.4,39.6,34,33z"/>
		
			<linearGradient id="SVGID_2_" gradientUnits="userSpaceOnUse" x1="64.5795" y1="-379.8567" x2="106.0826" y2="-379.8567" gradientTransform="matrix(1 0 0 -1 0 -309.0921)">
			<stop  offset="0" style="stop-color:#9013FE"/>
			<stop  offset="1" style="stop-color:#6610F2"/>
		</linearGradient>
		<path class="st2" d="M87,98c11.9,0,19.1-5.9,19.1-15.5c0-7.2-5.1-12.5-12.7-13.3v-0.2c5.5-0.9,9.9-6,9.9-11.9
			c0-8.2-6.5-13.6-16.5-13.6H64.6V98L87,98L87,98z M73.3,50.5h11.6c6.2,0,9.9,2.8,9.9,7.8c0,5.4-4.2,8.4-11.6,8.4h-9.8V50.5H73.3z
			 M73.3,91.2v-18h11.5c8.2,0,12.5,3.1,12.5,8.9s-4.2,9-12,9C85.2,91.2,73.3,91.2,73.3,91.2z"/>
	</g>
	<g>
		<path class="st1" d="M164,89.5V52.2h13.5c4.2,0,7.4,0.7,9.6,2.3c2.3,1.5,3.3,3.7,3.3,6.4c0,2-0.7,3.8-2,5.2
			c-1.3,1.5-3.1,2.6-5.2,3.1v0.1c2.6,0.4,4.8,1.3,6.3,3c1.5,1.7,2.4,3.6,2.4,5.9c0,3.4-1.2,6.1-3.7,8.1c-2.5,2-5.8,3-10,3H164V89.5z
			 M172.5,58.4v8.8h3.7c1.8,0,3.1-0.5,4-1.3c1-0.8,1.5-2,1.5-3.4c0-2.7-2-4.2-6.2-4.2h-3.1V58.4z M172.5,73.5v9.9h4.5
			c1.9,0,3.4-0.5,4.5-1.3c1.1-1,1.7-2.1,1.7-3.7s-0.6-2.6-1.7-3.6c-1.1-0.8-2.6-1.3-4.5-1.3C177,73.5,172.5,73.5,172.5,73.5z"/>
		<path class="st1" d="M210,90.1c-4.4,0-8-1.2-10.5-3.7c-2.5-2.5-3.8-5.8-3.8-10.1c0-4.4,1.3-7.8,3.9-10.3c2.6-2.5,6.2-3.7,10.7-3.7
			c4.4,0,7.8,1.2,10.3,3.7c2.5,2.5,3.8,5.8,3.8,9.9c0,4.4-1.3,8-3.9,10.5C218.1,88.8,214.5,90.1,210,90.1z M210.3,68.5
			c-1.9,0-3.4,0.7-4.5,2c-1.1,1.3-1.7,3.2-1.7,5.7c0,5.1,2,7.6,6.2,7.6c3.9,0,5.9-2.6,5.9-7.8C216.2,71,214.2,68.5,210.3,68.5z"/>
		<path class="st1" d="M242.6,90.1c-4.4,0-8-1.2-10.5-3.7c-2.5-2.5-3.8-5.8-3.8-10.1c0-4.4,1.3-7.8,3.9-10.3
			c2.6-2.5,6.2-3.7,10.7-3.7c4.4,0,7.8,1.2,10.3,3.7c2.5,2.5,3.8,5.8,3.8,9.9c0,4.4-1.3,8-3.9,10.5
			C250.7,88.8,247.1,90.1,242.6,90.1z M242.8,68.5c-1.9,0-3.4,0.7-4.5,2c-1.1,1.3-1.7,3.2-1.7,5.7c0,5.1,2,7.6,6.2,7.6
			c3.9,0,5.9-2.6,5.9-7.8C248.8,71,246.7,68.5,242.8,68.5z"/>
		<path class="st1" d="M278.5,89.1c-1.2,0.6-3.1,1-5.5,1c-5.8,0-8.7-3-8.7-9V68.9h-4.3v-6.1h4.3v-5.7l8.2-2.4v8.1h5.9v6.1h-5.9v10.8
			c0,2.7,1.1,4.2,3.3,4.2c0.8,0,1.8-0.2,2.7-0.7v5.9H278.5z"/>
		<path class="st1" d="M281.4,88.8v-6.7c1.3,0.8,2.7,1.4,4,1.8s2.6,0.6,3.8,0.6c1.4,0,2.6-0.2,3.4-0.6s1.3-1,1.3-1.8
			c0-0.5-0.2-1-0.6-1.3c-0.4-0.4-0.8-0.6-1.4-1c-0.6-0.2-1.3-0.5-2-0.7c-0.7-0.2-1.4-0.5-2-0.7c-1.1-0.4-2-0.8-2.9-1.3s-1.4-1-2-1.5
			c-0.6-0.6-1-1.3-1.2-2.1c-0.2-0.8-0.5-1.8-0.5-2.9c0-1.5,0.4-2.7,1-3.8c0.6-1.1,1.5-1.9,2.6-2.6c1.1-0.7,2.4-1.2,3.7-1.5
			c1.4-0.4,2.9-0.5,4.4-0.5c1.2,0,2.4,0.1,3.6,0.2c1.2,0.2,2.4,0.5,3.6,0.8v6.3c-1.1-0.6-2.1-1.1-3.3-1.3c-1.2-0.4-2.4-0.5-3.4-0.5
			c-0.6,0-1.1,0-1.5,0.1s-1,0.2-1.3,0.4c-0.4,0.2-0.6,0.4-0.8,0.7c-0.2,0.2-0.4,0.6-0.4,1c0,0.5,0.1,1,0.5,1.2
			c0.4,0.4,0.7,0.6,1.2,1c0.5,0.2,1.1,0.5,1.7,0.7c0.6,0.2,1.2,0.4,1.8,0.6c1.1,0.4,2,0.8,3,1.2c0.8,0.5,1.7,1,2.3,1.5
			c0.6,0.6,1.1,1.3,1.4,2.1c0.4,0.8,0.5,1.8,0.5,2.9c0,1.5-0.4,3-1.1,4c-0.7,1.1-1.5,2-2.7,2.7c-1.2,0.7-2.5,1.2-3.9,1.5
			c-1.4,0.4-3,0.5-4.6,0.5C286.6,90.1,283.9,89.6,281.4,88.8z"/>
		<path class="st1" d="M322.7,89.1c-1.2,0.6-3.1,1-5.5,1c-5.8,0-8.7-3-8.7-9V68.9h-4.3v-6.1h4.3v-5.7l8.2-2.4v8.1h5.9v6.1h-5.9v10.8
			c0,2.7,1.1,4.2,3.3,4.2c0.8,0,1.8-0.2,2.7-0.7v5.9H322.7z"/>
		<path class="st1" d="M344.7,70.2c-1-0.6-2.1-0.8-3.4-0.8c-1.8,0-3.2,0.7-4.2,2s-1.5,3.1-1.5,5.3v12.7h-8.2V62.9h8.2v5h0.1
			c1.3-3.6,3.7-5.3,7-5.3c0.8,0,1.5,0.1,2,0.4L344.7,70.2L344.7,70.2z"/>
		<path class="st1" d="M370.6,89.5h-7.7v-3.8h-0.1c-1.8,3-4.4,4.5-8,4.5c-2.6,0-4.6-0.7-6.1-2.1c-1.4-1.4-2.3-3.4-2.3-5.8
			c0-5.1,3.1-8.2,9.2-8.9l7.3-1c0-2.9-1.5-4.4-4.8-4.4c-3.2,0-6.2,1-9,2.9v-6.2c1.2-0.6,2.7-1.1,4.6-1.5c2-0.5,3.8-0.7,5.5-0.7
			c7.6,0,11.4,3.8,11.4,11.4V89.5z M362.9,78.7v-1.8l-4.9,0.6c-2.6,0.4-4,1.5-4,3.6c0,1,0.4,1.7,1,2.3s1.5,1,2.6,1
			c1.5,0,2.9-0.5,3.8-1.5C362.4,81.7,362.9,80.2,362.9,78.7z"/>
		<path class="st1" d="M385.5,86.4L385.5,86.4l-0.1,15.3h-8.2V62.9h8.2v4h0.1c2-3.1,4.9-4.6,8.6-4.6c3.4,0,6.1,1.2,8,3.6
			c1.9,2.4,2.9,5.6,2.9,9.6c0,4.4-1.1,8-3.3,10.7c-2.1,2.7-5.1,4-8.8,4C389.5,90.1,387.1,88.9,385.5,86.4z M385.2,75.5v2.1
			c0,1.8,0.5,3.3,1.4,4.5c1,1.2,2.3,1.8,3.8,1.8c1.9,0,3.3-0.7,4.4-2.1c1.1-1.4,1.5-3.4,1.5-6.2c0-4.6-1.8-7-5.5-7
			c-1.7,0-3.1,0.6-4.2,1.9C385.7,71.7,385.2,73.3,385.2,75.5z"/>
	</g>
</g>
</svg>
