<?xml version="1.0" encoding="utf-8"?>
<!-- Generator: Adobe Illustrator 24.0.2, SVG Export Plug-In . SVG Version: 6.00 Build 0)  -->
<svg version="1.1" id="Capa_1" xmlns="http://www.w3.org/2000/svg" xmlns:xlink="http://www.w3.org/1999/xlink" x="0px" y="0px"
	 viewBox="0 0 566.9 141.7" style="enable-background:new 0 0 566.9 141.7;" xml:space="preserve">
<style type="text/css">
	.st0{fill:#00D1B2;}
	.st1{fill:#FFFFFF;}
</style>
<g id="Capa_1_1_">
	<rect y="0" class="st0" width="566.9" height="141.7"/>
</g>
<g>
	<path class="st1" d="M19.9,89.4c0.6-4.1,1.2-8.5,1.8-12.8c1.2-8.7,2.5-17.3,3.7-26c0.2-1.4,0.4-2.9,0.6-4.3c0.1-0.8,0.4-1.4,1-2
		c8-7.9,15.9-15.9,23.9-23.9c0.8-0.8,1.2-0.8,2,0C62.9,30.5,73,40.5,83,50.5c0.8,0.8,0.8,1.2,0,2C77.2,58.2,71.5,64,65.7,69.7
		c-0.8,0.8-0.9,1.2,0,2.1c7.9,7.9,15.8,15.8,23.7,23.6c0.8,0.8,0.8,1.2-0.2,1.8c-12.1,8-24.1,16-36.2,24.1c-0.8,0.6-1.3,0.7-2.1-0.1
		C40.8,111.1,30.7,101,20.6,90.9C20.2,90.5,19.7,90.2,19.9,89.4z"/>
	<g>
		<path class="st1" d="M227,70.4c2.4-4.2,4.5-8.3,6.6-12.2c0.8-1.2,1.4-2.4,2.1-3.6c1.5-2.1,3.6-2.6,6-2.3c2,0.3,3,1.7,3,4.1
			c0,3.9,0,7.7,0,11.6c0,8.6-0.2,17.3,0,25.9c0,2.7-1.7,3.5-4.1,3.5c-2.7,0.2-3.9-1.1-4.1-3.5c0-7.5,0-15,0-22.6c0-0.8,0-1.4,0-2.7
			c-0.6,0.9-0.9,1.4-1.2,1.8c-2,3.3-3.8,6.8-5.7,10.1c-0.8,1.2-1.5,2.3-3,2.3c-1.7,0-2.4-1.1-3-2.3c-1.8-3.5-3.6-6.9-5.6-10.4
			c-0.3-0.6-0.6-1.1-1.4-1.5c0,0.6,0,1.2,0,1.8c0,7.8,0,15.6,0,23.6c0,2.4-1.2,3.3-3.8,3.5c-2.7,0-4.1-1.1-4.1-3.5
			c0-12.3,0-24.7,0-37c0-2,0.3-3.8,2.4-4.4s4.2-0.5,5.9,1.4c0.9,1.1,1.7,2.3,2.4,3.5C222.1,61.5,224.4,65.7,227,70.4z"/>
		<path class="st1" d="M130.4,72.8c3.2,1.5,5.6,3.5,6,6.9c0.6,4.7,0.8,9.2-2,13.2c-2.1,3.2-5.4,4.2-9,4.4c-4.7,0.2-9.3,0.2-13.8,0
			c-2.7,0-3.6-1.1-3.6-3.8c0-12.6,0-25.3,0-37.9c0-2.1,0.8-3.3,2.9-3.3c5.1-0.2,10.4-0.3,15.5,0.2c7.4,0.8,10.5,5.7,9.3,13.1
			C134.9,68.8,133.6,71.3,130.4,72.8z M115.8,90.4c2.6,0,5,0.2,7.4,0c2.9-0.2,4.7-1.5,5.1-4.1c0.6-3.2,1.2-6.6-1.8-9.2
			c-0.6-0.5-1.4-0.9-2.1-0.9c-2.9-0.2-5.7,0-8.7,0C115.8,80.9,115.8,85.6,115.8,90.4z M115.8,69.7c2.7,0,5.3,0.2,7.7,0
			c2.4-0.2,3.8-1.7,4.1-4.1c0.3-3-0.6-5.6-3-5.9c-2.9-0.5-5.7-0.5-8.7-0.6C115.8,62.9,115.8,66.2,115.8,69.7z"/>
		<path class="st1" d="M142.4,70.6c0-5,0-9.9,0-14.9c0-2.4,1.2-3.5,4.1-3.3c2.7,0,3.9,0.9,3.9,3.3c0,8.7,0,17.4,0,26.3
			c0,0.6,0,1.4,0,2c0.3,5.7,4.8,8.6,10.1,6.3c2.3-0.9,3.3-2.7,3.5-5c0.2-3,0.2-6,0.2-9c0-6.6,0-13.4,0-20c0-1.4-0.2-2.7,1.5-3.3
			c2-0.6,3.9-0.8,5.7,0.6c0.5,0.5,0.6,1.5,0.6,2.3c0,9.3,0,18.6,0,28c0,8.7-4.4,13.5-13.2,14c-2.4,0.2-5.1-0.2-7.4-0.8
			c-5.3-1.4-8.3-5.3-8.7-10.7c0-0.8-0.2-1.4-0.2-2.1C142.4,79.4,142.4,74.9,142.4,70.6L142.4,70.6z"/>
		<path class="st1" d="M278.4,97.3c-1.2,0-2.3-0.5-2.6-2.1c-0.6-2.1-1.2-4.4-1.8-6.5c-0.3-0.9-0.8-1.4-1.8-1.4c-3.8,0-7.5,0-11.4,0
			c-1.2,0-1.7,0.6-2,1.7c-0.5,2-1.1,3.9-1.7,5.9c-0.6,2.3-2.1,2.9-4.7,2.1c-2.7-0.8-3.6-2.1-2.9-4.2c3.8-12.5,7.7-25.1,11.6-37.6
			c0.8-2.3,2.4-3.3,5.3-3.3s4.7,1.1,5.4,3.3c3.9,12.5,7.7,25.1,11.4,37.6C284,95.2,281.7,97.3,278.4,97.3z M271.8,81.2
			c-1.8-6.3-3.5-12.3-5.3-18.3c-0.2,0-0.3,0-0.5,0c-1.7,6-3.5,12.2-5.1,18.3C264.7,81.2,268,81.2,271.8,81.2z"/>
		<path class="st1" d="M187.3,90.4c0.9,0,1.7,0,2.3,0c3.9,0,7.7,0,11.6,0c2.6,0,3.6,1.1,3.6,3.5c0,2.4-1.1,3.5-3.6,3.5
			c-5.7,0-11.4,0-17.1,0c-0.9,0-1.8-0.2-2.7-0.3c-1.2-0.3-2-1.2-2-2.6c0-13.1,0-26.2,0-39.4c0-1.4,0.6-2.3,2-2.6
			c0.9-0.2,2-0.3,2.9-0.3c2.6,0.2,3.2,1.1,3.2,3.6c0,10.7,0,21.4,0,32C187.3,88.6,187.3,89.4,187.3,90.4z"/>
	</g>
</g>
</svg>
