<?xml version="1.0" encoding="utf-8"?>
<!-- Generator: Adobe Illustrator 24.0.2, SVG Export Plug-In . SVG Version: 6.00 Build 0)  -->
<svg version="1.1" id="Capa_1" xmlns="http://www.w3.org/2000/svg" xmlns:xlink="http://www.w3.org/1999/xlink" x="0px" y="0px"
	 viewBox="0 0 566.9 141.7" style="enable-background:new 0 0 566.9 141.7;" xml:space="preserve">
<style type="text/css">
	.st0{fill:#3655A2;}
	.st1{fill:#FFFFFF;}
</style>
<rect y="0" class="st0" width="566.9" height="141.7"/>
<g>
	<g>
		<path id="path2999" class="st1" d="M129,52.4h29.4v12.3h-17.1V77h17.1v12.3H129V52.4z"/>
		<path id="path3001" class="st1" d="M164,52.4h29.4v10.4h-17.1V65h17.1v24.4H164V78.1h17.1v-2.1H164V52.4z"/>
		<path id="path3003" class="st1" d="M199.1,52.4h29.4v10.4h-17.1V65h17.1v24.4h-29.4V78.1h17.1v-2.1h-17.1V52.4z"/>
	</g>
	<g>
		<polygon id="polygon2989" class="st1" points="109.6,19.9 101.2,111.6 64.6,121.8 27.9,111.6 19.7,19.9 		"/>
		<polygon class="st0" points="36.5,38.7 37.5,50 80.5,50 79.4,61.4 38.5,61.4 39.5,72.7 78.5,72.7 77.1,87.3 64.6,90.6 64.6,90.6 
			64.6,90.6 52,87.3 51.3,78.3 40,78.3 41.6,96 64.6,102.3 64.6,102.3 64.6,102.3 87.7,96 87.8,94.1 90.4,64.5 90.8,61.4 92.8,38.7 
					"/>
	</g>
</g>
</svg>
