<?xml version="1.0" encoding="utf-8"?>
<!-- Generator: Adobe Illustrator 24.0.2, SVG Export Plug-In . SVG Version: 6.00 Build 0)  -->
<svg version="1.1" id="Capa_1" xmlns="http://www.w3.org/2000/svg" xmlns:xlink="http://www.w3.org/1999/xlink" x="0px" y="0px"
	 viewBox="0 0 566.9 141.7" style="enable-background:new 0 0 566.9 141.7;" xml:space="preserve">
<style type="text/css">
	.st0{fill:#2C2B30;}
	.st1{fill:#1C1C20;}
	.st2{fill:#BAFFA9;}
	.st3{fill:#7ACB16;}
</style>
<rect y="0" class="st0" width="566.9" height="141.7"/>
<g>
	<g>
		<circle class="st1" cx="70.7" cy="70.2" r="50.9"/>
		<path class="st2" d="M91,68.8l-5.7-5.7l2.9-12L76,53.9l-5.5-5.5l27.2-6.8L91,68.8L91,68.8z"/>
		<path class="st3" d="M81.6,106.4L33,57.8L60.2,51l5.5,5.5l-19.5,4.9l11,11L70,69.3l-3.2,12.6l11,11l4.9-19.5l5.7,5.7L81.6,106.4
			L81.6,106.4z"/>
	</g>
	<g>
		<path class="st2" d="M173.5,72.6h-18.7v14.6h20.9v7.4h-30V44.9h28.9v7.4h-19.8v12.8h18.7L173.5,72.6L173.5,72.6z"/>
		<path class="st2" d="M183.3,69.4c0-4.1-0.1-7.6-0.3-10.7h7.7l0.4,5.3h0.2c1.7-2.8,4.9-6.1,11.1-6.1c4.7,0,8.4,2.7,9.9,6.6h0.1
			c1.3-2,2.7-3.5,4.3-4.5c2.1-1.4,4.3-2.1,7.4-2.1c5.9,0,11.9,4.1,11.9,15.6v21.2h-8.8V74.8c0-6-2.1-9.5-6.4-9.5
			c-3.1,0-5.4,2.2-6.3,4.8c-0.3,0.8-0.4,2-0.4,3v21.5h-8.8V73.8c0-5-2-8.5-6.2-8.5c-3.4,0-5.7,2.7-6.6,5.1c-0.3,1-0.4,2-0.4,3v21.2
			h-8.8L183.3,69.4L183.3,69.4z"/>
		<path class="st2" d="M245.8,69.4c0-4.1-0.1-7.6-0.3-10.7h7.7l0.4,5.3h0.2c1.7-2.8,4.9-6.1,11.1-6.1c4.7,0,8.4,2.7,9.9,6.6h0.1
			c1.3-2,2.7-3.5,4.3-4.5c2.1-1.4,4.3-2.1,7.4-2.1c5.9,0,11.9,4.1,11.9,15.6v21.2h-8.8V74.8c0-6-2.1-9.5-6.4-9.5
			c-3.1,0-5.4,2.2-6.3,4.8c-0.3,0.8-0.4,2-0.4,3v21.5h-8.8V73.8c0-5-2-8.5-6.2-8.5c-3.4,0-5.7,2.7-6.6,5.1c-0.3,1-0.4,2-0.4,3v21.2
			h-8.8V69.4z"/>
		<path class="st2" d="M314.7,79.2c0.2,6.5,5.2,9.3,11.1,9.3c4.2,0,7.1-0.7,9.9-1.6L337,93c-3.1,1.3-7.4,2.3-12.5,2.3
			c-11.6,0-18.5-7.1-18.5-18.1c0-9.9,6-19.3,17.5-19.3c11.6,0,15.5,9.6,15.5,17.5c0,1.7-0.1,3-0.3,3.8L314.7,79.2L314.7,79.2z
			 M330.5,72.9c0.1-3.3-1.4-8.8-7.4-8.8c-5.6,0-8,5.1-8.3,8.8H330.5z"/>
		<path class="st2" d="M356.7,49.5v9.2h8.6v6.8h-8.6v15.8c0,4.4,1.2,6.6,4.6,6.6c1.6,0,2.5-0.1,3.5-0.4l0.1,6.9
			c-1.3,0.5-3.8,1-6.6,1c-3.4,0-6.1-1.1-7.8-2.9c-2-2.1-2.9-5.4-2.9-10.1V65.5h-5.1v-6.8h5.1V52L356.7,49.5z"/>
	</g>
</g>
</svg>
