<?xml version="1.0" encoding="utf-8"?>
<!-- Generator: Adobe Illustrator 24.0.2, SVG Export Plug-In . SVG Version: 6.00 Build 0)  -->
<svg version="1.1" id="Capa_2_1_" xmlns="http://www.w3.org/2000/svg" xmlns:xlink="http://www.w3.org/1999/xlink" x="0px" y="0px"
	 viewBox="0 0 566.9 141.7" style="enable-background:new 0 0 566.9 141.7;" xml:space="preserve">
<style type="text/css">
	.st0{fill:#FFFFFF;}
	.st1{fill:#0052B4;}
	.st2{fill:#D80027;}
	.st3{fill:#F0F0F0;}
</style>
<rect y="0.5" class="st0" width="566.9" height="141.7"/>
<g>
	<path class="st1" d="M197.5,92.8v-6l4.4-0.9V57.1l-4.4-0.9v-6h34.1v12.3h-7.8l-0.2-4.4h-11.4v8.8h13.6v7.9h-13.6V85h11.9l0.2-4.6
		h7.7v12.5L197.5,92.8L197.5,92.8z"/>
	<path class="st2" d="M235.8,92.8v-6l4.4-0.9V57.1l-4.4-0.9v-6h4.4h10.5l17.1,27.3h0.2V57.1l-5.6-0.9v-6h14.7h4.4v6l-4.4,0.9v35.7
		H267l-17.4-26.7h-0.2v19.8l5.6,0.9v6C255,92.8,235.8,92.8,235.8,92.8z"/>
	<path class="st1" d="M303.3,93.4c-4.4,0-8.1-0.9-11.2-2.6s-5.4-4.1-7-7.2s-2.4-6.6-2.4-10.6v-1.9c0-4.2,0.8-8,2.4-11.2
		s3.9-5.8,6.9-7.6s6.6-2.8,10.9-2.8c2.9,0,5.8,0.4,8.8,1.3c2.9,0.9,5.5,2.3,7.7,4.2v10H312l-1.6-5.4c-0.7-0.7-1.6-1.2-2.8-1.7
		c-1.2-0.4-2.6-0.7-4.1-0.7c-2.3,0-4.3,0.6-5.9,1.7c-1.6,1.2-2.8,2.8-3.6,4.8c-0.8,2.1-1.2,4.5-1.2,7.2v2c0,2.6,0.4,4.8,1.2,6.7
		c0.8,1.9,2,3.4,3.6,4.4s3.6,1.6,5.9,1.6c1.2,0,2.5-0.1,3.7-0.4s2.2-0.5,2.8-0.8V79l-4.8-0.6v-7.1h15.1V89c-2.3,1.5-4.9,2.6-7.8,3.3
		C309.8,93.1,306.6,93.4,303.3,93.4z"/>
	<path class="st2" d="M323.8,92.8v-6l4.4-0.9V57.1l-4.4-0.9v-6h4.4h10.3h5.4v6l-5.4,0.9v27.8h10.1l0.2-5.9h7.9v13.8
		C356.7,92.8,323.8,92.8,323.8,92.8z"/>
	<path class="st1" d="M358.7,92.8v-6l4.4-0.9V57.1l-4.4-0.9v-6h19.1v6l-4.4,0.9v28.7l4.4,0.9v6L358.7,92.8L358.7,92.8z"/>
	<path class="st2" d="M398.8,93.4c-3.5,0-6.6-0.3-9.3-1c-2.7-0.7-5.4-1.9-8.1-3.8v-11h7.9l0.9,5.7c0.6,0.7,1.7,1.3,3.3,1.8
		s3.3,0.7,5.2,0.7c1.3,0,2.4-0.2,3.3-0.5s1.5-0.8,2-1.4s0.7-1.4,0.7-2.3c0-0.8-0.2-1.6-0.6-2.3S403,78,402,77.4s-2.2-1.2-3.9-1.8
		c-3.7-1.2-6.7-2.4-9-3.6s-4.1-2.6-5.2-4.3c-1.1-1.7-1.7-3.7-1.7-6.2c0-2.4,0.7-4.4,2-6.2s3.2-3.2,5.6-4.2s5.1-1.6,8.1-1.6
		c3.5-0.1,6.6,0.3,9.2,1c2.7,0.8,5,1.9,7.1,3.5v10.3h-7.6l-1.2-5.7c-0.7-0.3-1.6-0.6-2.8-0.9c-1.2-0.3-2.5-0.4-3.9-0.4
		c-1.2,0-2.3,0.2-3.2,0.5c-0.9,0.3-1.7,0.8-2.2,1.4c-0.5,0.6-0.8,1.4-0.8,2.3c0,0.8,0.2,1.4,0.7,2c0.4,0.6,1.2,1.2,2.4,1.8
		c1.1,0.6,2.7,1.3,4.7,2.1c4.8,1.4,8.5,3.2,11,5.3c2.5,2.1,3.8,5,3.8,8.7c0,2.5-0.7,4.7-2.1,6.4s-3.3,3.1-5.7,4
		C404.9,93,402.1,93.4,398.8,93.4z"/>
	<path class="st1" d="M417.5,92.8v-6l4.4-0.9V57.1l-4.4-0.9v-6h19.1v6l-4.4,0.9v10.8h15.5V57.1l-4.4-0.9v-6h4.4H458h4.4v6l-4.4,0.9
		v28.7l4.4,0.9v6h-19.1v-6l4.4-0.9v-10h-15.5v10.1l4.4,0.9v6H417.5z"/>
</g>
<g>
	<g>
		<ellipse class="st3" cx="122.4" cy="71.5" rx="50.7" ry="50.7"/>
		<path class="st3" d="M122.3,22.3c27.2,0,49.2,22,49.2,49.2s-22,49.2-49.2,49.2s-49.2-22-49.2-49.2S95.2,22.3,122.3,22.3
			 M122.3,19.3c-28.8,0-52.2,23.4-52.2,52.2s23.4,52.2,52.2,52.2s52.2-23.4,52.2-52.2S151.1,19.3,122.3,19.3L122.3,19.3z"/>
	</g>
	<g>
		<path class="st1" d="M83.3,41.5c-3.9,5-6.8,10.8-8.5,17.1h25.6L83.3,41.5z"/>
		<path class="st1" d="M169.8,58.6c-1.7-6.3-4.6-12.1-8.5-17.1l-17.1,17.1H169.8z"/>
		<path class="st1" d="M74.8,84.3c1.7,6.3,4.6,12.1,8.5,17.1l17.1-17.1H74.8L74.8,84.3z"/>
		<path class="st1" d="M152.3,32.5c-5-3.9-10.8-6.8-17.1-8.5v25.6L152.3,32.5z"/>
		<path class="st1" d="M92.4,110.5c5,3.9,10.8,6.8,17.1,8.5V93.4L92.4,110.5z"/>
		<path class="st1" d="M109.5,24c-6.3,1.7-12.1,4.6-17.1,8.5l17.1,17.1V24z"/>
		<path class="st1" d="M135.2,119c6.3-1.7,12.1-4.6,17.1-8.5l-17.1-17.1V119L135.2,119z"/>
		<path class="st1" d="M144.2,84.3l17.1,17.1c3.9-5,6.8-10.8,8.5-17.1H144.2z"/>
	</g>
	<g>
		<path class="st2" d="M171.1,65.1h-42.4l0,0V22.7c-2.1-0.3-4.2-0.4-6.4-0.4c-2.2,0-4.3,0.1-6.4,0.4v42.4l0,0H73.6
			c-0.3,2.1-0.4,4.2-0.4,6.4c0,2.2,0.1,4.3,0.4,6.4H116l0,0v42.4c2.1,0.3,4.2,0.4,6.4,0.4c2.2,0,4.3-0.1,6.4-0.4V77.9l0,0h42.4
			c0.3-2.1,0.4-4.2,0.4-6.4C171.5,69.3,171.4,67.2,171.1,65.1z"/>
		<path class="st2" d="M135.2,84.3L135.2,84.3l21.9,21.9c1-1,2-2.1,2.9-3.2l-18.8-18.8L135.2,84.3L135.2,84.3L135.2,84.3z"/>
		<path class="st2" d="M109.5,84.3L109.5,84.3l-21.9,21.9c1,1,2.1,2,3.2,2.9l18.8-18.8L109.5,84.3L109.5,84.3z"/>
		<path class="st2" d="M109.5,58.6L109.5,58.6L87.6,36.7c-1,1-2,2.1-2.9,3.2l18.8,18.8L109.5,58.6L109.5,58.6z"/>
		<path class="st2" d="M135.2,58.6L135.2,58.6l21.9-21.9c-1-1-2.1-2-3.2-2.9l-18.8,18.8v6H135.2z"/>
	</g>
</g>
<g>
	<g>
		<ellipse class="st3" cx="69" cy="71.5" rx="50.7" ry="50.7"/>
		<path class="st3" d="M69,22.3c27.2,0,49.2,22,49.2,49.2s-22,49.2-49.2,49.2s-49.2-22-49.2-49.2S41.8,22.3,69,22.3 M69,19.3
			c-28.8,0-52.2,23.4-52.2,52.2s23.4,52.2,52.2,52.2s52.2-23.4,52.2-52.2S97.8,19.3,69,19.3L69,19.3z"/>
	</g>
	<g>
		<path class="st2" d="M66.8,71.5h51.3c0-4.4-0.6-8.7-1.7-12.8H66.8V71.5z"/>
		<path class="st2" d="M66.8,45.8h44.1c-3-4.9-6.9-9.3-11.3-12.8H66.8V45.8z"/>
		<path class="st2" d="M69,120.7c11.6,0,22.2-4,30.6-10.7H38.4C46.8,116.7,57.4,120.7,69,120.7z"/>
		<path class="st2" d="M27,97.1h83.9c2.4-3.9,4.3-8.3,5.5-12.8h-95C22.7,88.9,24.6,93.2,27,97.1z"/>
	</g>
	<path class="st1" d="M42.6,30h4.5l-4.2,3l1.6,4.9l-4.2-3l-4.2,3l1.4-4.2c-3.7,3.1-6.9,6.6-9.5,10.6h1.4l-2.7,1.9
		c-0.4,0.7-0.8,1.4-1.2,2.1l1.3,3.9l-2.4-1.7c-0.6,1.2-1.1,2.5-1.6,3.8l1.4,4.3h5.2l-4.2,3l1.6,4.9l-4.2-3l-2.5,1.8
		c-0.2,2-0.4,4.1-0.4,6.1H69c0-27.2,0-30.4,0-49.2C59.3,22.3,50.2,25.1,42.6,30z M44.5,66.6l-4.2-3l-4.2,3l1.6-4.9l-4.2-3h5.2
		l1.6-4.9l1.6,4.9h5.2l-4.2,3L44.5,66.6z M42.9,47.3l1.6,4.9l-4.2-3l-4.2,3l1.6-4.9l-4.2-3h5.2l1.6-4.9l1.6,4.9h5.2L42.9,47.3z
		 M62.1,66.6l-4.2-3l-4.2,3l1.6-4.9l-4.2-3h5.2l1.6-4.9l1.6,4.9h5.2l-4.2,3L62.1,66.6z M60.5,47.3l1.6,4.9l-4.2-3l-4.2,3l1.6-4.9
		l-4.2-3h5.2l1.6-4.9l1.6,4.9h5.2L60.5,47.3z M60.5,33l1.6,4.9l-4.2-3l-4.2,3l1.6-4.9l-4.2-3h5.2l1.6-4.9l1.6,4.9h5.2L60.5,33z"/>
</g>
</svg>
