<?xml version="1.0" encoding="utf-8"?>
<!-- Generator: Adobe Illustrator 24.0.2, SVG Export Plug-In . SVG Version: 6.00 Build 0)  -->
<svg version="1.1" id="Capa_1" xmlns="http://www.w3.org/2000/svg" xmlns:xlink="http://www.w3.org/1999/xlink" x="0px" y="0px"
	 viewBox="0 0 566.9 141.7" style="enable-background:new 0 0 566.9 141.7;" xml:space="preserve">
<style type="text/css">
	.st0{fill:#F05133;}
	.st1{fill:#FFFFFF;}
</style>
<rect y="0" class="st0" width="566.9" height="141.7"/>
<g>
	<g>
		<path class="st1" d="M166,54.6c-5.4,0-9.3,2.6-9.3,9c0,4.8,2.6,8.1,9.1,8.1c5.4,0,9.1-3.2,9.1-8.3C174.9,57.6,171.6,54.6,166,54.6
			L166,54.6z M155.3,99.3c-1.3,1.6-2.5,3.2-2.5,5.2c0,3.9,5,5.1,11.8,5.1c5.6,0,13.3-0.4,13.3-5.6c0-3.1-3.7-3.3-8.4-3.6L155.3,99.3
			L155.3,99.3z M184.2,54.9c1.7,2.2,3.6,5.4,3.6,9.8c0,10.8-8.5,17.1-20.7,17.1c-3.1,0-5.9-0.4-7.7-0.9l-3.2,5.2l9.5,0.6
			c16.8,1.1,26.8,1.6,26.8,14.5c0,11.2-9.8,17.5-26.8,17.5c-17.6,0-24.3-4.5-24.3-12.2c0-4.4,1.9-6.7,5.4-9.9
			c-3.2-1.4-4.3-3.8-4.3-6.4c0-2.1,1.1-4.1,2.8-5.9c1.8-1.8,3.7-3.7,6-5.8c-4.8-2.3-8.4-7.4-8.4-14.6c0-11.2,7.4-18.9,22.3-18.9
			c4.2,0,6.7,0.4,9,1h19v8.3L184.2,54.9"/>
		<path class="st1" d="M210.2,37.2c-5.5,0-8.8-3.2-8.8-8.8c0-5.5,3.2-8.6,8.8-8.6s8.9,3,8.9,8.6C219.1,34,215.9,37.2,210.2,37.2z
			 M197.7,95.7V88l5-0.7c1.4-0.2,1.6-0.5,1.6-2V56.8c0-1.1-0.3-1.8-1.3-2l-5.3-1.9l1.1-7.9H219v40.4c0,1.6,0.1,1.8,1.6,2l5,0.7v7.7
			L197.7,95.7"/>
		<path class="st1" d="M263.9,91.9c-4.2,2-10.3,3.9-15.9,3.9c-11.6,0-16-4.7-16-15.7V54.6c0-0.6,0-1-0.8-1h-6.8V45
			c8.6-1,12-5.3,13-15.9h9.2V43c0,0.7,0,1,0.8,1h13.7v9.7h-14.5V77c0,5.7,1.4,8,6.6,8c2.7,0,5.5-0.7,7.9-1.6L263.9,91.9"/>
	</g>
	<path class="st1" d="M119.7,66.4L75.2,21.9c-2.6-2.6-6.7-2.6-9.3,0l-9.2,9.2l11.7,11.7c2.7-0.9,5.8-0.3,8,1.9s2.8,5.3,1.9,8.1
		l11.3,11.3c2.7-0.9,5.9-0.3,8.1,1.9c3.1,3.1,3.1,8,0,11c-3.1,3.1-8,3.1-11,0c-2.3-2.3-2.9-5.7-1.7-8.5L74.3,57.9v27.7
		c0.7,0.4,1.4,0.9,2.1,1.5c3.1,3.1,3.1,8,0,11c-3.1,3.1-8,3.1-11,0c-3.1-3.1-3.1-8,0-11c0.8-0.8,1.6-1.3,2.6-1.7v-28
		c-0.9-0.4-1.8-0.9-2.6-1.7c-2.3-2.3-2.9-5.7-1.7-8.5L52.1,35.6L21.6,66.2c-2.6,2.6-2.6,6.7,0,9.3L66.1,120c2.6,2.6,6.7,2.6,9.3,0
		l44.3-44.3C122.3,73.1,122.3,68.9,119.7,66.4"/>
</g>
</svg>
