<?xml version="1.0" encoding="utf-8"?>
<!-- Generator: Adobe Illustrator 24.0.2, SVG Export Plug-In . SVG Version: 6.00 Build 0)  -->
<svg version="1.1" id="Capa_1" xmlns="http://www.w3.org/2000/svg" xmlns:xlink="http://www.w3.org/1999/xlink" x="0px" y="0px"
	 viewBox="0 0 566.9 141.7" style="enable-background:new 0 0 566.9 141.7;" xml:space="preserve">
<style type="text/css">
	.st0{fill:#E535AB;}
	.st1{fill:#FFFFFF;}
</style>
<rect y="0" class="st0" width="566.9" height="141.7"/>
<g>
	<path class="st1" d="M110.5,49.9c0-5-4.1-9.1-9.1-9.1c-2.6,0-4.9,1.1-6.6,2.8l-21-12.1c0.2-0.8,0.4-1.7,0.4-2.5
		c0-5-4.1-9.1-9.1-9.1S56,24,56,29c0,0.9,0.1,1.7,0.4,2.5l-21,12.1c-1.7-1.7-4-2.8-6.6-2.8c-5,0-9.1,4.1-9.1,9.1
		c0,4.3,3,7.9,6.9,8.8V83c-4,1-6.9,4.5-6.9,8.8c0,5,4.1,9.1,9.1,9.1c2.6,0,4.9-1.1,6.6-2.8l21,12.1c-0.2,0.8-0.4,1.7-0.4,2.5
		c0,5,4.1,9.1,9.1,9.1s9.1-4.1,9.1-9.1c0-0.9-0.1-1.7-0.4-2.5l21-12.1c1.7,1.7,4,2.8,6.6,2.8c5,0,9.1-4.1,9.1-9.1
		c0-4.3-3-7.8-6.9-8.8V58.8C107.5,57.8,110.5,54.2,110.5,49.9z M92.7,47.4c-0.2,0.8-0.4,1.7-0.4,2.5c0,4.3,3,7.8,6.9,8.8V83
		c-0.1,0-0.3,0.1-0.4,0.1L71.4,35.5c0.1-0.1,0.2-0.2,0.3-0.3L92.7,47.4z M92.6,89.7h-55c-0.4-1.7-1.3-3.2-2.5-4.4l27.5-47.6
		c0.8,0.2,1.7,0.4,2.5,0.4c0.9,0,1.7-0.1,2.5-0.4l27.5,47.6C93.9,86.5,93,88,92.6,89.7z M58.5,35.3c0.1,0.1,0.2,0.2,0.3,0.3
		L31.3,83.1c-0.1,0-0.3-0.1-0.4-0.1V58.8c4-1,6.9-4.5,6.9-8.8c0-0.9-0.1-1.7-0.4-2.5L58.5,35.3z M71.6,106.5c-1.7-1.7-4-2.8-6.6-2.8
		s-4.9,1.1-6.6,2.8l-21-12.1c0-0.1,0.1-0.3,0.1-0.4h55c0,0.1,0.1,0.3,0.1,0.4L71.6,106.5z"/>
	<g>
		<path class="st1" d="M172.6,68.6h-13.8c-0.4,0-0.8,0.2-1,0.5c-0.3,0.3-0.4,0.6-0.4,1V71c0,0.4,0.1,0.8,0.4,1.1
			c0.3,0.3,0.6,0.4,1,0.4H170v3.3c0,4.5-1.2,7.8-3.7,10.1c-2.4,2.3-5.7,3.4-9.7,3.4s-7.1-1.1-9.5-3.3c-2.3-2.2-3.5-5.6-3.7-10.2
			c0-1.3-0.1-3.2-0.1-5.8c0-2.6,0-4.5,0.1-5.8c0.2-4.6,1.4-8,3.7-10.2s5.5-3.3,9.5-3.3c3.5,0,6.3,0.8,8.4,2.3
			c2.1,1.5,3.5,3.5,4.3,5.7c0.2,0.5,0.3,0.9,0.5,1s0.5,0.3,0.8,0.3h1.4c0.4,0,0.7-0.1,1-0.3s0.4-0.5,0.4-0.8v-0.1
			c-0.1-1.5-0.8-3.1-2-5s-3-3.5-5.5-4.9s-5.6-2.1-9.2-2.1c-5.4,0-9.5,1.5-12.5,4.6s-4.5,7.2-4.7,12.4c0,1.3-0.1,3.3-0.1,6.1
			c0,2.8,0,4.8,0.1,6.1c0.2,5.2,1.7,9.3,4.7,12.4s7.1,4.6,12.5,4.6c3.6,0,6.7-0.7,9.3-2.2s4.6-3.5,6-6.1s2.1-5.6,2.1-9.1v-5.7
			c0-0.5-0.1-0.8-0.4-1.1C173.4,68.8,173,68.6,172.6,68.6z"/>
		<path class="st1" d="M198.2,59.1h-2.4c-4.3,0-7.2,1.5-8.8,4.4v-3c0-0.4-0.2-0.8-0.5-1c-0.3-0.3-0.6-0.5-1-0.5h-1
			c-0.4,0-0.8,0.2-1,0.5c-0.3,0.3-0.4,0.6-0.4,1v30.6c0,0.4,0.1,0.8,0.4,1c0.3,0.3,0.6,0.4,1,0.4h1c0.4,0,0.8-0.1,1-0.4
			c0.3-0.3,0.5-0.6,0.5-1v-20c0-2.6,0.8-4.6,2.3-6.1s3.5-2.3,6.1-2.3h2.8c0.4,0,0.8-0.1,1-0.4s0.4-0.6,0.4-1v-0.9
			c0-0.4-0.1-0.8-0.4-1S198.6,59.1,198.2,59.1z"/>
		<path class="st1" d="M216.7,58.4c-2.6,0-4.8,0.5-6.6,1.4s-3.1,2.1-4,3.3s-1.3,2.3-1.3,3.3c0,0.4,0.1,0.7,0.4,1
			c0.3,0.3,0.6,0.4,1,0.4h0.9c0.4,0,0.7-0.1,0.9-0.3c0.3-0.2,0.5-0.6,0.6-1.1c0.4-1.2,1.3-2.2,2.6-3.1c1.4-0.9,3.2-1.3,5.4-1.3
			c3,0,5.2,0.6,6.6,1.9c1.5,1.2,2.2,3,2.2,5.4v2.3L215.2,73c-3.9,0.5-7,1.7-9.3,3.5s-3.4,4.1-3.4,7c0,1.8,0.5,3.4,1.5,4.8
			c1.1,1.5,2.5,2.6,4.3,3.5s3.7,1.3,5.7,1.3c3,0,5.4-0.5,7.2-1.5s3.2-2.2,4.2-3.6v3c0,0.4,0.1,0.8,0.4,1c0.3,0.3,0.6,0.4,1,0.4h1.1
			c0.4,0,0.8-0.1,1-0.4c0.3-0.3,0.4-0.6,0.4-1V69.7c0-3.1-1-5.8-2.9-8C224.5,59.5,221.3,58.4,216.7,58.4z M225.4,77.5
			c0,3.9-1,6.8-3,8.9s-4.6,3.1-7.7,3.1c-2.2,0-4.1-0.5-5.8-1.6c-1.6-1.1-2.4-2.6-2.4-4.6c0-1.8,0.9-3.2,2.7-4.4c1.8-1.2,4.5-2,8-2.4
			l8.3-1.2v2.2H225.4z"/>
		<path class="st1" d="M264.6,62.9c-2.2-3-5.6-4.4-10.2-4.4c-4.7,0-8.3,1.7-10.8,5.1v-3c0-0.4-0.1-0.8-0.4-1s-0.6-0.4-1-0.4H241
			c-0.4,0-0.8,0.1-1,0.4c-0.3,0.3-0.4,0.6-0.4,1v42.9c0,0.4,0.1,0.8,0.4,1c0.3,0.3,0.6,0.4,1,0.4h1.1c0.4,0,0.8-0.1,1-0.4
			c0.3-0.3,0.4-0.6,0.4-1V88.1c2.5,3.4,6.1,5.1,10.8,5.1c4.6,0,8-1.5,10.2-4.4c2.2-3,3.4-6.6,3.5-10.9c0-0.4,0.1-1.1,0.1-2.1
			s0-1.7-0.1-2.1C268,69.4,266.8,65.8,264.6,62.9z M264.2,77.6c-0.1,3.5-1,6.3-2.6,8.6c-1.6,2.2-4.1,3.3-7.6,3.3
			c-2.3,0-4.2-0.5-5.7-1.6s-2.7-2.4-3.5-4.1s-1.2-3.4-1.2-5.3l-0.1-2.5l0.1-2.5c0.1-3,1.1-5.7,2.8-7.9c1.7-2.3,4.3-3.4,7.7-3.4
			c3.8,0,6.4,1.3,8,3.9c1.5,2.5,2.3,5.8,2.3,9.8C264.3,76.6,264.2,77.2,264.2,77.6z"/>
		<path class="st1" d="M291.8,58.4c-2.6,0-4.8,0.4-6.4,1.3c-1.6,0.9-3.1,2.1-4.4,3.8V48.2c0-0.4-0.1-0.8-0.4-1
			c-0.3-0.3-0.6-0.4-1-0.4h-1.1c-0.4,0-0.8,0.1-1,0.4c-0.3,0.3-0.4,0.6-0.4,1v42.9c0,0.4,0.1,0.8,0.4,1c0.3,0.3,0.6,0.4,1,0.4h1.1
			c0.4,0,0.8-0.1,1-0.4c0.3-0.3,0.4-0.6,0.4-1v-18c0-3.4,0.9-6.1,2.8-8c1.8-2,4.3-3,7.4-3c3.2,0,5.6,1,7.3,2.9
			c1.7,1.9,2.6,4.6,2.6,8.1v18c0,0.4,0.1,0.8,0.4,1c0.3,0.3,0.6,0.4,1,0.4h1.1c0.4,0,0.8-0.1,1-0.4c0.3-0.3,0.4-0.6,0.4-1V72.8
			c0-4.3-1.1-7.7-3.4-10.4C299.2,59.8,296,58.4,291.8,58.4z"/>
		<path class="st1" d="M343.3,51.3c-3-3-7.1-4.5-12.2-4.5c-5.2,0-9.2,1.5-12.2,4.5s-4.6,7.4-4.8,13.3c0,1.3-0.1,3.1-0.1,5.4
			s0,4.1,0.1,5.4c0.3,11.8,6,17.8,17,17.8c3.4,0,6.4-0.6,9-1.9l2.8,3.9c0.7,1,1.4,1.5,2.1,1.5h1.4c0.3,0,0.6-0.1,0.9-0.4
			s0.4-0.6,0.4-0.9c0-0.2-0.1-0.5-0.2-0.7l-4.1-5.8c2.9-2.9,4.5-7.4,4.7-13.5c0.1-2.6,0.1-4.4,0.1-5.4s0-2.8-0.1-5.4
			C347.9,58.8,346.3,54.3,343.3,51.3z M344,75.1c-0.2,4.8-1.4,8.4-3.7,10.8c-2.3,2.3-5.3,3.5-9.2,3.5c-3.9,0-7-1.2-9.3-3.5
			c-2.3-2.4-3.5-5.9-3.7-10.8c0-1.3-0.1-3-0.1-5.1s0-3.8,0.1-5.1c0.2-4.8,1.4-8.4,3.7-10.7c2.3-2.4,5.4-3.5,9.2-3.5
			c3.8,0,6.9,1.2,9.2,3.5c2.3,2.3,3.6,5.9,3.7,10.7c0.1,2.6,0.1,4.3,0.1,5.1C344.2,70.8,344.1,72.5,344,75.1z"/>
		<path class="st1" d="M385.8,89.1c-0.3-0.3-0.6-0.4-1.1-0.4h-22.2V48.9c0-0.4-0.1-0.8-0.4-1s-0.6-0.4-1-0.4h-1.2
			c-0.4,0-0.8,0.1-1,0.4c-0.3,0.3-0.4,0.6-0.4,1v42.2c0,0.4,0.1,0.8,0.4,1c0.3,0.3,0.6,0.4,1,0.4h24.9c0.4,0,0.8-0.1,1-0.4
			c0.3-0.3,0.5-0.6,0.5-1v-1C386.2,89.7,386.1,89.3,385.8,89.1z"/>
	</g>
</g>
</svg>
