<?xml version="1.0" encoding="utf-8"?>
<!-- Generator: Adobe Illustrator 24.0.2, SVG Export Plug-In . SVG Version: 6.00 Build 0)  -->
<svg version="1.1" id="Capa_1" xmlns="http://www.w3.org/2000/svg" xmlns:xlink="http://www.w3.org/1999/xlink" x="0px" y="0px"
	 viewBox="0 0 566.9 141.7" style="enable-background:new 0 0 566.9 141.7;" xml:space="preserve">
<style type="text/css">
	.st0{fill:#E44E28;}
	.st1{fill:#FFFFFF;}
</style>
<rect y="0" class="st0" width="566.9" height="141.7"/>
<g>
	<g>
		<path class="st1" d="M27.9,111.7l-8.2-91.8h90l-8.2,91.8l-37,10.1"/>
		<polygon class="st0" points="91.9,49.9 92.9,38.6 36.4,38.6 39.5,72.7 78.4,72.7 77.2,87.3 64.6,90.7 52,87.3 51.3,78.4 40,78.4 
			41.6,95.9 64.7,102.5 64.7,102.5 87.8,95.9 90.7,61.5 49.8,61.5 48.8,49.9 		"/>
	</g>
	<path class="st1" d="M129,52.1h12.2v12.2h11.4V52.1h12.2v37.2h-12.2V77.1h-11.1v12.2h-12.8 M181.6,64.6h-10.9V52.4h34.5v12.2h-10.9
		v25h-12.8 M210.7,52.1H224l7.9,13.3l7.9-13.3H253v37.2h-12.2V70.9l-8.7,13.6l-8.7-13.6v18.5h-11.9 M259,52.1h12.2v25h17.6v12.2H259
		"/>
</g>
</svg>
