<?xml version="1.0" encoding="utf-8"?>
<!-- Generator: Adobe Illustrator 24.0.2, SVG Export Plug-In . SVG Version: 6.00 Build 0)  -->
<svg version="1.1" id="Capa_1" xmlns="http://www.w3.org/2000/svg" xmlns:xlink="http://www.w3.org/1999/xlink" x="0px" y="0px"
	 viewBox="0 0 566.9 141.7" style="enable-background:new 0 0 566.9 141.7;" xml:space="preserve">
<style type="text/css">
	.st0{fill:#210000;}
	.st1{fill:#FFFFFF;}
	.st2{fill:#330000;}
	.st3{fill:#FF9A00;}
</style>
<g>
	<rect y="0.2" class="st0" width="566.9" height="141.7"/>
</g>
<g>
	<g>
		<g>
			<path class="st1" d="M154.3,73.5v30.3h-5.5V73.5H154.3z"/>
			<path class="st1" d="M160.7,71.8h5.5v31.9h-5.5V71.8z"/>
			<path class="st1" d="M172.3,71.8h5.5v31.9h-5.5V71.8z"/>
			<path class="st1" d="M203.4,97.2c0,2.6,0.1,4.8,0.2,6.6h-4.8l-0.3-3.3h-0.1c-0.9,1.5-3.1,3.8-7.1,3.8c-4,0-7.6-2.4-7.6-9.5V81.9
				h5.5v11.9c0,3.6,1.2,6,4.1,6c2.2,0,3.7-1.5,4.2-3c0.2-0.5,0.3-1.1,0.3-1.7V81.9h5.5V97.2z"/>
			<path class="st1" d="M209.2,98.7c1.2,0.8,3.6,1.6,5.6,1.6c2.4,0,3.5-1,3.5-2.5c0-1.5-0.9-2.2-3.6-3.2c-4.3-1.4-6-3.8-6-6.4
				c0-3.9,3.2-6.8,8.3-6.8c2.4,0,4.5,0.6,5.9,1.3l-1.1,3.9c-0.9-0.5-2.7-1.3-4.6-1.3c-2,0-3.1,1-3.1,2.3c0,1.4,1,2,3.8,3.1
				c4,1.4,5.8,3.4,5.9,6.7c0,4-3.1,6.9-8.9,6.9c-2.7,0-5-0.6-6.7-1.5L209.2,98.7z"/>
			<path class="st1" d="M234.5,76.3v5.6h5.3V86h-5.3v9.7c0,2.7,0.7,4,2.8,4c1,0,1.5,0,2.2-0.2l0.1,4.2c-0.8,0.3-2.3,0.6-4,0.6
				c-2.1,0-3.7-0.7-4.8-1.8c-1.2-1.3-1.8-3.3-1.8-6.2V86H226v-4.1h3.1v-4.1L234.5,76.3z"/>
			<path class="st1" d="M244,88.9c0-3,0-5.1-0.2-7.1h4.8l0.2,4.1h0.1c1.1-3.1,3.6-4.6,6-4.6c0.5,0,0.9,0,1.3,0.1v5.2
				c-0.5-0.1-1-0.1-1.7-0.1c-2.6,0-4.5,1.7-4.9,4.2c-0.1,0.5-0.1,1.1-0.1,1.7v11.4H244V88.9z"/>
			<path class="st1" d="M276.6,98.5c0,2,0.1,3.9,0.4,5.3h-5l-0.4-2.4h-0.1c-1.3,1.7-3.6,2.9-6.5,2.9c-4.4,0-6.9-3.2-6.9-6.5
				c0-5.5,4.9-8.3,13-8.3v-0.4c0-1.4-0.6-3.8-4.5-3.8c-2.2,0-4.4,0.7-5.9,1.6l-1.1-3.6c1.6-1,4.5-1.9,7.9-1.9c7,0,9,4.5,9,9.3V98.5z
				 M271.2,93.1c-3.9,0-7.6,0.8-7.6,4.1c0,2.2,1.4,3.1,3.1,3.1c2.2,0,3.8-1.4,4.4-3c0.1-0.4,0.1-0.8,0.1-1.2V93.1z"/>
			<path class="st1" d="M288.5,76.3v5.6h5.3V86h-5.3v9.7c0,2.7,0.7,4,2.8,4c1,0,1.5,0,2.2-0.2l0.1,4.2c-0.8,0.3-2.3,0.6-4,0.6
				c-2.1,0-3.7-0.7-4.8-1.8c-1.2-1.3-1.8-3.3-1.8-6.2V86H280v-4.1h3.1v-4.1L288.5,76.3z"/>
			<path class="st1" d="M318.6,92.6c0,8.1-5.7,11.7-11.2,11.7c-6.2,0-11-4.2-11-11.3c0-7.2,4.7-11.6,11.3-11.6
				C314.2,81.4,318.6,86,318.6,92.6z M302,92.9c0,4.2,2.1,7.4,5.4,7.4c3.2,0,5.4-3.1,5.4-7.5c0-3.4-1.5-7.4-5.3-7.4
				C303.6,85.4,302,89.2,302,92.9z"/>
			<path class="st1" d="M323.1,88.9c0-3,0-5.1-0.2-7.1h4.8l0.2,4.1h0.1c1.1-3.1,3.6-4.6,6-4.6c0.5,0,0.9,0,1.3,0.1v5.2
				c-0.5-0.1-1-0.1-1.7-0.1c-2.6,0-4.5,1.7-5,4.2c-0.1,0.5-0.1,1.1-0.1,1.7v11.4h-5.5V88.9z"/>
		</g>
		<g>
			<path class="st1" d="M153.9,51.7l-3.1,9.5h-4l10.3-30.3h4.7l10.3,30.3h-4.2l-3.2-9.5H153.9z M163.9,48.6l-3-8.7
				c-0.7-2-1.1-3.8-1.6-5.5h-0.1c-0.4,1.8-0.9,3.6-1.5,5.5l-3,8.8H163.9z"/>
			<path class="st1" d="M194.6,29.3v26.3c0,1.9,0.1,4.1,0.2,5.6h-3.5l-0.2-3.8H191c-1.2,2.4-3.8,4.3-7.3,4.3
				c-5.3,0-9.4-4.5-9.4-11.1c0-7.2,4.5-11.7,9.8-11.7c3.4,0,5.6,1.6,6.6,3.3h0.1v-13H194.6z M190.7,48.3c0-0.5,0-1.2-0.2-1.7
				c-0.6-2.5-2.7-4.5-5.7-4.5c-4.1,0-6.5,3.6-6.5,8.4c0,4.4,2.2,8.1,6.4,8.1c2.7,0,5.1-1.8,5.8-4.7c0.1-0.5,0.2-1.1,0.2-1.7V48.3z"
				/>
			<path class="st1" d="M221,50.1c0,8.1-5.6,11.6-10.8,11.6c-5.8,0-10.4-4.3-10.4-11.2c0-7.2,4.8-11.5,10.8-11.5
				C216.7,39,221,43.5,221,50.1z M203.7,50.4c0,4.8,2.7,8.4,6.6,8.4c3.8,0,6.6-3.6,6.6-8.5c0-3.7-1.8-8.3-6.5-8.3
				C205.7,42,203.7,46.3,203.7,50.4z"/>
			<path class="st1" d="M226,29.3h3.9v13.7h0.1c1.4-2.4,3.9-4,7.4-4c5.4,0,9.2,4.5,9.2,11.1c0,7.8-4.9,11.7-9.8,11.7
				c-3.1,0-5.7-1.2-7.3-4h-0.1l-0.2,3.6h-3.4c0.1-1.5,0.2-3.7,0.2-5.6V29.3z M229.9,52.5c0,0.5,0,1,0.2,1.4c0.7,2.7,3.1,4.6,5.9,4.6
				c4.2,0,6.6-3.4,6.6-8.4c0-4.4-2.2-8.1-6.5-8.1c-2.7,0-5.2,1.9-6,4.9c-0.1,0.5-0.2,1-0.2,1.7V52.5z"/>
			<path class="st1" d="M253.8,51c0.1,5.4,3.5,7.6,7.5,7.6c2.8,0,4.6-0.5,6-1.1l0.7,2.8c-1.4,0.6-3.8,1.4-7.3,1.4
				c-6.7,0-10.7-4.5-10.7-11c0-6.6,3.9-11.7,10.2-11.7c7.2,0,9,6.2,9,10.2c0,0.8,0,1.4-0.1,1.8H253.8z M265.4,48.2
				c0-2.5-1-6.4-5.5-6.4c-4,0-5.8,3.6-6.1,6.4H265.4z"/>
		</g>
	</g>
	<g id="Layer_2_2_">
		<g>
			<path class="st2" d="M38.4,120c-9.1,0-16.5-7.4-16.5-16.5V38.6c0-9.1,7.4-16.5,16.5-16.5h67.5c9.1,0,16.5,7.4,16.5,16.5v64.9
				c0,9.1-7.4,16.5-16.5,16.5H38.4z"/>
			<path class="st3" d="M105.9,24.1c8,0,14.5,6.5,14.5,14.5v64.9c0,8-6.5,14.5-14.5,14.5H38.4c-8,0-14.5-6.5-14.5-14.5V38.6
				c0-8,6.5-14.5,14.5-14.5H105.9 M105.9,20.1H38.4c-10.2,0-18.5,8.3-18.5,18.5v64.9c0,10.2,8.3,18.5,18.5,18.5h67.5
				c10.2,0,18.5-8.3,18.5-18.5V38.6C124.4,28.4,116.1,20.1,105.9,20.1L105.9,20.1z"/>
		</g>
		<g id="Outlined_Mnemonics_Logos_1_">
			<g id="Ai">
				<path class="st3" d="M70.5,81.2H54.3L51,91.5c-0.1,0.4-0.4,0.7-0.8,0.6H42c-0.5,0-0.6-0.3-0.5-0.8l14-40.4
					c0.1-0.4,0.3-0.9,0.4-1.4c0.2-0.9,0.3-1.9,0.3-2.8c0-0.2,0.1-0.4,0.3-0.5c0,0,0.1,0,0.1,0h11.1c0.3,0,0.5,0.1,0.6,0.3l15.9,44.9
					c0.1,0.5,0,0.7-0.4,0.7h-9.1c-0.3,0-0.6-0.2-0.7-0.5L70.5,81.2z M56.9,72.4h11.1c-0.3-0.9-0.6-2-1-3.1c-0.4-1.2-0.8-2.4-1.2-3.7
					c-0.4-1.3-0.8-2.7-1.3-4s-0.8-2.6-1.2-3.9c-0.3-1.2-0.7-2.4-1-3.4h-0.1c-0.4,1.9-0.9,3.7-1.5,5.6c-0.7,2.1-1.3,4.3-2,6.4
					C58.2,68.5,57.5,70.5,56.9,72.4L56.9,72.4z"/>
				<path class="st3" d="M93.8,53.6c-1.4,0-2.8-0.5-3.9-1.5c-1-1.1-1.5-2.5-1.5-4c0-1.5,0.5-2.9,1.6-3.9c1-1,2.4-1.5,3.9-1.5
					c1.7,0,3,0.5,4,1.5c1,1,1.5,2.4,1.4,3.9c0,1.5-0.5,2.9-1.5,4C96.8,53.1,95.3,53.7,93.8,53.6z M89,91.4V57.9
					c0-0.4,0.2-0.6,0.6-0.6h8.6c0.4,0,0.6,0.2,0.6,0.6v33.5c0,0.5-0.2,0.7-0.6,0.7h-8.5C89.2,92.1,89,91.8,89,91.4z"/>
			</g>
		</g>
	</g>
</g>
</svg>
