<?xml version="1.0" encoding="utf-8"?>
<!-- Generator: Adobe Illustrator 24.0.2, SVG Export Plug-In . SVG Version: 6.00 Build 0)  -->
<svg version="1.1" id="Capa_1" xmlns="http://www.w3.org/2000/svg" xmlns:xlink="http://www.w3.org/1999/xlink" x="0px" y="0px"
	 viewBox="0 0 566.9 141.7" style="enable-background:new 0 0 566.9 141.7;" xml:space="preserve">
<style type="text/css">
	.st0{fill:#1E2E3B;}
	.st1{fill:#21ACE2;}
	.st2{fill:#FFFFFF;}
</style>
<g id="Capa_1_1_">
	<rect class="st0" width="566.9" height="141.7"/>
</g>
<g>
	<path id="signet_1_" class="st1" d="M55.1,36.5l-1.7,2.3c-2.2,3.3-2.4,7.3-0.9,11c1.6,3.8,5,6.9,8.8,8.3c0.2,0.1,0.3,0.1,0.5,0.2
		l0.2,0.1c0.2,0.1,0.5,0.2,0.7,0.2c10.8,2.1,13.7-5.5,14.4-6.6c-2.6,3.7-6.9,4.6-12.1,3.3c-0.4-0.1-0.9-0.2-1.3-0.4
		c-0.5-0.2-1-0.4-1.5-0.6c-0.9-0.4-1.8-1-2.7-1.6C54.9,48.9,52,42,55.1,36.5L55.1,36.5z M42.9,39.1l-3.1,4.3
		c-3.8,5.4-3.6,12.7-0.6,18.4c0.5,1,1,1.9,1.7,2.8c0.6,0.8,1.2,1.8,2,2.4c0.3,0.3,0.6,0.6,0.8,0.9l0.2,0.2c0.3,0.3,0.6,0.5,0.9,0.8
		l0,0l0,0c0.3,0.3,0.7,0.6,1,0.8l0.2,0.4c0.3,0.3,0.7,0.5,1.1,0.8l0,0c0.2,0.1,0.3,0.2,0.5,0.3l0.2,0.1c0.3,0.2,0.5,0.3,0.8,0.5
		l0.1,0.1c0.2,0.1,0.5,0.3,0.7,0.4l0.2,0.1c0.2,0.1,0.3,0.2,0.5,0.2h0.1c0.3,0.2,0.7,0.3,1,0.5l0.2,0.1c0.3,0.1,0.5,0.2,0.8,0.3
		c0.1,0,0.2,0.1,0.4,0.1c0.3,0.1,0.5,0.2,0.8,0.3c0.1,0,0.2,0.1,0.3,0.1c0.4,0.1,0.7,0.3,1.1,0.3c19.5,3.2,24-11.8,24-11.8
		c-4.1,5.8-11.9,8.6-20.3,6.4c-0.4-0.1-0.7-0.2-1.1-0.3L57,68.8c-0.3-0.1-0.5-0.2-0.8-0.3c-0.1,0-0.2-0.1-0.3-0.1
		c-0.3-0.1-0.6-0.2-0.8-0.3l-0.2-0.1c-0.3-0.2-0.7-0.3-1-0.5c-0.2-0.1-0.3-0.2-0.5-0.3L53.1,67c-0.2-0.1-0.4-0.2-0.7-0.4l-0.1-0.1
		c-0.3-0.2-0.5-0.3-0.8-0.5l-0.2-0.2c-0.2-0.1-0.3-0.2-0.5-0.3c-0.4-0.2-0.7-0.5-1-0.8l-0.2-0.2c-3.7-2.9-6.6-6.9-8-11.3
		C40,48.6,40.3,43.4,42.9,39.1L42.9,39.1z M27.7,44.6l-4.1,5.2C18.4,57.3,19,67.1,23,75.1c0.1,0.2,0.2,0.4,0.3,0.6
		c0.1,0.1,0.1,0.2,0.2,0.4l0.1,0.2c0.1,0.1,0.1,0.2,0.2,0.4s0.3,0.4,0.4,0.7c0.1,0.1,0.1,0.2,0.2,0.4c0.1,0.2,0.3,0.5,0.4,0.7
		l0.2,0.3c0.2,0.3,0.4,0.6,0.6,0.9l0,0l0.1,0.1c0.2,0.3,0.4,0.5,0.6,0.8l0.2,0.3c0.2,0.2,0.4,0.4,0.5,0.7l0.2,0.2
		c0.2,0.3,0.5,0.6,0.8,0.9l0,0l0,0c0.2,0.3,0.5,0.5,0.8,0.8l0.2,0.2c0.2,0.2,0.4,0.4,0.6,0.6l0.2,0.2c0.3,0.3,0.5,0.5,0.8,0.8l0,0
		l0.1,0.1c0.2,0.2,0.5,0.4,0.8,0.6l0.3,0.2c0.2,0.2,0.4,0.3,0.6,0.5l0.3,0.3c0.2,0.2,0.5,0.3,0.7,0.5l0.3,0.2h0.1
		c0.2,0.2,0.5,0.3,0.7,0.5l0.3,0.2c0.4,0.2,0.7,0.4,1.1,0.7l0.3,0.2c0.3,0.2,0.5,0.3,0.8,0.5c0.1,0.1,0.3,0.2,0.5,0.2
		c0.2,0.1,0.4,0.2,0.6,0.3l0.1,0.1l0.2,0.1c0.3,0.1,0.6,0.3,0.9,0.4l0.2,0.1c0.4,0.2,0.7,0.3,1.1,0.4l0.3,0.1c0.3,0.1,0.7,0.3,1,0.4
		H42c0.4,0.1,0.8,0.2,1.1,0.4l0.3,0.1c0.4,0.1,0.8,0.3,1.2,0.3C70,97.1,77.3,77.4,77.3,77.4c-6.2,8-17.1,10.1-27.4,7.8
		c-0.4-0.1-0.8-0.2-1.2-0.3l-0.3-0.1c-0.4-0.1-0.7-0.2-1.1-0.4l-0.1-0.1c-0.3-0.1-0.7-0.2-1-0.4l-0.3-0.1c-0.4-0.1-0.7-0.3-1.1-0.4
		l-0.2-0.1c-0.3-0.1-0.6-0.3-0.9-0.4l-0.3-0.1c-0.2-0.1-0.5-0.2-0.7-0.3s-0.3-0.2-0.5-0.2c-0.3-0.2-0.6-0.3-0.8-0.5l-0.3-0.1
		c-0.4-0.2-0.7-0.4-1.1-0.7l-0.3-0.2c-0.3-0.2-0.5-0.3-0.8-0.5l-0.2-0.2c-0.2-0.2-0.5-0.3-0.7-0.5l-0.3-0.2
		c-0.2-0.2-0.4-0.3-0.7-0.5l-0.3-0.2c-0.3-0.2-0.5-0.4-0.8-0.7l0.1-0.2c-0.3-0.3-0.6-0.5-0.9-0.8l-0.2-0.2c-0.2-0.2-0.4-0.4-0.6-0.6
		L34,75.9c-0.3-0.3-0.5-0.5-0.8-0.8l0,0c-0.3-0.3-0.5-0.6-0.8-0.9l-0.2-0.2c-0.2-0.2-0.4-0.5-0.6-0.7l-0.2-0.2
		c-0.2-0.3-0.4-0.6-0.6-0.9C25.1,64.3,23.1,53.5,27.7,44.6L27.7,44.6z"/>
	<path id="jQuery_1_" class="st2" d="M152,30.7c-18.9,0-27.1,13.6-30.2,28.4c-3.1,14.9,1,28,19.8,27.8h14.8h13.8
		c0.5,0,1.1-0.4,1.2-0.9l2.4-9.2c0.1-0.5-0.2-0.9-0.7-0.9h-2.3h-2.3c-0.5,0-0.7-0.3-0.7-0.7l0.1-0.2c0,0,5.2-12.7,6.4-20
		C175.9,45,171,30.7,152,30.7L152,30.7z M346.9,36.2h-3c-0.5,0-1.4,0-1.9,0h-8.1c-0.5,0-1.2,0.4-1.5,0.8l-17.9,26.1
		c-0.3,0.4-0.6,0.4-0.8-0.1l-1.3-5.8c-0.1-0.5-0.7-0.9-1.2-0.9h-11.5c-0.5,0-0.8,0.4-0.7,0.9l5.1,18c0.1,0.5,0.2,1.4,0,1.9l-2.2,8.7
		c-0.1,0.5,0.2,0.9,0.7,0.9h11.3c0.5,0,1.1-0.4,1.2-0.9l2.2-8.7c0.1-0.5,0.5-1.3,0.8-1.7l29-38.5C347.7,36.5,347.5,36.2,346.9,36.2
		L346.9,36.2z M248.5,42c-18.7,0-23.1,11.3-25.6,22.8c-2.5,11.7-2.3,22.6,17.1,22.6h0.7h0.2h1.2h0.2c0.2,0,0.4,0,0.6,0h0.1
		c0.8,0,1.5,0,2.3,0l0,0c5.1,0,10.2-0.1,12.3-0.1c0.5,0,1-0.4,1.2-1l0.8-3.8l0.2-0.7l0.9-4.6c0.1-0.5-0.2-1-0.8-1h-17.4
		c-6.9,0-9-1.8-8.2-7.2h27.8l0,0c0.4,0,0.8-0.3,1-0.7l0.1-0.2l0,0C267.3,52.4,266.1,42,248.5,42L248.5,42z M150.4,42.3
		c10.4-0.3,12.5,7.5,9.8,16.4l-0.3,0.9l0,0l-2.1,7.4l-2.1,7.4c-0.1,0.5-0.7,0.9-1.2,0.9h-11.1c-8.4,0-10.5-6.6-8.4-16.3
		c2-9.9,6.1-16.1,14.4-16.7C149.7,42.4,150.1,42.3,150.4,42.3L150.4,42.3z M108.1,42.5c-0.5,0-1.1,0.4-1.2,1l-1,4.4l-1,4.4
		c-0.1,0.5,0.2,1,0.8,1h10.6c0.5,0,1.1-0.4,1.2-1l1-4.4l1-4.4c0.1-0.5-0.2-1-0.8-1H108.1z M185.1,42.6c-0.5,0-1.1,0.4-1.2,1
		l-2.1,10.1l-2.1,10.1l0,0l-0.2,0.9c-2.4,11.2-1.8,21.8,11.5,22.1c0.2,0,0.4,0,0.4,0h20.8c0.5,0,1.1-0.4,1.2-1l4.5-21.1l4.5-21.1
		c0.1-0.5-0.2-1-0.8-1H212c-0.5,0-1.1,0.4-1.2,1l-3.4,15.8L204,75.1c-0.1,0.5-0.6,1-1.2,1H196c-6.7,0-6-4.7-4.6-11v-0.2l0.1-0.8
		v-0.1l0.3-1.6l0.3-1.8c0.1-0.5,0.3-1.3,0.4-1.8l1.6-7.6l1.5-7.6c0.1-0.5-0.2-1-0.8-1H185.1z M276.1,42.7c-0.5,0-1.1,0.4-1.2,1
		l-0.4,1.9l-0.5,2.2l-0.1,0.6l-4,18.7l-3.8,17.8c-0.1,0.5-0.1,1.2-0.1,1.4c0.1,0.3,1.1,0.5,1.6,0.5h8c0.5,0,1.2-0.1,1.5-0.2
		c0.3-0.1,0.7-1.2,0.8-1.7l1.4-7l1.4-7.1l0,0l0.2-0.9l1.7-8.1l1.5-7.1c0.1-0.5,0.6-0.9,1.2-0.9h25.2c0.5,0,0.9-0.4,0.7-1l-0.4-1.8
		l-0.4-1.9l-0.2-1c-0.9-3.4-3.4-5.3-8.9-5.3h-8.6h-7.9L276.1,42.7L276.1,42.7z M246,52.5c6,0,7.1,2.9,6.7,6.2c-0.1,0.6-0.6,1-1.1,1
		h-14.5c-0.5,0-0.8-0.3-0.7-0.8l0,0l0,0c0,0,0-0.1,0.1-0.2C237.8,55,240.7,52.5,246,52.5L246,52.5z M105,56.2c-0.5,0-1.1,0.4-1.2,1
		l-1.5,6.6l-1.5,6.6c-0.1,0.5-0.3,1.4-0.4,1.9l-1.5,6.8l-1.4,6.8c-0.1,0.5-0.3,1.4-0.5,1.9c0,0-2,5.9-5.3,5.8c-0.1,0-0.3,0-0.4,0
		c-1.6,0-2.9-0.1-2.9-0.1c-0.5,0-1.1,0.4-1.2,0.9l-1.1,4.6l-1.1,4.6c-0.1,0.5,0.2,1,0.7,1c1.9,0,6.1,0.1,8.7,0.1
		c8.3,0,12.7-4.6,15.6-17.9l3.3-15.3l3.1-14.3c0.1-0.5-0.2-1-0.8-1H105L105,56.2z"/>
	<path id="claim_1_" class="st1" d="M187,97.1c-0.9,0-1.5,0.3-1.8,1.3c-0.2,1.1,0.3,1.3,1.2,1.3s1.5-0.3,1.8-1.3
		C188.4,97.3,187.8,97.1,187,97.1L187,97.1z M209.3,97.4l-0.4,1.9l1.4,0.3l-1.4,6.5l-0.4,3.4h2l2.6-12.2L209.3,97.4L209.3,97.4z
		 M256.3,97.4l-1.1,3.7c0,0-1.3-0.5-2.3-0.5c-2.7,0-3.8,2.2-4.3,4.5s-0.4,4.5,2.4,4.5c1.1,0,2.7-0.7,2.7-0.7l0.3,0.6h1.8l0.2-1.1
		l2.3-11H256.3z M190.6,98.6l-0.8,2.2h-1.4l-0.4,1.9l1.4,0.3l-0.7,3.3c-0.5,2.1-0.5,3.5,2.1,3.5c0.6,0,2.2-0.5,2.2-0.5l0.3-1.8h-1.7
		c-0.8,0-0.8-0.3-0.6-1.2l0.7-3.4l2.5-0.3l0.4-1.9H192l0.5-2.2L190.6,98.6L190.6,98.6z M199.7,100.6c-3.7,0-4.6,2.3-5.1,4.5
		c-0.5,2.3-0.5,4.5,3.4,4.5c1.5,0,3.6-0.6,3.6-0.6l0.3-1.6h-3.5c-1.4,0-1.8-0.4-1.6-1.4h5.7C203.5,102.8,203.3,100.6,199.7,100.6
		L199.7,100.6z M218.1,100.6c-3.7,0-4.6,2.3-5.1,4.5c-0.5,2.3-0.5,4.5,3.4,4.5c1.5,0,3.6-0.6,3.6-0.6l0.3-1.6h-3.5
		c-1.4,0-1.8-0.4-1.6-1.4h5.7C221.9,102.8,221.7,100.6,218.1,100.6z M308.9,100.6c-3.7,0-4.6,2.3-5.1,4.5c-0.5,2.3-0.4,4.5,3.4,4.5
		c1.5,0,3.6-0.6,3.6-0.6l0.3-1.6h-3.5c-1.4,0-1.8-0.4-1.6-1.4h5.7C312.7,102.8,312.5,100.6,308.9,100.6L308.9,100.6z M278.4,100.8
		c-1,0-2.2,0.6-2.2,0.6l-0.3-0.5h-1.8l-1.9,8.8h2.3l1.4-6.6h0.9c1.4,0,1.2,0.9,0.9,2.2l-0.2,1l-0.4,3.4h2l0.9-4.4
		c0.2-0.8,0.3-1.6,0.3-2.2h1.1c1.4,0,1.2,0.9,0.9,2.2l-0.2,1l-0.4,3.4h2l0.9-4.4c0.5-2.3,0.6-4.5-2.2-4.5c-0.9,0-2.1,0.5-2.5,0.8
		C279.7,101.1,279.2,100.8,278.4,100.8L278.4,100.8z M180.6,100.8c-1,0-2.1,0.6-2.1,0.6l-0.2-0.5h-1.8l-0.2,1.1l-1.6,7.7h2l1-3.4
		l0.7-3.2h1.1c0.7,0,0.8,0.3,0.5,1.6h2.3C182.6,102.3,182.8,100.8,180.6,100.8L180.6,100.8z M227.1,100.8c-2.6,0-4,1.3-4.4,2.9
		c-0.2,1.1-0.1,2.3-0.1,2.3l4.6,0.3l-0.1,0.6c-0.1,0.4-0.3,0.8-1.7,0.8h-3.2l-0.4,1.7c0,0,2.1,0.5,3.4,0.5c2.6,0,4-1.4,4.3-2.8
		c0.2-0.8,0.2-2.3,0.2-2.3l-4.6-0.3l0.1-0.4c0.1-0.5,0.3-0.9,1.7-0.9c0.7,0,3.2,0,3.2,0l0.4-1.7
		C230.5,101.2,228.4,100.8,227.1,100.8L227.1,100.8z M235.7,100.8c-2.6,0-4,1.3-4.4,2.9c-0.2,1.1-0.1,2.3-0.1,2.3l4.6,0.3l-0.1,0.6
		c-0.1,0.4-0.3,0.8-1.7,0.8h-3.2l-0.4,1.7c0,0,2.1,0.5,3.4,0.5c2.6,0,4-1.4,4.3-2.8c0.2-0.8,0.2-2.3,0.2-2.3l-4.6-0.3l0.1-0.4
		c0.1-0.5,0.3-0.9,1.7-0.9c0.7,0,3.2,0,3.2,0l0.4-1.7C239.1,101.2,237,100.8,235.7,100.8L235.7,100.8z M263.5,100.8
		c-3.6,0-4.8,2.2-5.3,4.5s-0.2,4.5,3.4,4.5s4.8-2.2,5.3-4.5S267,100.8,263.5,100.8z M291.3,100.8c-3.6,0-4.8,2.2-5.3,4.5
		s-0.2,4.5,3.4,4.5s4.8-2.2,5.3-4.5C295.2,102.9,294.9,100.8,291.3,100.8z M301.4,100.8c-1,0-2.1,0.6-2.1,0.6l-0.2-0.5h-1.8
		l-0.2,1.1l-1.6,7.7h2l1.1-3.4l0.7-3.2h1.1c0.7,0,0.8,0.3,0.5,1.6h2.3C303.4,102.3,303.6,100.8,301.4,100.8L301.4,100.8z
		 M162.7,100.8l-0.4,1.7l0.1,7.1h3.3l2.5-6.4l-0.3,6.4h3.4l3.1-7.1l0.4-1.7h-2l-2.6,7.1l0.2-7.1h-3.3l-2.6,7l0.5-7H162.7z
		 M183.6,100.8l-0.4,1.9l1.4,0.3l-0.7,3.2l-0.4,3.4h2l1.9-8.8H183.6z M199.2,102.8c1.3,0,1.5,0.7,1.3,1.4l-3.3,0.3
		C197.4,103.4,198,102.8,199.2,102.8z M217.6,102.8c1.3,0,1.5,0.7,1.3,1.4l-3.3,0.3C215.9,103.4,216.5,102.8,217.6,102.8z
		 M308.4,102.8c1.3,0,1.5,0.7,1.3,1.4l-3.3,0.3C306.6,103.4,307.2,102.8,308.4,102.8z M263,102.9c1.7,0,1.8,1,1.5,2.3
		c-0.3,1.4-0.8,2.3-2.5,2.3s-1.8-0.9-1.5-2.3S261.4,102.9,263,102.9L263,102.9z M290.9,102.9c1.7,0,1.8,1,1.5,2.3
		c-0.3,1.4-0.8,2.3-2.5,2.3s-1.8-0.9-1.5-2.3C288.7,103.8,289.2,102.9,290.9,102.9L290.9,102.9z M253,102.9h1.8l-1,4.5H252
		c-1.3,0-1.4-0.8-1.1-2.3C251.2,103.8,251.7,102.9,253,102.9z M314.3,107.1c-0.9,0-1.6,0.3-1.8,1.3c-0.2,1.1,0.3,1.3,1.2,1.3
		c0.8,0,1.5-0.3,1.8-1.3C315.7,107.3,315.1,107.1,314.3,107.1z M240.8,107.1c-0.9,0-1.6,0.3-1.8,1.3c-0.2,0.8,0.2,1.2,0.8,1.2
		l-0.1,1.3h1.7l0.5-2.5C242.2,107.4,241.6,107.1,240.8,107.1L240.8,107.1z"/>
</g>
</svg>
