<?xml version="1.0" encoding="utf-8"?>
<!-- Generator: Adobe Illustrator 24.0.2, SVG Export Plug-In . SVG Version: 6.00 Build 0)  -->
<svg version="1.1" id="Capa_1" xmlns="http://www.w3.org/2000/svg" xmlns:xlink="http://www.w3.org/1999/xlink" x="0px" y="0px"
	 viewBox="0 0 566.9 141.7" style="enable-background:new 0 0 566.9 141.7;" xml:space="preserve">
<style type="text/css">
	.st0{fill:#EFCF30;}
</style>
<rect y="0" class="st0" width="566.9" height="141.7"/>
<g>
	<path d="M34,59.3h10.9v30.5c0,13.8-6.6,18.6-17.1,18.6c-2.6,0-5.9-0.4-8-1.1l1.2-8.8c1.5,0.5,3.4,0.9,5.6,0.9
		c4.6,0,7.5-2.1,7.5-9.5V59.3H34z"/>
	<path d="M82.4,99.1c0,3.3,0.1,6.5,0.6,8.5h-9.8l-0.6-3.5h-0.2c-2.3,2.8-5.9,4.3-10,4.3c-7.1,0-11.3-5.2-11.3-10.8
		c0-9.1,8.2-13.4,20.6-13.4v-0.4c0-1.9-1-4.6-6.4-4.6c-3.6,0-7.4,1.2-9.7,2.7l-2-7c2.4-1.4,7.2-3.2,13.6-3.2
		c11.7,0,15.3,6.9,15.3,15.2v12.2C82.5,99.1,82.4,99.1,82.4,99.1z M71.9,91c-5.7,0-10.2,1.4-10.2,5.5c0,2.8,1.9,4.2,4.3,4.2
		c2.7,0,4.9-1.8,5.7-4c0.1-0.6,0.2-1.2,0.2-1.9C71.9,94.8,71.9,91,71.9,91z"/>
	<path d="M98.3,72.5l4.7,16.3c0.9,3,1.4,5.7,2,8.5h0.2c0.6-2.9,1.1-5.5,1.9-8.5l4.5-16.3h11.5l-13,35.1H99.3L86.5,72.5H98.3z"/>
	<path d="M156.9,99.1c0,3.3,0.1,6.5,0.6,8.5h-9.8l-0.6-3.5h-0.2c-2.3,2.8-5.9,4.3-10,4.3c-7.1,0-11.3-5.2-11.3-10.8
		c0-9.1,8.2-13.4,20.6-13.4v-0.4c0-1.9-1-4.6-6.4-4.6c-3.6,0-7.4,1.2-9.7,2.7l-2-7c2.4-1.4,7.2-3.2,13.6-3.2
		c11.7,0,15.3,6.9,15.3,15.2v12.2C157,99.1,156.9,99.1,156.9,99.1z M146.4,91c-5.7,0-10.2,1.4-10.2,5.5c0,2.8,1.9,4.2,4.3,4.2
		c2.7,0,4.9-1.8,5.7-4c0.1-0.6,0.2-1.2,0.2-1.9V91z"/>
	<path d="M166.3,96.3c2.9,1.5,7.5,3,12.1,3c5,0,7.7-2.1,7.7-5.2c0-3-2.3-4.7-8.1-6.7c-8-2.9-13.3-7.3-13.3-14.3
		c0-8.2,7-14.5,18.3-14.5c5.5,0,9.5,1.1,12.3,2.4l-2.4,8.7c-1.9-0.9-5.4-2.3-10-2.3c-4.7,0-7,2.2-7,4.7c0,3.1,2.7,4.4,9,6.8
		c8.5,3.2,12.5,7.6,12.5,14.4c0,8.1-6.2,15-19.4,15c-5.5,0-11-1.5-13.7-3L166.3,96.3z"/>
	<path d="M231.1,106.7c-1.9,0.9-5.6,1.6-9.8,1.6c-11.3,0-18.6-7-18.6-17.9c0-10.3,7-18.6,20.1-18.6c2.9,0,6,0.5,8.3,1.4l-1.7,8.1
		c-1.3-0.6-3.2-1.1-6.1-1.1c-5.7,0-9.5,4.1-9.4,9.8c0,6.4,4.3,9.8,9.6,9.8c2.6,0,4.6-0.4,6.2-1.1L231.1,106.7z"/>
	<path d="M237.1,84.1c0-5.2-0.1-8.5-0.3-11.5h9.3l0.4,6.5h0.3c1.8-5.2,6-7.3,9.5-7.3c1,0,1.5,0.1,2.3,0.2v10.3
		c-0.9-0.1-1.7-0.3-2.9-0.3c-4,0-6.7,2.2-7.5,5.5c-0.1,0.7-0.2,1.6-0.2,2.4v17.8h-10.9L237.1,84.1L237.1,84.1z"/>
	<path d="M275.6,62.8c0,3-2.2,5.4-5.9,5.4c-3.4,0-5.7-2.4-5.7-5.4c0-3.1,2.3-5.4,5.8-5.4C273.4,57.3,275.6,59.7,275.6,62.8z
		 M264.4,107.6V72.5h10.9v35.1H264.4z"/>
	<path d="M284,84.3c0-4.6-0.1-8.5-0.3-11.8h9.5l0.5,4.9h0.1c2.6-3.7,6.6-5.7,11.7-5.7c7.7,0,14.6,6.7,14.6,17.9
		c0,12.8-8.1,18.8-15.9,18.8c-4.2,0-7.5-1.7-9.1-4H295v17.4h-11V84.3z M294.9,92.5c0,0.9,0.1,1.6,0.2,2.3c0.7,2.9,3.2,5.2,6.4,5.2
		c4.7,0,7.5-3.9,7.5-9.9c0-5.6-2.5-9.8-7.4-9.8c-3.1,0-5.8,2.3-6.5,5.5c-0.1,0.6-0.2,1.3-0.2,1.9V92.5z"/>
	<path d="M339.1,63.1v9.5h7.8v8h-7.8v12.7c0,4.2,1.1,6.2,4.3,6.2c1.5,0,2.2-0.1,3.2-0.3l0.1,8.2c-1.4,0.5-4,0.9-7,0.9
		c-3.5,0-6.5-1.2-8.2-3c-2-2.1-3-5.4-3-10.4V80.6h-4.7v-8h4.7V66L339.1,63.1z"/>
</g>
</svg>
