<?xml version="1.0" encoding="utf-8"?>
<!-- Generator: Adobe Illustrator 24.0.2, SVG Export Plug-In . SVG Version: 6.00 Build 0)  -->
<svg version="1.1" id="Capa_1" xmlns="http://www.w3.org/2000/svg" xmlns:xlink="http://www.w3.org/1999/xlink" x="0px" y="0px"
	 viewBox="0 0 566.9 141.7" style="enable-background:new 0 0 566.9 141.7;" xml:space="preserve">
<style type="text/css">
	.st0{fill:#9AB814;}
	.st1{fill:#FFD000;}
	.st2{font-family:'Solomon-Sans-Normal';}
	.st3{font-size:18.2306px;}
</style>
<rect y="0" class="st0" width="566.9" height="141.7"/>
<g>
	<g>
		<path d="M198.2,67.8c0,13.6-9.1,27.3-27.7,27.3h-18.6V40.6h18.5C189,40.4,198.2,54.1,198.2,67.8z M184.4,68
			c0-7.5-4.7-15.4-13.9-15.7h-4.9v30.9h4.8C179.8,83.2,184.4,75.4,184.4,68z"/>
		<path d="M223.9,96c-11.8,0-21-7.8-21-20.5c0-12.3,9.2-20.8,21-20.8c11.9,0,21.1,8.2,21.1,20.8C245,87.8,235.9,96,223.9,96z
			 M223.9,84.8c4,0,8.1-3,8.1-9.3c0-6.2-4-9.3-8.1-9.3c-4,0-8,3.2-8,9.3C215.9,81.7,220,84.8,223.9,84.8z"/>
		<path d="M278.1,69.6c-2.9-2.6-5-3.2-7.5-3.2c-4.2,0-8.1,2.5-8.1,9.1c0,5.3,3.8,8.8,8.1,8.8c2.3,0,5-0.9,8-4l7.5,7.1
			c-5,6.3-9.8,8.1-15.9,8.1c-13.4,0-20.7-9.7-20.7-20.2c0.1-10.5,7.5-20,20.7-20.1c5.4,0,9.5,1.2,15.1,6.8L278.1,69.6z"/>
	</g>
	<g>
		<rect x="19.7" y="19.8" class="st1" width="124" height="102"/>
		<g>
			<g>
				<path d="M50.9,75.2c1.1,7.2,4.1,8.2,6.2,8.4c3.2,0,6-1.8,6-5.5V51.8h-9v-11h22.6V78c0,11.8-9.4,17.8-18.5,17.8
					c-8.5,0-17.8-2.9-19.3-17.8L50.9,75.2z"/>
				<path d="M91.6,77.8c4,5.6,8.1,6,10.5,6c3.1,0.1,5.3-1.9,5.4-4.5c0.2-4-3.7-5.6-6.9-6.4h0.1C95,71.4,84,67.6,84.2,56.2
					c0.2-11.5,9.6-16,18.4-16c6.5,0,13,3.1,17.1,10.3l-9,5.7c-2.2-2.8-4.5-4-7.6-4c-2.9,0-5.2,1.2-5.3,4.1c-0.2,3.2,3.7,4.2,6.3,4.9
					c8.5,2.2,17.7,6.4,17.2,19c-0.5,11.1-10.3,16-19.4,16c-6,0-14.1-2.6-19.1-11.6L91.6,77.8z"/>
			</g>
			<text transform="matrix(1 0 0 1 37.6178 112.9951)" class="st2 st3">Javascript</text>
		</g>
	</g>
</g>
</svg>
