<?xml version="1.0" encoding="utf-8"?>
<!-- Generator: Adobe Illustrator 24.0.2, SVG Export Plug-In . SVG Version: 6.00 Build 0)  -->
<svg version="1.1" id="Capa_1" xmlns="http://www.w3.org/2000/svg" xmlns:xlink="http://www.w3.org/1999/xlink" x="0px" y="0px"
	 viewBox="0 0 566.9 141.7" style="enable-background:new 0 0 566.9 141.7;" xml:space="preserve">
<style type="text/css">
	.st0{fill:#3E474A;}
	.st1{fill:#ECEFF1;}
	.st2{fill:#263238;}
	.st3{fill:#212121;}
	.st4{fill:#FFC107;}
	.st5{fill:#634703;}
	.st6{fill:#455A64;}
</style>
<rect y="0" class="st0" width="566.9" height="141.7"/>
<g>
	<g>
		<polygon class="st1" points="51.2,48.7 51.5,55.2 47,63.6 40,77.4 38.6,88.9 43.6,105.2 55.2,111.7 72.6,111.7 88.9,99.3 
			96.2,79.9 79.3,59.4 74.6,47.9 		"/>
		<path class="st2" d="M91.2,64.8C86.7,58.3,83,54.3,81,46.2s0.6-5.9-1.1-12.9c-0.8-3.7-2.2-6.2-3.7-8.2c-1.7-2-3.7-3.1-4.8-3.4
			C68.9,20.3,63,18,55.7,22c-7.6,4-6.7,12.4-5.3,29.5c0,1.1-0.3,2.5-0.8,3.7c-1.1,2.5-3.1,4.8-4.8,6.7c-2,2.8-3.9,5.6-5.3,8.7
			C36,77.1,33,85.3,33.8,88.4c1.4-0.3,19.1,26.7,19.1,27.3c1.1-0.3,5.9-0.3,10.1-0.3c5.9-0.3,9.3-0.6,14.1,0.6
			c0-0.8-0.3-1.7-0.3-2.5c0-1.7,0.3-3.1,0.6-5.1c0.3-1.4,0.6-2.8,0.8-4.5c-2.8,2.5-7.9,5.3-12.7,6.2c-4.2,0.8-11.2-0.6-14.6-4.8
			c0.3,0,0.8,0,1.1-0.3c0.8-0.3,1.7-0.6,2-1.1c0.8-1.4,0.3-2.8-0.3-3.7c-0.6-0.8-4.8-3.9-6.7-5.6c-2-1.7-3.1-2.5-4.2-3.7
			c0,0-1.7-1.7-2.2-2.2c-0.6-0.6-0.8-1.1-1.1-1.4c-0.6-1.4-0.8-3.1-0.6-5.3c0.3-3.1,1.4-5.6,2.8-8.4c0.6-1.1,2-3.4,2-3.4
			S38.9,82,41.5,85.7c0,0,0.3-3.7,1.4-7.3c0.8-2.5,2.2-6.2,3.9-8.2s5.9-9.3,6.2-13.8c0-2,0.3-3.9,0.3-5.3C52.2,50,71.9,47.2,73,50.3
			c0.3,1.1,4.2,11.2,6.5,16.6c1.1,2.5,2.5,4.8,3.4,7.6c0.8,3.1,1.4,7.3,1.4,11.5c0,0.8,0,2.2-0.3,3.7c0.6,0,11.5-11.8-1.4-21.6
			c0,0,7.9,3.7,8.2,11c0.3,5.9-2.2,10.7-2.8,11.5c0.3,0,5.9,2.5,6.2,2.5c1.1,0,3.4-0.8,3.4-0.8c0.3-0.8,1.1-3.1,1.1-3.9
			C100.4,81.6,95.7,71.2,91.2,64.8z"/>
		<g>
			<ellipse class="st1" cx="55.4" cy="40.6" rx="3.7" ry="5.6"/>
			<ellipse class="st1" cx="68.1" cy="40.3" rx="4.8" ry="6.5"/>
		</g>
		<g>
			<ellipse transform="matrix(0.9921 -0.1254 0.1254 0.9921 -4.729 7.2849)" class="st3" cx="55.5" cy="41.2" rx="2" ry="3.4"/>
			<ellipse class="st3" cx="67.8" cy="41.4" rx="2.8" ry="3.7"/>
		</g>
		<g>
			<path class="st4" d="M105.2,103.3c-1.1-0.6-3.1-1.4-4.8-3.9c-0.8-1.4-0.6-5.3-2-7c-0.8-1.1-2-0.6-2.2-0.6
				c-2.5,0.6-8.4,4.5-12.4,0c-0.6-0.6-1.4-1.4-2.8-1.4s-2,0.6-2.5,1.7c-0.6,1.1-0.6,2-0.6,4.8c0,2.2,0,4.8-0.3,6.7
				c-0.6,4.8-1.4,7.6-1.4,10.4c0,3.1,0.8,5.1,2,5.9c0.8,0.8,2.2,1.4,5.3,1.4s5.1-1.1,7-3.1c1.4-1.4,2.5-2,6.5-4.8
				c3.1-2,7.9-4.5,8.7-5.3c0.6-0.6,1.4-0.8,1.4-2.5C107.2,104.1,106.1,103.5,105.2,103.3z"/>
			<path class="st4" d="M48.7,104.1c-2.8-4.5-3.1-5.3-5.1-8.2c-1.7-2.8-5.3-8.2-7.6-8.2c-1.7,0-2.5,0.8-3.7,2
				c-1.1,1.1-2.2,3.7-4.2,5.1c-1.7,1.4-6.5,1.1-7.6,2.8c-1.1,1.7,1.1,4.2,1.1,8.4c0,1.7-1.4,2.8-1.7,3.9c-0.3,1.4-0.6,2.2,0,3.4
				c1.1,1.7,2.5,2.2,12.1,4.2c5.1,1.1,9.8,3.9,12.9,4.2s8.4,0,8.4-7.6C53.8,109.7,51.2,108.6,48.7,104.1z"/>
			<path class="st4" d="M54,53.2c-1.6-1.1-3-2.2-3-3.9s1.1-2.2,2.8-3.7c0.3-0.3,3.4-3.1,6.5-3.1s6.7,2,8.2,2.5
				c2.5,0.6,5.1,1.1,4.8,3.1c-0.3,2.8-0.6,3.4-3.4,4.8c-2,0.6-5.6,3.7-8.2,3.7c-1.1,0-2.8,0-3.9-0.3C56.9,56,55.4,54.6,54,53.2z"/>
		</g>
		<g>
			<path class="st5" d="M53.5,51c0.6,0.6,1.4,1.1,2.2,1.4c0.6,0.3,1.4,0.6,1.4,0.6c1.1,0,2,0,2.5,0c1.4,0,3.4-0.6,5.3-1.7
				c2-0.8,2.2-1.4,3.7-2c1.4-0.8,2.8-1.7,2.2-2s-1.1,0-3.1,1.1c-1.7,1.1-3.1,1.7-4.8,2.5c-0.8,0.3-2,0.8-2.8,0.8s-1.7,0-2.5,0
				s-1.4-0.3-2.2-0.6c-0.6-0.3-0.8-0.6-1.1-0.6c-0.6-0.3-1.7-1.4-2.2-1.7c0,0-0.6,0-0.3,0.3C52.6,50.1,52.9,50.4,53.5,51z"/>
			<path class="st5" d="M61.9,44.8c0.3,0.6,0.8,0.6,1.1,0.8c0.3,0.3,0.6,0.3,0.6,0.3c0.3-0.3,0-0.8-0.3-0.8
				C63.3,44.5,61.9,44.5,61.9,44.8z"/>
			<path class="st5" d="M57.4,45.4c0,0.3,0.6,0.6,0.6,0.3c0.3-0.3,0.6-0.6,0.8-0.6c0.6-0.3,0.3-0.6-0.6-0.6
				C57.7,44.8,57.7,45.1,57.4,45.4z"/>
		</g>
		<path class="st6" d="M84.7,95.1c0,0.3,0,0.6,0,0.8c0.6,1.1,2,1.4,3.1,1.4c1.7,0,3.4-1.1,4.2-2.2c0-0.3,0.3-0.6,0.6-0.8
			c0.6-0.8,0.8-1.4,1.1-1.7c0,0-0.3-0.3-0.3-0.6c-0.3-0.6-1.1-1.1-2.2-1.4C90.4,90.3,89,90,88.4,90c-2.5-0.3-3.9,0.6-4.8,1.4
			c0,0,0.3,0,0.3,0.3c0.6,0.6,0.8,1.1,0.8,2C85,94.3,84.7,94.6,84.7,95.1z"/>
	</g>
	<g>
		<path class="st1" d="M134.7,45.3H146V86h20v9.5h-31.3V45.3z"/>
		<path class="st1" d="M184.1,45.3v50.2h-11.3V45.3H184.1z"/>
		<path class="st1" d="M193.9,95.6V45.3h13.3l10.4,18.4c3,5.3,5.9,11.6,8.2,17.2h0.1c-0.7-6.6-0.9-13.4-0.9-21V45.3h10.4v50.2h-11.9
			l-10.7-19.4c-3-5.4-6.3-11.9-8.7-17.7h-0.3c0.4,6.7,0.5,13.8,0.5,22v15.1h-10.4V95.6z"/>
		<path class="st1" d="M256.7,45.3v28.8c0,8.7,3.4,13.1,9.1,13.1c6,0,9.2-4.2,9.2-13.1V45.3h11.3v28.2c0,15.5-7.8,22.9-20.9,22.9
			c-12.7,0-20.1-7.1-20.1-23v-28h11.4V45.3z"/>
		<path class="st1" d="M322.7,95.6l-4.5-9.1c-1.9-3.5-3.1-6.1-4.5-9h-0.1c-1,2.9-2.3,5.5-4,9l-4.1,9.1h-13L307,70.1l-14-24.8h13
			l4.4,9.2c1.5,3.1,2.6,5.5,3.8,8.3h0.1c1.2-3.2,2.2-5.4,3.4-8.3l4.2-9.2h13l-14.2,24.5l14.9,25.7L322.7,95.6L322.7,95.6z"/>
	</g>
</g>
</svg>
