<?xml version="1.0" encoding="utf-8"?>
<!-- Generator: Adobe Illustrator 24.0.2, SVG Export Plug-In . SVG Version: 6.00 Build 0)  -->
<svg version="1.1" id="Capa_1" xmlns="http://www.w3.org/2000/svg" xmlns:xlink="http://www.w3.org/1999/xlink" x="0px" y="0px"
	 viewBox="0 0 566.9 141.7" style="enable-background:new 0 0 566.9 141.7;" xml:space="preserve">
<style type="text/css">
	.st0{fill:#369EE7;}
	.st1{fill:#FFFFFF;}
</style>
<rect class="st0" width="566.9" height="141.7"/>
<g>
	<g>
		<path class="st1" d="M133.7,108.8H28.3c-4.9,0-8.9-4-8.9-8.9v-58c0-4.9,4-8.9,8.9-8.9h105.5c4.9,0,8.9,4,8.9,8.9v58.1
			C142.6,104.8,138.6,108.8,133.7,108.8z M28.3,38.9c-1.6,0-3,1.3-3,3v58.1c0,1.6,1.3,3,3,3h105.5c1.6,0,3-1.3,3-3V41.9
			c0-1.6-1.3-3-3-3H28.3z"/>
		<path class="st1" d="M37.2,91V50.7H49l11.8,14.8l11.8-14.8h11.8V91H72.7V67.9L60.9,82.7L49.1,67.9V91H37.2z M111.3,91L93.5,71.4
			h11.8V50.7h11.8v20.7H129L111.3,91z"/>
	</g>
	<g>
		<path class="st1" d="M203.5,88.7h-7.6V68.2c0-2.2,0.1-4.7,0.3-7.3H196c-0.4,2.1-0.8,3.6-1.1,4.5l-8,23.3h-6.3l-8.2-23.1
			c-0.2-0.6-0.6-2.2-1.1-4.8h-0.2c0.2,3.4,0.3,6.3,0.3,8.9v19h-7V54.4h11.3l7,20.3c0.6,1.6,1,3.3,1.2,4.9h0.1c0.4-1.9,0.9-3.5,1.4-5
			l7-20.3h11V88.7z"/>
		<path class="st1" d="M231,88.7h-7.2v-3.5h-0.1c-1.6,2.7-4.1,4.1-7.3,4.1c-2.4,0-4.2-0.7-5.6-2c-1.4-1.3-2-3.1-2-5.4
			c0-4.8,2.8-7.5,8.4-8.2l6.7-0.9c0-2.7-1.5-4-4.4-4c-2.9,0-5.7,0.9-8.3,2.6v-5.7c1.1-0.5,2.5-1,4.3-1.4c1.8-0.4,3.5-0.6,5-0.6
			c7,0,10.5,3.5,10.5,10.5V88.7z M223.9,78.7v-1.7l-4.5,0.6c-2.5,0.3-3.7,1.4-3.7,3.3c0,0.9,0.3,1.6,0.9,2.1
			c0.6,0.6,1.4,0.8,2.4,0.8c1.4,0,2.6-0.5,3.5-1.5C223.4,81.5,223.9,80.2,223.9,78.7z"/>
		<path class="st1" d="M252.9,71c-0.9-0.5-2-0.7-3.2-0.7c-1.6,0-2.9,0.6-3.9,1.8c-0.9,1.2-1.4,2.8-1.4,4.9v11.7h-7.6V64.2h7.6v4.5
			h0.1c1.2-3.3,3.3-5,6.5-5c0.8,0,1.4,0.1,1.9,0.3V71z"/>
		<path class="st1" d="M281,88.7h-9.1l-7.8-12.2H264v12.2h-7.6V52.4h7.6v23.1h0.1l7.3-11.3h9l-8.8,11.5L281,88.7z"/>
		<path class="st1" d="M307.3,88.7h-7.6v-3.4h-0.1c-1.7,2.6-4.3,4-7.6,4c-3.1,0-5.5-1.1-7.4-3.2c-1.9-2.2-2.8-5.2-2.8-9.1
			c0-4.1,1-7.3,3.1-9.7s4.8-3.7,8.1-3.7c3.2,0,5.4,1.1,6.6,3.4h0.1V52.4h7.6V88.7z M299.9,76.8v-1.8c0-1.6-0.5-2.9-1.4-4
			c-0.9-1.1-2.1-1.6-3.6-1.6c-1.7,0-3,0.7-3.9,2c-0.9,1.3-1.4,3.1-1.4,5.4c0,2.2,0.5,3.8,1.4,5c0.9,1.2,2.2,1.7,3.8,1.7
			c1.5,0,2.8-0.6,3.7-1.8C299.4,80.4,299.9,78.8,299.9,76.8z"/>
		<path class="st1" d="M325.4,89.3c-4.1,0-7.3-1.1-9.6-3.4c-2.3-2.3-3.5-5.4-3.5-9.3c0-4.1,1.2-7.2,3.6-9.5c2.4-2.3,5.7-3.4,9.8-3.4
			c4.1,0,7.3,1.1,9.6,3.4c2.3,2.3,3.5,5.3,3.5,9.1c0,4.1-1.2,7.3-3.6,9.6C332.8,88.1,329.5,89.3,325.4,89.3z M325.6,69.4
			c-1.8,0-3.2,0.6-4.2,1.8c-1,1.2-1.5,3-1.5,5.2c0,4.7,1.9,7.1,5.7,7.1c3.6,0,5.4-2.4,5.4-7.2C331,71.7,329.2,69.4,325.6,69.4z"/>
		<path class="st1" d="M379.1,64.2l-7.1,24.5h-7.9l-3.6-14.4c-0.2-1-0.4-2-0.4-3.1H360c-0.1,1.2-0.3,2.3-0.5,3l-3.9,14.5h-7.8
			l-6.9-24.5h7.7l3.4,16c0.2,0.8,0.3,1.7,0.4,2.7h0.1c0.1-1.1,0.2-2.1,0.4-2.8l4.2-15.9h7.2l3.8,16c0.1,0.4,0.2,1.3,0.3,2.8h0.2
			c0.1-0.9,0.2-1.9,0.4-2.8l3.2-16H379.1z"/>
		<path class="st1" d="M406.4,88.7h-7.5V75.1c0-3.8-1.4-5.7-4.1-5.7c-1.3,0-2.4,0.5-3.2,1.5s-1.3,2.3-1.3,3.8v14h-7.6V64.2h7.6v3.9
			h0.1c1.8-3,4.4-4.5,7.9-4.5c5.4,0,8.1,3.4,8.1,10.1V88.7z"/>
	</g>
</g>
</svg>
