<?xml version="1.0" encoding="utf-8"?>
<!-- Generator: Adobe Illustrator 24.0.2, SVG Export Plug-In . SVG Version: 6.00 Build 0)  -->
<svg version="1.1" id="Capa_1" xmlns="http://www.w3.org/2000/svg" xmlns:xlink="http://www.w3.org/1999/xlink" x="0px" y="0px"
	 viewBox="0 0 566.9 141.7" style="enable-background:new 0 0 566.9 141.7;" xml:space="preserve">
<style type="text/css">
	.st0{fill:#00618A;}
	.st1{fill:#FFFFFF;}
	.st2{fill-rule:evenodd;clip-rule:evenodd;fill:#FFFFFF;}
	.st3{fill:#E48E00;}
	.st4{fill-rule:evenodd;clip-rule:evenodd;fill:#E48E00;}
</style>
<rect y="0" class="st0" width="566.9" height="141.7"/>
<g>
	<g>
		<path class="st1" d="M19.7,112.7h6.5V87.1l10.1,22.4c1.2,2.7,2.8,3.7,6,3.7s4.7-1,5.9-3.7l10.1-22.4v25.7h6.5V87.1
			c0-2.5-1-3.7-3.1-4.3c-4.9-1.5-8.3-0.2-9.8,3.1L42.1,108l-9.6-22.1c-1.4-3.3-4.8-4.7-9.8-3.1c-2.1,0.6-3.1,1.8-3.1,4.3v25.6H19.7z
			 M70.2,91.8h6.5V106c-0.1,0.8,0.2,2.6,3.8,2.6c1.8,0,14,0,14.1,0V91.7h6.5c0,0,0,23,0,23.1c0,5.7-7,6.9-10.3,7H70.3v-4.4h20.6
			c4.2-0.4,3.7-2.5,3.7-3.2v-1.7H80.8c-6.4-0.1-10.5-2.9-10.6-6.1C70.2,106.1,70.3,92,70.2,91.8L70.2,91.8z"/>
		<g>
			<path class="st1" d="M210.1,75.5c-4-0.1-7,0.3-9.7,1.4c-0.7,0.3-1.9,0.3-2,1.3c0.4,0.4,0.5,1.1,0.8,1.6c0.6,1,1.7,2.4,2.6,3.1
				c1,0.8,2.1,1.6,3.2,2.3c2,1.2,4.1,1.9,6,3.1c1.1,0.7,2.2,1.6,3.3,2.4c0.5,0.4,0.9,1,1.6,1.2v-0.1c-0.4-0.5-0.5-1.1-0.8-1.6
				l-1.5-1.5c-1.4-1.9-3.3-3.6-5.2-5c-1.6-1.1-5-2.6-5.7-4.4l-0.1-0.1c1.1-0.1,2.4-0.5,3.4-0.8c1.7-0.5,3.2-0.3,5-0.8l2.4-0.7v-0.5
				c-0.9-0.9-1.5-2.1-2.5-3c-2.5-2.2-5.3-4.3-8.2-6.1c-1.6-1-3.5-1.7-5.2-2.5c-0.6-0.3-1.6-0.4-1.9-0.9c-0.9-1.1-1.4-2.6-2-3.9
				c-1.4-2.7-2.8-5.7-4.1-8.6c-0.9-2-1.4-3.9-2.5-5.7c-5.2-8.5-10.7-13.6-19.3-18.6c-1.8-1.1-4-1.5-6.4-2l-3.7-0.2
				c-0.8-0.3-1.6-1.3-2.3-1.7c-2.8-1.8-10.2-5.7-12.3-0.6c-1.3,3.2,2,6.4,3.2,8.1c0.8,1.2,1.9,2.5,2.5,3.7c0.4,0.9,0.5,1.7,0.8,2.6
				c0.8,2.2,1.5,4.6,2.6,6.7c0.5,1,1.1,2.1,1.8,3.1c0.4,0.6,1.1,0.8,1.2,1.7c-0.7,1-0.7,2.5-1.1,3.7c-1.8,5.6-1.1,12.6,1.5,16.7
				c0.8,1.3,2.7,4,5.2,3c2.2-0.9,1.7-3.7,2.4-6.2c0.1-0.6,0.1-1,0.3-1.4v0.1l2,4.1c1.5,2.4,4.2,5,6.5,6.7c1.2,0.9,2.1,2.4,3.6,3
				v-0.1h-0.1c-0.3-0.5-0.8-0.7-1.1-1c-0.9-0.9-1.9-2-2.6-3c-2.1-2.8-3.9-5.9-5.6-9.1c-0.8-1.5-1.5-3.2-2.2-4.8
				c-0.3-0.6-0.3-1.5-0.8-1.8c-0.7,1.1-1.8,2.1-2.4,3.4c-0.9,2.2-1,4.8-1.4,7.5c-0.2,0.1-0.1,0-0.2,0.1c-1.6-0.4-2.1-2-2.7-3.4
				c-1.5-3.5-1.8-9.2-0.5-13.3c0.3-1.1,1.9-4.4,1.2-5.3c-0.3-1-1.3-1.5-1.8-2.3c-0.7-0.9-1.4-2.1-1.8-3.2c-1.2-2.8-1.8-5.8-3.1-8.6
				c-0.6-1.3-1.6-2.7-2.5-3.9c-0.9-1.3-2-2.3-2.7-3.9c-0.3-0.6-0.6-1.5-0.2-2c0.1-0.3,0.3-0.6,0.7-0.7c0.7-0.5,2.5,0.2,3.2,0.5
				c1.8,0.8,3.3,1.5,4.9,2.5c0.7,0.5,1.5,1.4,2.4,1.7h1c1.6,0.4,3.4,0.1,4.9,0.6c2.6,0.8,5,2.1,7.2,3.4c6.5,4.1,11.9,10,15.6,17.1
				c0.6,1.1,0.8,2.2,1.4,3.4c1,2.4,2.4,4.9,3.4,7.3c1,2.4,2.1,4.7,3.5,6.7c0.8,1,3.8,1.6,5.1,2.2c1,0.4,2.5,0.8,3.4,1.4
				c1.7,1,3.4,2.3,5,3.4C207.5,73.3,210,74.5,210.1,75.5L210.1,75.5z"/>
			<path class="st2" d="M159.3,32.2c-0.8,0-1.4,0.1-2,0.2v0.1h0.1c0.4,0.8,1.1,1.3,1.6,2l1.1,2.4l0.1-0.1c0.7-0.5,1-1.3,1-2.5
				c-0.3-0.3-0.3-0.7-0.6-1C160.4,32.9,159.7,32.6,159.3,32.2L159.3,32.2z"/>
		</g>
	</g>
	<g>
		<path class="st3" d="M106.1,112.7h18.7c2.2,0,4.3-0.5,6-1.3c2.8-1.3,4.2-3,4.2-5.3v-4.7c0-1.9-1.6-3.6-4.6-4.8
			c-1.6-0.6-3.6-1-5.6-1H117c-2.6,0-3.9-0.8-4.2-2.5c-0.1-0.2-0.1-0.4-0.1-0.6v-3c0-0.2,0-0.3,0.1-0.5c0.3-1.3,1-1.7,3.3-1.9
			c0.2,0,0.4,0,0.6,0h18.6v-4.3H117c-2.6,0-4,0.2-5.3,0.5c-3.9,1.2-5.6,3.1-5.6,6.5v3.8c0,2.9,3.3,5.4,8.9,6c0.6,0,1.3,0.1,1.9,0.1
			h6.8c0.3,0,0.5,0,0.7,0c2.1,0.2,2.9,0.5,3.6,1.3c0.4,0.4,0.5,0.8,0.5,1.2v3.8c0,0.5-0.3,1-0.9,1.5s-1.5,0.8-2.8,0.9
			c-0.3,0-0.4,0-0.7,0h-17.9L106.1,112.7L106.1,112.7z M175.6,105.2c0,4.5,3.3,7,10,7.5c0.6,0,1.2,0.1,1.9,0.1h16.9v-4.3h-17.1
			c-3.8,0-5.3-1-5.3-3.3V82.7h-6.5L175.6,105.2L175.6,105.2z M139.2,105.4V89.9c0-3.9,2.8-6.3,8.2-7.1c0.6-0.1,1.2-0.1,1.8-0.1h12.3
			c0.6,0,1.2,0,1.8,0.1c5.4,0.8,8.2,3.1,8.2,7.1v15.4c0,3.2-1.2,4.9-3.9,6l6.4,5.8h-7.5l-5.2-4.7l-5.2,0.3h-7
			c-1.2,0-2.4-0.2-3.8-0.5C141.2,111.2,139.2,109,139.2,105.4L139.2,105.4z M146.2,105c0,0.2,0.1,0.4,0.1,0.7
			c0.4,1.8,2.1,2.8,4.6,2.8h5.9l-5.4-4.9h7.5l4.7,4.3c0.9-0.5,1.4-1.2,1.6-2.1c0.1-0.2,0.1-0.4,0.1-0.6V90.3c0-0.2,0-0.4-0.1-0.6
			c-0.4-1.7-2.1-2.6-4.6-2.6h-9.8c-2.9,0-4.8,1.3-4.8,3.2L146.2,105L146.2,105z"/>
		<path class="st4" d="M207.4,108.3c0,2.9,2.3,4.8,4.8,4.8s4.8-1.9,4.8-4.8s-2.3-4.8-4.8-4.8S207.4,105.4,207.4,108.3z M215.9,108.3
			c0,2.2-1.7,3.8-3.7,3.8c-2.1,0-3.7-1.6-3.7-3.8s1.6-3.8,3.7-3.8C214.3,104.5,215.9,106.1,215.9,108.3z M213.5,111h1.1l-1.6-2.4
			c0.8-0.1,1.5-0.5,1.5-1.5c0-1.1-0.7-1.6-2.1-1.6h-2.1v5.5h0.9v-2.4h0.9L213.5,111L213.5,111z M211.2,107.9v-1.6h1.1
			c0.5,0,1.2,0.1,1.2,0.7c0,0.8-0.6,0.8-1.3,0.8L211.2,107.9L211.2,107.9z"/>
	</g>
</g>
</svg>
