<?xml version="1.0" encoding="utf-8"?>
<!-- Generator: Adobe Illustrator 24.0.2, SVG Export Plug-In . SVG Version: 6.00 Build 0)  -->
<svg version="1.1" id="Capa_1" xmlns="http://www.w3.org/2000/svg" xmlns:xlink="http://www.w3.org/1999/xlink" x="0px" y="0px"
	 viewBox="0 0 566.9 141.7" style="enable-background:new 0 0 566.9 141.7;" xml:space="preserve">
<style type="text/css">
	.st0{fill:#404137;}
	.st1{fill-rule:evenodd;clip-rule:evenodd;fill:#83CD29;}
	.st2{fill-rule:evenodd;clip-rule:evenodd;fill:#FFFFFF;}
</style>
<rect y="0" class="st0" width="566.9" height="141.7"/>
<g id="layer1" transform="translate(-115.94417,-501.42131)">
	<g>
		<path class="st1" d="M436.8,563.7c-0.8,0-1.6,0.2-2.3,0.6l-21.7,12.5c-1.4,0.8-2.3,2.3-2.3,4v25c0,1.6,0.9,3.2,2.3,4l5.7,3.3
			c2.8,1.4,3.8,1.3,5,1.3c4.1,0,6.4-2.5,6.4-6.8v-24.7c0-0.3-0.3-0.6-0.6-0.6h-2.7c-0.3,0-0.6,0.2-0.6,0.6v24.7c0,1.9-2,3.8-5.2,2.2
			l-5.9-3.5c-0.2-0.1-0.4-0.3-0.4-0.6v-25c0-0.2,0.2-0.5,0.4-0.6l21.7-12.5c0.2-0.1,0.4-0.1,0.6,0l21.7,12.5
			c0.2,0.1,0.4,0.4,0.4,0.6v25c0,0.2-0.1,0.5-0.3,0.6l-21.7,12.5c-0.2,0.1-0.4,0.1-0.6,0l-5.6-3.3c-0.2-0.1-0.4-0.1-0.6,0
			c-1.5,0.9-1.8,1-3.3,1.5c-0.4,0.1-0.9,0.3,0.2,0.9l7.3,4.3c0.7,0.4,1.5,0.6,2.3,0.6s1.6-0.2,2.3-0.6l21.7-12.5
			c1.4-0.8,2.3-2.3,2.3-4v-25c0-1.6-0.9-3.1-2.3-4l-21.7-12.5C438.4,563.8,437.6,563.7,436.8,563.7L436.8,563.7z"/>
		<path class="st1" d="M442.6,581.6c-6.2,0-9.9,2.6-9.9,7c0,4.7,3.7,6,9.6,6.6c7.1,0.7,7.6,1.7,7.6,3.1c0,2.4-1.9,3.5-6.5,3.5
			c-5.7,0-7-1.4-7.4-4.3c0-0.3-0.3-0.6-0.6-0.6h-2.8c-0.3,0-0.6,0.3-0.6,0.6c0,3.7,2,8,11.5,8c6.9,0,10.8-2.7,10.8-7.4
			s-3.2-5.9-9.9-6.8c-6.7-0.9-7.4-1.3-7.4-2.9c0-1.3,0.5-3,5.5-3c4.5,0,6.1,1,6.8,4c0.1,0.3,0.3,0.5,0.6,0.5h2.8
			c0.2,0,0.3-0.1,0.5-0.2c0.1-0.1,0.2-0.3,0.2-0.5C453,584,449.6,581.6,442.6,581.6L442.6,581.6z"/>
	</g>
	<g>
		<path id="path22" class="st2" d="M309.3,530.9c-0.2,0-0.5,0.1-0.7,0.2c-0.4,0.2-0.7,0.7-0.7,1.2v35.2c0,0.3-0.2,0.7-0.5,0.8
			c-0.3,0.2-0.7,0.2-1,0l-5.8-3.3c-0.9-0.5-1.9-0.5-2.8,0l-23,13.3c-0.9,0.5-1.4,1.4-1.4,2.4v26.5c0,1,0.5,1.9,1.4,2.4l23,13.3
			c0.9,0.5,1.9,0.5,2.8,0l23-13.3c0.9-0.5,1.4-1.4,1.4-2.4V541c0-1-0.5-2-1.4-2.4L310,531C309.7,530.9,309.5,530.9,309.3,530.9
			L309.3,530.9z M161.4,564c-0.4,0-0.9,0.1-1.2,0.3l-23,13.3c-0.9,0.5-1.4,1.4-1.4,2.4v35.6c0,0.5,0.3,1,0.7,1.2
			c0.4,0.3,1,0.3,1.4,0l13.6-7.8c0.9-0.5,1.4-1.4,1.4-2.4V590c0-1,0.5-1.9,1.4-2.4l5.8-3.4c0.4-0.3,0.9-0.4,1.4-0.4s1,0.1,1.4,0.4
			l5.8,3.4c0.9,0.5,1.4,1.4,1.4,2.4v16.6c0,1,0.6,1.9,1.4,2.4l13.6,7.8c0.4,0.3,1,0.3,1.4,0c0.4-0.2,0.7-0.7,0.7-1.2V580
			c0-1-0.5-1.9-1.4-2.4l-23-13.3c-0.4-0.2-0.8-0.3-1.2-0.3H161.4L161.4,564z M368,564.3c-0.5,0-1,0.1-1.4,0.4l-23,13.3
			c-0.9,0.5-1.4,1.4-1.4,2.4v26.5c0,1,0.6,1.9,1.4,2.4l22.8,13c0.8,0.5,1.9,0.5,2.7,0l13.8-7.7c0.4-0.2,0.7-0.7,0.7-1.2
			s-0.3-0.9-0.7-1.2l-23-13.2c-0.4-0.2-0.7-0.7-0.7-1.2v-8.3c0-0.5,0.3-1,0.7-1.2l7.2-4.1c0.4-0.2,1-0.2,1.4,0l7.2,4.1
			c0.4,0.2,0.7,0.7,0.7,1.2v6.5c0,0.5,0.3,1,0.7,1.2c0.4,0.2,1,0.2,1.4,0l13.8-8c0.9-0.5,1.4-1.4,1.4-2.4v-6.4c0-1-0.5-1.9-1.4-2.4
			l-22.8-13.3C368.9,564.4,368.4,564.3,368,564.3L368,564.3z M299.2,584.1c0.1,0,0.3,0,0.4,0.1l7.9,4.6c0.2,0.1,0.4,0.4,0.4,0.6v9.1
			c0,0.2-0.2,0.5-0.4,0.6l-7.9,4.6c-0.2,0.1-0.5,0.1-0.7,0l-7.9-4.6c-0.2-0.1-0.4-0.4-0.4-0.6v-9.1c0-0.2,0.2-0.5,0.4-0.6l7.9-4.6
			C299,584.2,299.1,584.1,299.2,584.1L299.2,584.1z"/>
		<path class="st1" d="M230.5,564.2c-0.5,0-1,0.1-1.4,0.4l-23,13.2c-0.9,0.5-1.4,1.5-1.4,2.4v26.5c0,1,0.5,1.9,1.4,2.4l23,13.3
			c0.9,0.5,1.9,0.5,2.8,0l23-13.3c0.9-0.5,1.4-1.4,1.4-2.4v-26.5c0-1-0.5-1.9-1.4-2.4l-23-13.2C231.4,564.3,230.9,564.2,230.5,564.2
			z"/>
		<path class="st1" d="M367.9,587.9c-0.1,0-0.2,0-0.3,0l-4.4,2.6c-0.2,0.1-0.3,0.3-0.3,0.5v5.1c0,0.2,0.1,0.4,0.3,0.5l4.4,2.5
			c0.2,0.1,0.3,0.1,0.5,0l4.4-2.5c0.2-0.1,0.3-0.3,0.3-0.5V591c0-0.2-0.1-0.4-0.3-0.5l-4.4-2.6C368.1,587.9,368,587.9,367.9,587.9z"
			/>
	</g>
</g>
</svg>
