<?xml version="1.0" encoding="utf-8"?>
<!-- Generator: Adobe Illustrator 24.0.2, SVG Export Plug-In . SVG Version: 6.00 Build 0)  -->
<svg version="1.1" id="Capa_1" xmlns="http://www.w3.org/2000/svg" xmlns:xlink="http://www.w3.org/1999/xlink" x="0px" y="0px"
	 viewBox="0 0 566.9 141.7" style="enable-background:new 0 0 566.9 141.7;" xml:space="preserve">
<style type="text/css">
	.st0{fill:#002E3B;}
	.st1{fill:#FFFFFF;}
	.st2{fill-rule:evenodd;clip-rule:evenodd;fill:#80EEC0;}
	.st3{fill:#00DC82;}
</style>
<rect y="0" class="st0" width="566.9" height="141.7"/>
<g>
	<path class="st1" d="M130.8,53.7h9.8l20.7,33.7V53.7h9v47.7h-9.7l-20.8-33.6v33.6h-9V53.7z"/>
	<path class="st1" d="M210.5,101.4h-8.4v-5.3c-1.9,3.8-5.8,5.9-10.7,5.9c-7.8,0-12.8-5.6-12.8-13.6V67.1h8.4v19.5c0,4.7,2.9,8,7.2,8
		c4.7,0,8-3.7,8-8.7V67.1h8.4L210.5,101.4L210.5,101.4z"/>
	<path class="st1" d="M239.8,100.9l-8.1-11.5l-8.1,11.5h-8.9L227.1,83l-11.5-16.4h9.1l6.9,9.9l6.8-9.9h9.2L236.1,83l12.4,17.9H239.8
		z"/>
	<path class="st1" d="M265.7,56.7v10.4h9.6v7h-9.6v17c0,0.6,0.2,1.1,0.6,1.5s1,0.6,1.5,0.6h7.4v8.1h-5.5c-7.5,0-12.4-4.4-12.4-12
		V74.1h-6.8v-7h4.2c2,0,3.1-1.2,3.1-3.1v-7.2L265.7,56.7L265.7,56.7z"/>
	<path class="st1" d="M296.4,90.6V53.7h9v34.1c0,9.2-4.4,13.6-11.9,13.6H283v-8.1h10.7c0.7,0,1.4-0.3,1.9-0.8S296.4,91.3,296.4,90.6
		"/>
	<path class="st1" d="M310.8,85.4h8.7c0.5,5.3,4,8.7,9.8,8.7c5.1,0,8.7-2,8.7-6.3c0-10.2-25.7-3.1-25.7-21.4
		c0-7.8,6.8-13.3,16.5-13.3c10.1,0,16.9,5.8,17.3,14.7h-8.6c-0.4-4.2-3.7-7-8.7-7c-4.7,0-7.6,2.2-7.6,5.5c0,10.6,26,2.7,26,21.3
		c0,8.9-7.3,14.3-17.8,14.3C318.4,102,311.3,95.4,310.8,85.4"/>
	<path class="st2" d="M59.5,43c-2.5-4.4-8.8-4.4-11.3,0L20.7,91.1c-2.5,4.4,0.6,9.9,5.7,9.9h21.4c-2.2-1.9-3-5.2-1.3-8.1l20.8-36.3
		L59.5,43z"/>
	<path class="st3" d="M77,53.5c2.1-3.6,7.3-3.6,9.4,0l22.7,39.4c2.1,3.6-0.5,8.1-4.7,8.1H58.9c-4.2,0-6.8-4.5-4.7-8.1L77,53.5z"/>
</g>
</svg>
