<?xml version="1.0" encoding="utf-8"?>
<!-- Generator: Adobe Illustrator 24.0.2, SVG Export Plug-In . SVG Version: 6.00 Build 0)  -->
<svg version="1.1" id="Capa_1" xmlns="http://www.w3.org/2000/svg" xmlns:xlink="http://www.w3.org/1999/xlink" x="0px" y="0px"
	 viewBox="0 0 566.9 141.7" style="enable-background:new 0 0 566.9 141.7;" xml:space="preserve">
<style type="text/css">
	.st0{fill:#002E3B;}
	.st1{fill:#FFFFFF;}
	.st2{font-family:'Quicksand-Medium';}
	.st3{font-size:75px;}
	.st4{letter-spacing:3;}
	.st5{fill:#00C391;}
	.st6{fill-rule:evenodd;clip-rule:evenodd;fill:#80EEC0;}
	.st7{fill:#00DC82;}
</style>
<rect y="0.2" class="st0" width="566.9" height="141.7"/>
<g>
	<text transform="matrix(1 0 0 1 129.0501 96.4219)" class="st1 st2 st3 st4">NUXT</text>
	<text transform="matrix(1 0 0 1 338.1501 96.4219)" class="st5 st2 st3 st4">JS</text>
</g>
<g>
	<path class="st6" d="M59.4,44.3c-2.5-4.4-8.8-4.4-11.3,0L20.6,92.4c-2.5,4.4,0.6,9.9,5.7,9.9h21.4c-2.2-1.9-3-5.2-1.3-8.1
		l20.8-36.3L59.4,44.3z"/>
	<path class="st7" d="M76.9,54.8c2.1-3.6,7.3-3.6,9.4,0L109,94.2c2.1,3.6-0.5,8.1-4.7,8.1H58.8c-4.2,0-6.8-4.5-4.7-8.1L76.9,54.8z"
		/>
</g>
</svg>
