<?xml version="1.0" encoding="utf-8"?>
<!-- Generator: Adobe Illustrator 24.0.2, SVG Export Plug-In . SVG Version: 6.00 Build 0)  -->
<svg version="1.1" id="Capa_1" xmlns="http://www.w3.org/2000/svg" xmlns:xlink="http://www.w3.org/1999/xlink" x="0px" y="0px"
	 viewBox="0 0 566.9 141.7" style="enable-background:new 0 0 566.9 141.7;" xml:space="preserve">
<style type="text/css">
	.st0{fill:#001523;}
	.st1{fill:#001E36;}
	.st2{fill:#00CBFF;}
	.st3{fill:#CFF3FD;}
	.st4{fill:#FFFFFF;}
</style>
<rect y="0.2" class="st0" width="566.9" height="141.7"/>
<g>
	<g id="Layer_2_1_">
		<g id="Surfaces">
			<g id="Photo_Surface">
				<g id="Outline_no_shadow">
					<g>
						<path class="st1" d="M38.4,120c-9.1,0-16.5-7.4-16.5-16.5V38.6c0-9.1,7.4-16.5,16.5-16.5H106c9.1,0,16.5,7.4,16.5,16.5v64.9
							c0,9.1-7.4,16.5-16.5,16.5H38.4z"/>
						<path class="st2" d="M106,24.1c8,0,14.5,6.5,14.5,14.5v64.9c0,8-6.5,14.5-14.5,14.5H38.4c-8,0-14.5-6.5-14.5-14.5V38.6
							c0-8,6.5-14.5,14.5-14.5L106,24.1 M106,20.1H38.4c-10.2,0-18.5,8.2-18.5,18.5v64.9c0,10.2,8.3,18.5,18.5,18.5H106
							c10.2,0,18.5-8.3,18.5-18.5V38.6C124.5,28.4,116.2,20.1,106,20.1L106,20.1z"/>
					</g>
				</g>
			</g>
		</g>
		<g id="Outlined_Mnemonics_Logos">
			<g id="Ps">
				<path class="st3" d="M43.4,91.6V46.7c0-0.3,0.1-0.5,0.4-0.5c0.7,0,1.4,0,2.4,0s2.1,0,3.3-0.1c1.2,0,2.4,0,3.8-0.1s2.7,0,4,0
					c3.6,0,6.5,0.4,9,1.4c2.2,0.7,4.2,2,5.8,3.6c1.4,1.4,2.5,3.1,3.2,5c0.7,1.8,1,3.7,1,5.7c0,3.7-0.9,6.8-2.6,9.3s-4.2,4.3-7,5.3
					c-3,1.1-6.2,1.5-9.8,1.5c-1,0-1.7,0-2.2,0c-0.4,0-1,0-1.9,0v14c0,0.3-0.2,0.6-0.5,0.6c0,0-0.1,0-0.2,0H44
					C43.6,92.1,43.4,92,43.4,91.6z M52.9,54.7v14.6c0.6,0,1.2,0.1,1.7,0.1h2.3c1.7,0,3.4-0.3,5-0.8c1.4-0.4,2.6-1.2,3.6-2.3
					c0.9-1.1,1.4-2.6,1.4-4.5c0-1.4-0.3-2.7-1-3.9c-0.7-1.1-1.8-2-3.1-2.5c-1.6-0.7-3.4-0.9-5.1-0.9c-1.1,0-2.1,0-3,0
					C53.8,54.6,53.2,54.6,52.9,54.7L52.9,54.7z"/>
				<path class="st3" d="M103.6,66.6c-1.3-0.7-2.7-1.2-4.2-1.5c-1.6-0.3-3.2-0.6-4.9-0.6c-0.9,0-1.8,0.1-2.6,0.3
					c-0.6,0.1-1,0.4-1.4,0.9c-0.2,0.3-0.3,0.8-0.3,1.2s0.2,0.8,0.4,1.1c0.4,0.5,0.9,0.9,1.5,1.2c1,0.5,2,1,3.1,1.4
					c2.4,0.8,4.6,1.9,6.7,3.2c1.4,0.9,2.6,2.1,3.4,3.6c0.7,1.4,1,2.9,1,4.5c0,2-0.6,4.1-1.7,5.8c-1.2,1.7-2.9,3.1-4.9,3.9
					c-2.1,0.9-4.8,1.4-7.9,1.4c-2,0-4-0.2-5.9-0.6c-1.5-0.3-3.1-0.7-4.4-1.4c-0.3-0.2-0.5-0.5-0.5-0.8v-7.6c0-0.1,0-0.3,0.2-0.4
					s0.3,0,0.4,0c1.7,1,3.5,1.7,5.4,2.1c1.7,0.4,3.4,0.7,5.1,0.7s2.8-0.2,3.6-0.6c0.7-0.3,1.2-1,1.2-1.8c0-0.6-0.3-1.2-1-1.7
					c-0.7-0.6-2.1-1.2-4.3-2c-2.2-0.8-4.3-1.8-6.2-3.1c-1.4-1-2.5-2.2-3.3-3.7c-0.7-1.4-1-2.9-1-4.4c0-1.9,0.5-3.7,1.5-5.3
					c1.1-1.7,2.7-3.1,4.6-4c2-1,4.6-1.5,7.7-1.5c1.8,0,3.6,0.1,5.4,0.4c1.3,0.2,2.6,0.5,3.7,1c0.2,0,0.3,0.2,0.4,0.4
					c0,0.2,0.1,0.3,0.1,0.5v7c0,0.2-0.1,0.3-0.2,0.4C104,66.7,103.7,66.7,103.6,66.6z"/>
			</g>
		</g>
	</g>
	<g>
		<g>
			<path class="st4" d="M153.9,51.7l-3.1,9.5h-4l10.3-30.3h4.7l10.3,30.3h-4.2l-3.2-9.5H153.9z M163.9,48.6l-3-8.7
				c-0.7-2-1.1-3.8-1.6-5.5h-0.1c-0.4,1.8-0.9,3.6-1.5,5.5l-3,8.8L163.9,48.6L163.9,48.6z"/>
			<path class="st4" d="M194.6,29.3v26.3c0,1.9,0.1,4.1,0.2,5.6h-3.5l-0.2-3.8H191c-1.2,2.4-3.8,4.3-7.3,4.3
				c-5.3,0-9.4-4.5-9.4-11.1c0-7.2,4.5-11.7,9.8-11.7c3.4,0,5.6,1.6,6.6,3.3h0.1v-13h3.8V29.3z M190.7,48.3c0-0.5,0-1.2-0.2-1.7
				c-0.6-2.5-2.7-4.5-5.7-4.5c-4.1,0-6.5,3.6-6.5,8.4c0,4.4,2.2,8.1,6.4,8.1c2.7,0,5.1-1.8,5.8-4.7c0.1-0.5,0.2-1.1,0.2-1.7V48.3z"
				/>
			<path class="st4" d="M221,50.1c0,8.1-5.6,11.6-10.8,11.6c-5.8,0-10.4-4.3-10.4-11.2c0-7.2,4.8-11.5,10.8-11.5
				C216.7,39,221,43.5,221,50.1z M203.7,50.4c0,4.8,2.7,8.4,6.6,8.4c3.8,0,6.6-3.6,6.6-8.5c0-3.7-1.8-8.3-6.5-8.3
				C205.7,42,203.7,46.3,203.7,50.4z"/>
			<path class="st4" d="M226,29.3h3.9V43h0.1c1.4-2.4,3.9-4,7.4-4c5.4,0,9.2,4.5,9.2,11.1c0,7.8-4.9,11.7-9.8,11.7
				c-3.1,0-5.7-1.2-7.3-4h-0.1l-0.2,3.6h-3.4c0.1-1.5,0.2-3.7,0.2-5.6L226,29.3L226,29.3z M229.9,52.5c0,0.5,0,1,0.2,1.4
				c0.7,2.7,3.1,4.6,5.9,4.6c4.2,0,6.6-3.4,6.6-8.4c0-4.4-2.2-8.1-6.5-8.1c-2.7,0-5.2,1.9-6,4.9c-0.1,0.5-0.2,1-0.2,1.7V52.5z"/>
			<path class="st4" d="M253.8,51c0.1,5.4,3.5,7.6,7.5,7.6c2.8,0,4.6-0.5,6-1.1l0.7,2.8c-1.4,0.6-3.8,1.4-7.3,1.4
				c-6.7,0-10.7-4.5-10.7-11c0-6.6,3.9-11.7,10.2-11.7c7.2,0,9,6.2,9,10.2c0,0.8,0,1.4-0.1,1.8H253.8z M265.4,48.2
				c0-2.5-1-6.4-5.5-6.4c-4,0-5.8,3.6-6.1,6.4H265.4z"/>
		</g>
		<g>
			<path class="st4" d="M148.8,74c2-0.4,4.8-0.6,8.5-0.6c4.1,0,7,0.9,8.9,2.5c1.8,1.5,3,3.9,3,6.7c0,2.9-0.9,5.2-2.6,6.8
				c-2.2,2.2-5.7,3.3-9.6,3.3c-1,0-1.9,0-2.7-0.2V104h-5.5L148.8,74L148.8,74z M154.3,88c0.7,0.2,1.6,0.3,2.7,0.3
				c4.1,0,6.7-2.1,6.7-5.6c0-3.4-2.3-5.1-6.2-5.1c-1.5,0-2.6,0.1-3.2,0.3V88z"/>
			<path class="st4" d="M173.6,71.9h5.5v13h0.1c0.7-1,1.6-1.9,2.7-2.5c1.1-0.6,2.4-1,3.8-1c3.7,0,7.6,2.5,7.6,9.5v12.9h-5.5V91.5
				c0-3.1-1.2-5.6-4.2-5.6c-2.2,0-3.7,1.4-4.3,3.1c-0.2,0.5-0.2,1.1-0.2,1.7v13.1h-5.5L173.6,71.9L173.6,71.9z"/>
			<path class="st4" d="M220.1,92.7c0,8.1-5.7,11.7-11.2,11.7c-6.2,0-11-4.2-11-11.3c0-7.2,4.7-11.6,11.3-11.6
				C215.8,81.5,220.1,86.1,220.1,92.7z M203.6,92.9c0,4.2,2.1,7.4,5.4,7.4c3.1,0,5.4-3.1,5.4-7.5c0-3.4-1.5-7.4-5.3-7.4
				C205.2,85.5,203.6,89.3,203.6,92.9z"/>
			<path class="st4" d="M231,76.3V82h5.3v4.1H231v9.7c0,2.7,0.7,4,2.8,4c1,0,1.5,0,2.2-0.2l0.1,4.2c-0.8,0.3-2.3,0.6-4,0.6
				c-2.1,0-3.7-0.7-4.8-1.8c-1.2-1.3-1.8-3.3-1.8-6.2V86.1h-3.1V82h3.1v-4.1L231,76.3z"/>
			<path class="st4" d="M261.1,92.7c0,8.1-5.7,11.7-11.2,11.7c-6.2,0-11-4.2-11-11.3c0-7.2,4.7-11.6,11.3-11.6
				C256.7,81.5,261.1,86.1,261.1,92.7z M244.5,92.9c0,4.2,2.1,7.4,5.4,7.4c3.1,0,5.4-3.1,5.4-7.5c0-3.4-1.5-7.4-5.3-7.4
				C246.1,85.5,244.5,89.3,244.5,92.9z"/>
			<path class="st4" d="M265.4,98.8c1.2,0.8,3.6,1.6,5.6,1.6c2.4,0,3.5-1,3.5-2.5s-0.9-2.2-3.6-3.2c-4.3-1.4-6-3.8-6-6.4
				c0-3.9,3.2-6.8,8.3-6.8c2.4,0,4.5,0.6,5.9,1.3l-1.1,3.9c-0.9-0.5-2.7-1.3-4.6-1.3c-2,0-3.1,1-3.1,2.3c0,1.4,1,2,3.8,3.1
				c4,1.4,5.8,3.4,5.9,6.7c0,4-3.1,6.9-8.9,6.9c-2.7,0-5-0.6-6.7-1.5L265.4,98.8z"/>
			<path class="st4" d="M284.4,71.9h5.5v13h0.1c0.7-1,1.6-1.9,2.7-2.5s2.4-1,3.8-1c3.7,0,7.6,2.5,7.6,9.5v12.9h-5.5V91.5
				c0-3.1-1.2-5.6-4.2-5.6c-2.2,0-3.7,1.4-4.3,3.1c-0.2,0.5-0.2,1.1-0.2,1.7v13.1h-5.5V71.9z"/>
			<path class="st4" d="M330.9,92.7c0,8.1-5.7,11.7-11.2,11.7c-6.2,0-11-4.2-11-11.3c0-7.2,4.7-11.6,11.3-11.6
				C326.6,81.5,330.9,86.1,330.9,92.7z M314.4,92.9c0,4.2,2.1,7.4,5.4,7.4c3.1,0,5.4-3.1,5.4-7.5c0-3.4-1.5-7.4-5.3-7.4
				C316,85.5,314.4,89.3,314.4,92.9z"/>
			<path class="st4" d="M335.5,89.3c0-2.9-0.1-5.2-0.2-7.3h4.9l0.3,3.4h0.1c1.6-2.5,4.2-3.9,7.5-3.9c5,0,9.2,4.3,9.2,11.2
				c0,7.9-5,11.7-10,11.7c-2.7,0-5-1.2-6.2-2.9H341v11.3h-5.5V89.3z M341,94.7c0,0.5,0,1,0.1,1.5c0.6,2.2,2.5,3.9,4.9,3.9
				c3.5,0,5.6-2.9,5.6-7.2c0-3.9-1.9-7-5.4-7c-2.3,0-4.4,1.7-5,4.1c-0.1,0.4-0.2,0.9-0.2,1.4V94.7z"/>
		</g>
	</g>
</g>
</svg>
