<?xml version="1.0" encoding="utf-8"?>
<!-- Generator: Adobe Illustrator 24.0.2, SVG Export Plug-In . SVG Version: 6.00 Build 0)  -->
<svg version="1.1" id="Capa_1" xmlns="http://www.w3.org/2000/svg" xmlns:xlink="http://www.w3.org/1999/xlink" x="0px" y="0px"
	 viewBox="0 0 566.9 141.7" style="enable-background:new 0 0 566.9 141.7;" xml:space="preserve">
<style type="text/css">
	.st0{fill:#6082BB;}
	.st1{fill:#FFFFFF;}
</style>
<rect y="0" class="st0" width="566.9" height="141.7"/>
<g>
	<path id="path3486" class="st1" d="M51,89.3c5.8,0,10-1.1,12.7-3.1c2.7-2.1,4.5-5.7,5.5-10.8c0.9-4.7,0.5-8-1-9.8
		c-1.6-1.8-5.1-2.7-10.3-2.7h-9.2l-5,26.4C43.7,89.3,51,89.3,51,89.3z M21.1,121.9c-0.4,0-0.8-0.2-1.1-0.5c-0.3-0.4-0.4-0.8-0.3-1.2
		l13.4-70.1c0.1-0.7,0.7-1.2,1.4-1.2h29c9.1,0,15.8,2.5,20.1,7.5c4.3,4.9,5.6,12,4,20.7c-0.7,3.6-1.9,6.8-3.5,9.8s-3.8,5.7-6.4,8.2
		c-3.1,3-6.7,5.1-10.5,6.4c-3.8,1.3-8.6,1.9-14.5,1.9H41.1l-3.3,17.4c-0.1,0.7-0.7,1.2-1.4,1.2H21.1V121.9z"/>
	<path id="path3494" class="st1" d="M123.2,103.2c-0.4,0-0.8-0.2-1.1-0.5s-0.4-0.8-0.3-1.2l5.8-31c0.5-3,0.4-5-0.4-5.9
		c-0.4-0.5-2-1.4-6.4-1.4h-10.6l-7.4,39c-0.1,0.7-0.7,1.2-1.3,1.2H86.9c-0.4,0-0.8-0.2-1.1-0.5c-0.3-0.4-0.4-0.8-0.3-1.2l13.2-70.1
		c0.1-0.7,0.7-1.2,1.3-1.2h14.7c0.4,0,0.8,0.2,1.1,0.5s0.4,0.8,0.3,1.2L112.9,49h11.4c8.7,0,14.6,1.6,18.1,4.9
		c3.5,3.3,4.6,8.6,3.2,15.7l-6.1,32.5c-0.1,0.7-0.7,1.2-1.3,1.2L123.2,103.2L123.2,103.2z"/>
	<path id="path3502" class="st1" d="M172.8,89.3c5.9,0,10.3-1.1,13.1-3.1c2.8-2.1,4.7-5.7,5.7-10.8c0.9-4.7,0.5-8-1.1-9.8
		c-1.7-1.8-5.3-2.7-10.8-2.7h-9.5L165,89.3H172.8z M141.8,121.9c-0.4,0-0.9-0.2-1.2-0.5c-0.3-0.4-0.4-0.8-0.3-1.2l13.9-70.1
		c0.2-0.7,0.7-1.2,1.4-1.2h30c9.4,0,16.5,2.5,20.9,7.5s5.8,12,4,20.7c-0.7,3.6-1.9,6.8-3.6,9.8c-1.7,3-4,5.7-6.7,8.2
		c-3.2,3-6.9,5.1-11,6.4c-4,1.3-9,1.9-15,1.9h-12.1l-3.5,17.4c-0.2,0.7-0.7,1.2-1.4,1.2h-15.4V121.9z"/>
</g>
</svg>
