<?xml version="1.0" encoding="utf-8"?>
<!-- Generator: Adobe Illustrator 24.0.2, SVG Export Plug-In . SVG Version: 6.00 Build 0)  -->
<svg version="1.1" id="Capa_1" xmlns="http://www.w3.org/2000/svg" xmlns:xlink="http://www.w3.org/1999/xlink" x="0px" y="0px"
	 viewBox="0 0 566.9 141.7" style="enable-background:new 0 0 566.9 141.7;" xml:space="preserve">
<style type="text/css">
	.st0{fill:#002E3B;}
	.st1{fill:#FFFFFF;}
	.st2{font-family:'Quicksand-Medium';}
	.st3{font-size:75px;}
	.st4{letter-spacing:3;}
	.st5{fill:#00C391;}
	.st6{fill-rule:evenodd;clip-rule:evenodd;fill:url(#SVGID_1_);}
	.st7{fill-rule:evenodd;clip-rule:evenodd;fill:url(#SVGID_2_);}
	.st8{fill-rule:evenodd;clip-rule:evenodd;fill:url(#SVGID_3_);}
	.st9{fill-rule:evenodd;clip-rule:evenodd;fill:url(#SVGID_4_);}
	.st10{fill-rule:evenodd;clip-rule:evenodd;fill:#EAADCC;}
	.st11{fill-rule:evenodd;clip-rule:evenodd;}
	.st12{fill-rule:evenodd;clip-rule:evenodd;fill:#FFFFFF;}
	.st13{fill:#ECB732;}
	.st14{fill:#FFC73B;}
</style>
<rect y="0.2" class="st0" width="566.9" height="141.7"/>
<g>
	<text transform="matrix(1 0 0 1 129.05 96.4221)" class="st1 st2 st3 st4">PINIA</text>
	<text transform="matrix(1 0 0 1 335.95 96.4221)" class="st5 st2 st3 st4">JS</text>
</g>
<g transform="translate(-34 -24)">
	<g transform="matrix(.99254615 .12186934 -.12186934 .99254615 33.922073 .976691)">
		
			<linearGradient id="SVGID_1_" gradientUnits="userSpaceOnUse" x1="49.8579" y1="485.5815" x2="49.831" y2="485.4894" gradientTransform="matrix(64.5944 -98.5607 -148.3341 -128.3015 68855.5625 67266.3438)">
			<stop  offset="0" style="stop-color:#52CE63"/>
			<stop  offset="1" style="stop-color:#51A256"/>
		</linearGradient>
		<path class="st6" d="M72.7,84.1c6.1-7.4,3-15.2-4.5-24.3s-20.4-11-22.5-8.5s-0.6,18.5,6.8,27.6S66.6,91.5,72.7,84.1L72.7,84.1z"/>
		
			<linearGradient id="SVGID_2_" gradientUnits="userSpaceOnUse" x1="59.6233" y1="484.8898" x2="59.5963" y2="484.7978" gradientTransform="matrix(98.6102 64.6441 128.2947 -148.3396 -67979.3359 68131.1562)">
			<stop  offset="0" style="stop-color:#52CE63"/>
			<stop  offset="1" style="stop-color:#51A256"/>
		</linearGradient>
		<path class="st7" d="M78.7,84.3c6.1,7.4,12.5,3.6,20-5.4c7.5-9,9-24.9,7-27.4c-2.1-2.5-15.2-0.8-22.6,8.3
			C75.7,68.9,72.7,76.9,78.7,84.3L78.7,84.3z"/>
		
			<linearGradient id="SVGID_3_" gradientUnits="userSpaceOnUse" x1="54.8671" y1="484.3521" x2="54.8671" y2="484.2259" gradientTransform="matrix(102.2323 -26.3236 -12.5523 -214.39 545.7703 105318.7109)">
			<stop  offset="0" style="stop-color:#8AE99C"/>
			<stop  offset="1" style="stop-color:#52CE63"/>
		</linearGradient>
		<path class="st8" d="M75.4,80.2c8.6,0,10.9-8.2,10.9-21c0-12.8-8-25.4-10.9-25.4S64.2,46.4,64.2,59.2C64.2,72,66.8,80.2,75.4,80.2
			z"/>
	</g>
	
		<linearGradient id="SVGID_4_" gradientUnits="userSpaceOnUse" x1="36.4357" y1="489.324" x2="36.4211" y2="489.1467" gradientTransform="matrix(301 0 0 -333 -10868 163032)">
		<stop  offset="0" style="stop-color:#FFE56C"/>
		<stop  offset="1" style="stop-color:#FFC63A"/>
	</linearGradient>
	<path class="st9" d="M96.9,146c17.8,0,32.3-5.2,32.3-28.7s-14.5-42.8-32.3-42.8s-32.3,19.3-32.3,42.8S79,146,96.9,146z"/>
	<ellipse class="st10" cx="113.2" cy="110.4" rx="4.6" ry="2.1"/>
	<ellipse transform="matrix(0.1219 -0.9925 0.9925 0.1219 -38.6218 174.408)" class="st10" cx="79.3" cy="109" rx="2.1" ry="4.6"/>
	<g transform="matrix(-.99939083 .0348995 .0348995 .99939083 269.284825 271.027667)">
		<path d="M167.8-165.3c0.3,0,0.6,0,0.9-0.1c2-0.3,3.5-1.2,4.4-2.7c0.2-0.3,0.1-0.7-0.2-0.9s-0.7-0.1-0.9,0.2
			c-0.7,1.2-1.9,1.9-3.5,2.1c-1.6,0.2-3.1-0.1-4.4-1.1c-0.3-0.2-0.7-0.2-0.9,0.1s-0.2,0.7,0.1,0.9
			C164.7-165.7,166.2-165.3,167.8-165.3z"/>
		<path class="st11" d="M181.2-179c-1.3,0-2.4,0.5-3.3,1.4c-0.8,0.8-1.4,2-1.4,3.3s0.5,2.4,1.4,3.3c0.8,0.8,2,1.4,3.3,1.4
			s2.4-0.5,3.3-1.4c0.8-0.8,1.4-2,1.4-3.3s-0.5-2.4-1.4-3.3S182.5-179,181.2-179z"/>
		<path class="st12" d="M181.1-175.2c0-0.8,0.7-1.5,1.5-1.5s1.5,0.7,1.5,1.5s-0.7,1.5-1.5,1.5S181.1-174.3,181.1-175.2z"/>
		<path class="st11" d="M153.3-176.9c-1.3,0-2.4,0.5-3.3,1.4c-0.8,0.8-1.4,2-1.4,3.3s0.5,2.4,1.4,3.3c0.8,0.8,2,1.4,3.3,1.4
			s2.4-0.5,3.3-1.4c0.8-0.8,1.4-2,1.4-3.3s-0.5-2.4-1.4-3.3C155.7-176.4,154.6-176.9,153.3-176.9z"/>
		<g>
			<g>
				<path class="st1" d="M177.2-174.4c0,2.2,1.8,4,4,4s4-1.8,4-4s-1.8-4-4-4S177.2-176.6,177.2-174.4z M175.9-174.4
					c0-2.9,2.4-5.3,5.3-5.3c2.9,0,5.3,2.4,5.3,5.3c0,2.9-2.4,5.3-5.3,5.3C178.3-169.2,175.9-171.5,175.9-174.4z"/>
				<path class="st1" d="M181.4-168.8c1.4,0,2.7-0.6,3.7-1.6c1.1-1.1,1.6-2.5,1.6-3.9s-0.6-2.9-1.6-3.9c-1.1-1.1-2.5-1.6-3.9-1.6
					c-3.1,0-5.6,2.5-5.6,5.6l0,0c0,1.5,0.6,2.9,1.6,3.9c1.1,1.1,2.5,1.6,3.9,1.6C181.3-168.8,181.3-168.8,181.4-168.8z M181-179.4
					c0.1,0,0.1,0,0.2,0c1.3,0,2.6,0.5,3.5,1.4s1.4,2.2,1.4,3.5s-0.5,2.6-1.4,3.5s-2.2,1.4-3.5,1.4s-2.6-0.5-3.5-1.4
					c-0.9-0.9-1.4-2.2-1.4-3.5l0,0C176.3-177.1,178.4-179.3,181-179.4z M181.4-170.1c2.3-0.1,4.1-2,4.1-4.3c0-1.1-0.4-2.2-1.3-3
					c-0.8-0.8-1.9-1.3-3-1.3c-2.4,0-4.3,1.9-4.3,4.3c0,2.4,1.9,4.3,4.3,4.3C181.3-170.1,181.3-170.1,181.4-170.1z M181.1-178.1h0.1
					c1,0,1.9,0.4,2.6,1.1c0.7,0.7,1.1,1.6,1.1,2.6c0,2-1.6,3.7-3.7,3.7c-2,0-3.7-1.6-3.7-3.7C177.6-176.4,179.1-178,181.1-178.1z"/>
			</g>
			<g>
				<path class="st1" d="M149.3-172.3c0,2.2,1.8,4,4,4s4-1.8,4-4s-1.8-4-4-4S149.3-174.5,149.3-172.3z M148-172.3
					c0-2.9,2.4-5.3,5.3-5.3c2.9,0,5.3,2.4,5.3,5.3c0,2.9-2.4,5.3-5.3,5.3S148-169.4,148-172.3z"/>
				<path class="st1" d="M153.5-166.7c1.4,0,2.7-0.6,3.7-1.6c1.1-1.1,1.6-2.5,1.6-3.9c0-3.1-2.5-5.6-5.6-5.6c-3.1,0-5.6,2.5-5.6,5.6
					l0,0c0,1.5,0.6,2.9,1.6,3.9s2.5,1.6,3.9,1.6C153.4-166.7,153.4-166.7,153.5-166.7z M153.1-177.2c0.1,0,0.1,0,0.2,0
					c2.7,0,4.9,2.2,4.9,4.9c0,1.3-0.5,2.6-1.4,3.5s-2.2,1.4-3.5,1.4c-2.7,0-4.9-2.2-4.9-4.9C148.4-174.9,150.5-177.1,153.1-177.2z
					 M153.4-168c2.3-0.1,4.1-2,4.1-4.3c0-1.1-0.4-2.2-1.3-3c-0.8-0.8-1.9-1.3-3-1.3c-2.4,0-4.3,1.9-4.3,4.3c0,2.4,1.9,4.3,4.3,4.3
					C153.3-168,153.4-168,153.4-168z M153.2-175.9h0.1c1,0,1.9,0.4,2.6,1.1c0.7,0.7,1.1,1.6,1.1,2.6c0,2-1.6,3.6-3.7,3.7
					c-2,0-3.7-1.6-3.7-3.7C149.6-174.2,151.2-175.9,153.2-175.9z"/>
			</g>
			<path class="st12" d="M153.2-173c0-0.8,0.7-1.5,1.5-1.5s1.5,0.7,1.5,1.5s-0.7,1.5-1.5,1.5S153.2-172.2,153.2-173z"/>
		</g>
	</g>
	<g>
		<g>
			<path class="st13" d="M88.3,137.2c-0.3,0-0.6-0.1-0.9-0.4l-15.9-16.5c-0.5-0.5-0.4-1.2,0-1.7c0.5-0.5,1.2-0.4,1.7,0l15.9,16.5
				c0.5,0.5,0.4,1.2,0,1.7C88.9,137.1,88.6,137.2,88.3,137.2z"/>
			<path class="st13" d="M76,133.3c-0.3,0-0.6-0.1-0.8-0.3c-0.5-0.4-0.5-1.2-0.1-1.7l10.1-10.7c0.4-0.5,1.2-0.5,1.7-0.1
				s0.5,1.2,0.1,1.7L76.9,133C76.7,133.2,76.4,133.3,76,133.3z"/>
		</g>
		<g transform="matrix(-1 0 0 1 298 377)">
			<path class="st13" d="M192.8-239.8c0.3,0,0.6-0.1,0.8-0.3c0.5-0.5,0.5-1.2,0-1.7l-15.9-16.5c-0.5-0.5-1.2-0.5-1.7,0
				s-0.5,1.2,0,1.7l15.9,16.5C192.1-239.9,192.4-239.8,192.8-239.8z"/>
			<path class="st13" d="M180.5-243.7c0.3,0,0.6-0.1,0.9-0.4l10.1-10.7c0.4-0.5,0.4-1.2-0.1-1.7c-0.5-0.4-1.2-0.4-1.7,0.1
				l-10.1,10.7c-0.4,0.5-0.4,1.2,0.1,1.7C179.9-243.8,180.2-243.7,180.5-243.7z"/>
		</g>
		<g transform="matrix(0 1 -1 0 215 207)">
			<path class="st14" d="M-112.3,122.2c0,0.3-0.1,0.6-0.3,0.8c-0.5,0.5-1.2,0.5-1.7,0l-10.5-10.5c-0.5-0.5-0.5-1.2,0-1.7
				s1.2-0.5,1.7,0l10.5,10.5C-112.4,121.6-112.3,121.9-112.3,122.2z"/>
			<path class="st14" d="M-112.3,113.8c0,0.3-0.1,0.6-0.3,0.8l-10.5,10.5c-0.5,0.5-1.2,0.5-1.7,0s-0.5-1.2,0-1.7l10.5-10.5
				c0.5-0.5,1.2-0.5,1.7,0C-112.4,113.2-112.3,113.5-112.3,113.8z"/>
		</g>
	</g>
</g>
</svg>
