<?xml version="1.0" encoding="utf-8"?>
<!-- Generator: Adobe Illustrator 24.0.2, SVG Export Plug-In . SVG Version: 6.00 Build 0)  -->
<svg version="1.1" id="Capa_1" xmlns="http://www.w3.org/2000/svg" xmlns:xlink="http://www.w3.org/1999/xlink" x="0px" y="0px"
	 viewBox="0 0 566.9 141.7" style="enable-background:new 0 0 566.9 141.7;" xml:space="preserve">
<style type="text/css">
	.st0{fill:#222222;}
	.st1{fill:#00D8FF;}
	.st2{fill-rule:evenodd;clip-rule:evenodd;fill:#00D8FF;}
</style>
<rect y="0" class="st0" width="566.9" height="141.7"/>
<g>
	<g>
		<path class="st1" d="M77.2,60.5c-5.7,0-10.2,4.6-10.2,10.2c0,5.7,4.6,10.2,10.2,10.2c5.7,0,10.2-4.6,10.2-10.2
			C87.4,65.1,82.8,60.5,77.2,60.5z"/>
		<path class="st1" d="M114.1,52.9c-1.2-0.4-2.4-0.8-3.7-1.2c0.2-0.8,0.4-1.7,0.6-2.5c2.8-13.8,0.8-24.6-5.3-28.1
			c-5.9-3.4-15.5-0.1-25.6,8.7c-1,0.8-1.9,1.7-2.9,2.6c-0.6-0.6-1.3-1.2-1.9-1.8c-10.5-9.4-20.9-13-27-9.5
			c-5.9,3.4-7.8,13.3-5.2,26.6c0.2,1.2,0.5,2.5,0.9,3.8c-1.5,0.4-2.9,0.9-4.2,1.3c-12.5,4.3-19.9,11-19.9,17.7c0,7,8,14.1,21,18.6
			c1,0.3,2,0.7,3.1,1c-0.3,1.4-0.6,2.8-0.9,4.1c-2.5,13-0.4,22.7,5.4,26.1c1.6,0.9,3.4,1.4,5.5,1.4c5.9,0,13.4-3.6,21-10.2
			c0.8-0.7,1.6-1.4,2.4-2.2c1,1,2.1,1.9,3.1,2.8c7.3,6.3,14.4,9.7,19.9,9.7c2,0,3.8-0.4,5.4-1.3c6.1-3.5,8.2-14,5.6-27.4
			c-0.2-1-0.4-2-0.7-3.1c0.7-0.2,1.5-0.4,2.2-0.6c13.4-4.4,21.7-11.6,21.7-18.6C134.5,64,126.9,57.3,114.1,52.9z M103.3,25.4
			c3.3,1.9,5.6,9.9,2.9,22.9c-0.2,0.7-0.4,1.5-0.5,2.3c-4.8-1.1-9.9-1.9-15.3-2.4c-3.2-4.5-6.4-8.6-9.7-12.1
			c0.9-0.8,1.8-1.7,2.6-2.4C92.7,25.5,100.2,23.7,103.3,25.4z M93.2,80.1c-1.8,3.1-3.6,6.1-5.5,8.9c-3.4,0.2-6.9,0.4-10.5,0.4
			s-7-0.1-10.4-0.3c-2-2.9-3.9-5.8-5.6-8.9l0,0c-1.8-3.1-3.4-6.1-4.9-9.2c1.5-3.1,3.1-6.2,4.9-9.2c1.8-3.1,3.6-6,5.6-8.8
			c3.4-0.3,6.9-0.4,10.4-0.4s7,0.1,10.4,0.4c1.9,2.8,3.8,5.7,5.5,8.8c1.8,3.1,3.4,6.2,4.9,9.2C96.6,73.9,95,77,93.2,80.1z
			 M100.7,76.5c1.5,3.5,2.8,6.9,3.9,10.1c-3.3,0.8-6.9,1.4-10.7,1.8c1.2-1.9,2.4-3.8,3.5-5.8C98.6,80.5,99.7,78.5,100.7,76.5z
			 M77.4,102.3c-2.3-2.5-4.6-5.3-6.9-8.3c2.2,0.1,4.4,0.1,6.7,0.1c2.3,0,4.6-0.1,6.9-0.2C81.9,97.1,79.6,99.9,77.4,102.3z
			 M60.6,88.5c-3.8-0.4-7.3-1-10.6-1.7c1-3.3,2.3-6.7,3.7-10.1c1,2,2.1,4,3.2,5.9C58.1,84.6,59.3,86.5,60.6,88.5z M53.7,65.1
			c-1.4-3.4-2.7-6.7-3.6-9.9c3.3-0.7,6.8-1.3,10.4-1.8c-1.2,1.9-2.4,3.8-3.5,5.7l0,0C55.8,61.2,54.7,63.1,53.7,65.1z M77.2,39.5
			c2.3,2.4,4.5,5.2,6.7,8.2c-2.2-0.1-4.5-0.2-6.8-0.2l0,0c-2.3,0-4.5,0.1-6.7,0.2C72.6,44.8,74.9,42,77.2,39.5z M97.4,59.2
			c-1.1-2-2.3-3.9-3.5-5.7c3.6,0.5,7.2,1.1,10.5,1.8c-1,3.2-2.2,6.5-3.7,9.9C99.6,63.2,98.5,61.2,97.4,59.2z M47.9,47
			c-2.4-12.2-0.2-19.6,2.9-21.4c0.7-0.4,1.7-0.7,2.9-0.7c4.1,0,10.7,2.7,18.3,9.5c0.6,0.5,1.1,1.1,1.7,1.6
			c-3.3,3.6-6.6,7.7-9.7,12.1c-5.4,0.5-10.5,1.3-15.3,2.4C48.4,49.3,48.2,48.1,47.9,47z M42.4,84.7c-12.1-4.1-17.6-10.1-17.6-13.9
			c0-3.6,5.1-9.1,16.6-13.1c1.3-0.4,2.6-0.8,4-1.2C46.8,61.2,48.7,66,51,71c-2.3,5-4.2,9.9-5.7,14.7C44.3,85.3,43.3,85,42.4,84.7z
			 M71.8,107.9c-9.6,8.4-17.6,10.2-20.9,8.3c-3.2-1.8-5.3-9-3.1-20.9c0.2-1.2,0.5-2.5,0.8-3.8c4.7,1,9.9,1.8,15.5,2.2
			c3.2,4.5,6.5,8.6,9.8,12.2C73.2,106.6,72.5,107.3,71.8,107.9z M106.5,94c2.5,12.6,0.1,20.3-3.2,22.2c-3.2,1.8-10.5,0.1-19.7-7.8
			c-1-0.8-1.9-1.7-2.9-2.6c3.2-3.5,6.4-7.6,9.6-12.2c5.5-0.5,10.8-1.3,15.5-2.4C106.1,92.2,106.4,93.1,106.5,94z M111.2,84.7
			c-0.6,0.2-1.3,0.4-1.9,0.6c-1.4-4.6-3.4-9.4-5.8-14.5c2.3-4.9,4.2-9.8,5.6-14.3c1.2,0.3,2.3,0.7,3.4,1.1
			c11.7,4,17.1,9.7,17.1,13.2C129.6,74.6,123.8,80.5,111.2,84.7z"/>
	</g>
	<path class="st2" d="M190.8,96.9l-12.5-19c6.3-0.6,12.1-5.2,12.1-13.5c0-8.5-6.1-14-14.6-14h-18.7v46.5h5.8V78.4h9.3L184,96.9
		H190.8z M175,73.4h-12.2V55.6H175c5.5,0,9.3,3.6,9.3,8.9S180.5,73.4,175,73.4L175,73.4z M212.3,97.8c5.5,0,10-1.8,13.4-5.2
		l-2.5-3.4c-2.7,2.7-6.6,4.3-10.4,4.3c-7.2,0-11.7-5.3-12.1-11.6h27.2v-1.3c0-10.1-6-18-16.2-18c-9.6,0-16.6,7.9-16.6,17.6
		C195.2,90.6,202.4,97.7,212.3,97.8L212.3,97.8z M222.8,78h-22.1c0.3-5.2,3.8-11.2,11-11.2C219.4,66.7,222.7,72.9,222.8,78z
		 M262.6,96.9V73.8c0-8.2-5.9-11.4-13-11.4c-5.5,0-9.8,1.8-13.4,5.6l2.4,3.6c3-3.2,6.3-4.7,10.3-4.7c4.9,0,8.5,2.6,8.5,7.1v6.1
		c-2.7-3.1-6.6-4.6-11.2-4.6c-5.7,0-11.8,3.6-11.8,11.1c0,7.3,6.1,11.2,11.8,11.2c4.5,0,8.4-1.6,11.2-4.7v3.8H262.6z M248.2,94
		c-4.9,0-8.3-3.1-8.3-7.3c0-4.3,3.4-7.4,8.3-7.4c3.7,0,7.2,1.4,9.3,4.2v6.3C255.4,92.6,251.8,94,248.2,94L248.2,94z M287.9,97.8
		c6.1,0,9.8-2.5,12.3-5.9l-3.5-3.2c-2.2,3-5.1,4.4-8.5,4.4c-7.2,0-11.6-5.6-11.6-13c0-7.5,4.5-13,11.6-13c3.5,0,6.3,1.3,8.5,4.4
		l3.5-3.2c-2.6-3.3-6.2-5.9-12.3-5.9c-10,0-16.8,7.7-16.8,17.6C271.1,90.1,277.9,97.7,287.9,97.8L287.9,97.8z M316.1,97.8
		c3.1,0,4.9-0.9,6.3-2.2l-1.5-3.9c-0.7,0.8-2.1,1.4-3.6,1.4c-2.3,0-3.4-1.8-3.4-4.3V67.9h6.8v-4.6h-6.8v-9.2h-5.2v9.2H303v4.6h5.6
		v22C308.6,94.9,311.1,97.8,316.1,97.8L316.1,97.8z"/>
</g>
</svg>
