<?xml version="1.0" encoding="utf-8"?>
<!-- Generator: Adobe Illustrator 24.0.2, SVG Export Plug-In . SVG Version: 6.00 Build 0)  -->
<svg version="1.1" id="Capa_1" xmlns="http://www.w3.org/2000/svg" xmlns:xlink="http://www.w3.org/1999/xlink" x="0px" y="0px"
	 viewBox="0 0 566.9 141.7" style="enable-background:new 0 0 566.9 141.7;" xml:space="preserve">
<style type="text/css">
	.st0{fill:#CE689A;}
	.st1{fill:#FFFFFF;}
</style>
<rect y="0" class="st0" width="566.9" height="141.7"/>
<path class="st1" d="M136.7,78.5c-4.7,0-8.9,1.2-12.3,2.8c-1.2-2.5-2.5-4.7-2.7-6.3c-0.2-1.9-0.5-3.1-0.2-5.3
	c0.2-2.2,1.7-5.5,1.7-5.7c0-0.2-0.2-1.3-3-1.4c-2.7,0-5.1,0.5-5.3,1.2c-0.2,0.7-0.8,2.3-1.2,4c-0.4,2.5-5.4,11.4-8.3,15.9
	c-0.9-1.8-1.7-3.3-1.9-4.7c-0.2-1.9-0.5-3.1-0.2-5.3c0.2-2.2,1.7-5.5,1.7-5.7s-0.2-1.3-3-1.4c-2.7,0-5.1,0.5-5.3,1.2
	c-0.2,0.7-0.6,2.4-1.1,4c-0.6,1.7-7.3,16.4-9,20.3c-0.8,2-1.7,3.5-2.2,4.5l0,0c0,0,0,0.1-0.1,0.2c-0.4,0.9-0.7,1.3-0.7,1.3l0,0
	c-0.3,0.7-0.7,1.2-0.9,1.2c-0.2,0-0.4-1.8,0.1-4.2c1-5.2,3.3-13.1,3.3-13.4c0-0.2,0.4-1.6-1.6-2.2c-1.9-0.7-2.7,0.4-2.8,0.4
	c-0.2,0-0.2,0.4-0.2,0.4s2.2-9-4.1-9c-3.9,0-9.3,4.2-12,8.3c-1.7,0.9-5.2,2.8-9.2,5c-1.4,0.8-3,1.7-4.3,2.4
	c-0.1-0.1-0.2-0.2-0.2-0.3c-7.8-8-21.9-13.6-21.3-24.6c-0.3-4.2,1-14.7,26.5-27.4c20.8-10.3,37.5-7.4,40.5-1.1
	c4.1,9.1-8.9,25.9-30.5,28.3c-8.3,0.9-12.6-2.2-13.6-3.4c-1.1-1.2-1.2-1.2-1.7-1c-0.7,0.3-0.2,1.4,0,2.2c0.6,1.7,3.2,4.7,7.8,6.1
	c3.9,1.2,13.6,2,25.4-2.5c12.9-5.2,23.2-19.2,20.2-31c-3-12-22.9-15.9-41.7-9.3c-11.3,4-23.4,10.3-32,18.4
	c-10.4,9.7-12,18.1-11.3,21.7C22.4,75.6,39.6,83.9,46.6,90c-0.3,0.2-0.7,0.3-0.9,0.5c-3.4,1.7-16.6,8.7-19.8,15.8
	c-3.7,8.3,0.6,14.2,3.4,14.9c8.9,2.5,18-2,22.9-9.3s4.2-16.8,2.1-21.2c0-0.1-0.1-0.1-0.1-0.2c0.8-0.5,1.8-1,2.7-1.6
	c1.7-1,3.5-2,5-2.8c-0.8,2.3-1.4,5.1-1.7,9.1c-0.3,4.7,1.6,10.7,4,13.1c1.1,1,2.4,1,3.2,1c2.9,0,4.2-2.4,5.7-5.3
	c1.8-3.5,3.3-7.6,3.3-7.6s-2,11.1,3.4,11.1c2,0,3.9-2.6,4.9-3.8l0,0c0,0,0.1-0.1,0.2-0.2c0.2-0.3,0.3-0.5,0.3-0.5s0,0,0-0.1
	c0.7-1.3,2.6-4.5,5.2-9.8c3.4-6.7,6.7-15.2,6.7-15.2s0.2,2.1,1.2,5.5c0.6,2,1.8,4.2,2.8,6.3c-0.7,1.1-1.2,1.7-1.2,1.7l0,0
	c-0.6,0.8-1.3,1.7-2.1,2.7c-2.7,3.2-5.9,6.8-6.3,8.1c-0.5,1.2-0.4,2.2,0.6,2.9c0.7,0.5,2,0.6,3.3,0.5c2.4-0.2,4.1-0.7,5-1.1
	c1.2-0.4,2.8-1.2,4.2-2.2c2.7-2,4.2-4.7,4.1-8.5c-0.1-2.1-0.7-4-1.6-5.9c0.2-0.3,0.4-0.7,0.7-1c4.2-6.1,7.4-12.8,7.4-12.8
	s0.2,2.1,1.2,5.5c0.5,1.7,1.6,3.6,2.4,5.4c-3.9,3.2-6.3,6.8-7.3,9.4c-1.6,4.4-0.3,6.5,2,7.1c1,0.2,2.5-0.2,3.6-0.7
	c1.3-0.4,3-1.2,4.5-2.3c2.7-2,5.2-4.7,5.1-8.4c-0.1-1.7-0.5-3.3-1.1-5c3.3-1.3,7.7-2.2,13.2-1.6c11.8,1.3,14.2,8.8,13.7,11.9
	s-2.9,4.8-3.7,5.3s-1.1,0.7-1,1c0.1,0.5,0.5,0.5,1.2,0.4c0.9-0.2,6.2-2.5,6.4-8.3C156,86.2,149,78.4,136.7,78.5z M45.4,109.2
	c-3.9,4.2-9.4,5.8-11.8,4.4c-2.5-1.4-1.6-7.8,3.2-12.3c2.9-2.7,6.7-5.3,9.3-6.8c0.6-0.3,1.3-0.8,2.4-1.4c0.2-0.1,0.2-0.2,0.2-0.2
	l0,0c0.2-0.1,0.4-0.2,0.6-0.3C51.3,99,49.6,104.7,45.4,109.2z M74,89.7c-1.3,3.3-4.2,11.8-5.9,11.4c-1.4-0.4-2.4-6.7-0.2-13.2
	c1-3.2,3.3-7.1,4.7-8.6c2.2-2.4,4.4-3.2,5.1-2.2C78.2,78.5,74.9,87.7,74,89.7z M97.6,101c-0.6,0.2-1.1,0.5-1.3,0.3
	c-0.2-0.1,0.2-0.5,0.2-0.5s2.9-3.2,4.1-4.7c0.7-0.8,1.4-1.8,2.3-2.9c0,0.1,0,0.2,0,0.3C102.9,97.4,99.2,100,97.6,101z M115.8,96.9
	c-0.4-0.2-0.3-1.2,1-4.3c0.5-1.2,1.8-3.2,4-5.2c0.2,0.7,0.4,1.6,0.4,2.2C121.3,94.3,117.8,96.2,115.8,96.9z"/>
</svg>
