<?xml version="1.0" encoding="utf-8"?>
<!-- Generator: Adobe Illustrator 24.0.2, SVG Export Plug-In . SVG Version: 6.00 Build 0)  -->
<svg version="1.1" id="Capa_1" xmlns="http://www.w3.org/2000/svg" xmlns:xlink="http://www.w3.org/1999/xlink" x="0px" y="0px"
	 viewBox="0 0 566.9 141.7" style="enable-background:new 0 0 566.9 141.7;" xml:space="preserve">
<style type="text/css">
	.st0{fill:#4B4B4B;}
	.st1{fill:#FFFFFF;}
	.st2{fill:url(#SVGID_1_);}
	.st3{fill:#FF9800;}
</style>
<rect class="st0" width="566.9" height="141.7"/>
<g>
	<g>
		<g>
			<path class="st1" d="M95.1,92V80.7h5.4l1.2,5.7c0.1,0.4,0.2,0.7,0.3,0.9c0.2,0.2,0.4,0.3,0.8,0.5c2.2,0.6,4.3,0.9,6.3,0.9
				c0.1,0,0.2,0,0.2,0c6.3,0,9.5-2.4,9.5-7.1c0-1.2-0.2-2.3-0.7-3.2c-0.5-0.9-1.2-1.6-2.2-2.3s-1.9-1.1-2.8-1.4
				c-0.9-0.3-2.1-0.7-3.6-1.2c-4.2-1.2-7-2.3-8.5-3.3c-3.3-2.2-4.9-5.5-4.9-10c0-4.4,1.6-7.8,4.6-10.1s7-3.4,11.9-3.4
				c4.2,0,8.3,0.8,12.3,2.3v11.5l-5.4-0.5l-0.9-5.3c-0.2-0.6-0.3-1-0.6-1.2c-1.2-0.7-3-1-5.6-1c-2.9,0-5,0.6-6.4,1.8
				c-1.5,1.2-2.3,2.8-2.3,4.9c0,0.9,0.2,1.8,0.5,2.6s0.8,1.4,1.2,1.9c0.5,0.5,1.2,0.9,2.2,1.4c1,0.5,1.8,0.8,2.5,1
				c0.7,0.2,1.6,0.5,3,0.9c1.7,0.5,3,0.9,3.9,1.2c0.9,0.3,2,0.9,3.4,1.6c1.4,0.8,2.5,1.6,3.2,2.4c0.7,0.9,1.4,2,1.9,3.4
				c0.5,1.5,0.9,3.1,0.9,4.9c0,4.7-1.6,8.2-4.8,10.5c-3.2,2.3-7.4,3.4-12.4,3.4c-2.6,0-5.4-0.2-8-0.8C98.3,93.2,96.3,92.6,95.1,92z"
				/>
			<path class="st1" d="M129.1,65l0.6-4.1h11v21.3c0,2.3,0.3,4,0.9,5c0.5,1,1.7,1.6,3.4,1.6c3,0,6-1.5,8.9-4.4V67.1
				c0-0.5-0.1-0.9-0.2-1c-0.1-0.2-0.4-0.3-0.9-0.4l-3-0.8l0.5-4.1h10.9V88c0,0.8,0.2,1.2,0.8,1.2l3.3,0.5v4h-10.1l-0.5-3.9l-0.2-0.1
				c-4,3.2-7.9,4.7-11.9,4.7c-3.3,0-5.7-0.9-7.1-2.6c-1.4-1.7-2.1-4.5-2.1-8.2V67.1c0-0.5-0.1-0.9-0.2-1c-0.1-0.2-0.4-0.3-0.9-0.4
				L129.1,65L129.1,65z"/>
			<path class="st1" d="M166,49.7l0.6-4h11.1v17.9c3.6-2.3,7.1-3.4,10.4-3.4h0.1c3.7,0,6.7,1.3,8.9,3.9c2.2,2.6,3.3,6.7,3.3,12.1
				c0,6.3-1.2,10.9-3.6,13.8s-5.7,4.4-9.9,4.4c-3.8,0-7-1.2-9.6-3.7h-0.2l-0.4,3h-7.1c0.5-3,0.8-6,0.8-8.9c0-0.1,0-0.2,0-0.3V52.2
				c0-0.7-0.2-1.2-0.8-1.3C169.7,50.9,166,49.7,166,49.7z M177.8,84.9c2.6,2.4,5.2,3.6,7.9,3.6c4.7,0,7.1-4,7.1-11.9
				c0-3.4-0.6-6-1.8-7.8c-1.2-1.8-2.8-2.7-4.9-2.7c-2.6,0-5.4,1-8.3,3.1L177.8,84.9L177.8,84.9z"/>
			<path class="st1" d="M202.8,93.7v-4l3.6-0.5c0.4-0.1,0.7-0.2,0.9-0.3c0.2-0.2,0.2-0.5,0.2-0.9V52.3c0-0.7-0.3-1.2-0.9-1.3
				l-3.6-1.2l0.6-4h11.1V88c0,0.5,0.1,0.9,0.2,1c0.1,0.2,0.4,0.2,0.9,0.3l3.6,0.5v4C219.4,93.7,202.8,93.7,202.8,93.7z"/>
			<path class="st1" d="M223,93.7v-4l3.8-0.5c0.4-0.1,0.7-0.2,0.9-0.3c0.2-0.2,0.2-0.5,0.2-0.9V67.5c0-0.7-0.3-1.2-0.9-1.3l-3.5-1.2
				l0.6-4h11V88c0,0.5,0.1,0.9,0.2,1c0.1,0.2,0.4,0.2,0.9,0.3l3.7,0.5v4C240,93.7,223,93.7,223,93.7z M226,49.8
				c0-1.5,0.4-2.6,1.2-3.4c0.9-0.8,2-1.2,3.6-1.2c1.5,0,2.6,0.4,3.5,1.2c0.9,0.8,1.2,1.9,1.2,3.4c0,1.6-0.4,2.7-1.2,3.5
				c-0.9,0.9-2,1.2-3.5,1.2c-1.6,0-2.7-0.4-3.6-1.2C226.4,52.5,226,51.3,226,49.8z"/>
			<path class="st1" d="M243.2,64.9l0.6-4h9.4l0.5,3.6l0.3,0.1c3.7-2.9,7.4-4.3,10.9-4.3c3.6,0,6.1,1.2,7.6,3.8
				c4-2.6,7.6-3.8,11.1-3.8c3.3,0,5.7,0.9,7.2,2.8c1.5,1.9,2.2,4.6,2.2,8.1V88c0,0.5,0.1,0.9,0.2,1c0.1,0.2,0.4,0.2,0.9,0.3l3.5,0.5
				v4h-16.2v-4l3.3-0.5c0.7-0.1,1-0.5,1-1.2V73c0-2.2-0.2-3.8-0.8-5c-0.5-1.2-1.6-1.7-3.2-1.7c-2.6,0-5.2,0.9-7.8,2.6
				c0.2,1,0.2,2.2,0.2,3.6V88c0,0.5,0.1,0.9,0.2,1c0.1,0.2,0.4,0.2,0.9,0.3l3,0.5v4h-15.8v-4l3.3-0.5c0.4-0.1,0.7-0.2,0.9-0.4
				c0.2-0.2,0.2-0.5,0.2-0.9V73.4c0-1.2,0-2-0.1-2.7s-0.2-1.4-0.5-2.2c-0.2-0.8-0.6-1.3-1.2-1.6c-0.5-0.4-1.3-0.5-2.2-0.5
				c-2.5,0-5.1,1.1-7.9,3.3V88c0,0.5,0.1,0.9,0.2,1c0.1,0.2,0.4,0.2,0.9,0.3l3.1,0.5v4h-15.5v-4l3-0.5c0.4-0.1,0.7-0.2,0.9-0.3
				c0.2-0.2,0.2-0.5,0.2-0.9V67.5c0-0.7-0.3-1.2-0.9-1.3C246.7,66.1,243.2,64.9,243.2,64.9z"/>
			<path class="st1" d="M299.9,77.1c0-5.5,1.4-9.7,4.2-12.6c2.8-2.9,6.4-4.3,10.8-4.3c9,0,13.5,5.1,13.5,15.3c0,1.2-0.1,2.5-0.2,3.7
				h-20.6c0.2,3.1,0.9,5.4,2.3,7.1c1.3,1.6,3.5,2.4,6.4,2.4c2.6,0,5.8-0.8,9.4-2.3l2,5.1c-3.9,2-8,3-12.2,3
				C305.1,94.5,299.9,88.7,299.9,77.1L299.9,77.1z M307.7,73.9H321c0-5.4-2.1-8.2-6.3-8.2c-1.9,0-3.6,0.7-4.9,2
				C308.6,69.1,307.9,71.2,307.7,73.9z"/>
		</g>
		<g>
			<path class="st1" d="M353.7,59.3V47.6H393v11.7h-5.3l-1-5.5c-0.1-0.5-0.4-0.7-1-0.7h-8.6v34.8c0,0.5,0.1,0.8,0.2,0.9
				c0.1,0.2,0.4,0.2,0.9,0.2l7,0.5v4.1H362v-4.1l6.5-0.5c0.4-0.1,0.7-0.2,0.9-0.3c0.2-0.2,0.2-0.5,0.2-1V53h-8.5
				c-0.6,0-0.9,0.2-1,0.7l-1,5.5L353.7,59.3L353.7,59.3z"/>
			<path class="st1" d="M392,77.1c0-5.5,1.4-9.7,4.2-12.6c2.8-2.9,6.4-4.3,10.8-4.3c9,0,13.5,5.1,13.5,15.3c0,1.2-0.1,2.5-0.2,3.7
				h-20.6c0.2,3.1,0.9,5.4,2.3,7.1c1.3,1.6,3.5,2.4,6.4,2.4c2.6,0,5.8-0.8,9.4-2.3l2,5.1c-3.9,2-8,3-12.2,3
				C397.3,94.5,392,88.7,392,77.1L392,77.1z M399.9,73.9h13.4c0-5.4-2.1-8.2-6.3-8.2c-1.9,0-3.6,0.7-4.9,2
				C400.8,69.1,400,71.2,399.9,73.9z"/>
			<path class="st1" d="M424.6,93.7v-4l3-0.5c0.7-0.2,1.3-0.5,1.9-1.2l8.7-10.5l-8.7-10.8c-0.5-0.5-1-0.9-1.6-1.1l-2.6-0.7l0.6-4.1
				h14.7v4.1l-3.6,0.5l5.9,7.5l6.4-7.5l-3.9-0.5l0.6-4.1h13v4.1l-2.8,0.6c-0.6,0.2-1.2,0.6-1.7,1.2l-8.2,9.7l9.2,11.5
				c0.6,0.7,1.2,1.1,1.7,1.1l3.2,0.6v4h-16.3v-4l3.6-0.6l-6.2-8.1L435,89l3.9,0.6v4C438.8,93.7,424.6,93.7,424.6,93.7z"/>
			<path class="st1" d="M463,65.2v-4.5c2.4-0.3,4.2-1.2,5.4-2.8s2-3,2.4-6h4.7v8.2c0,0.4,0.2,0.6,0.5,0.6h9.2V66h-9.8v17.3
				c0,2,0.3,3.4,1,4.2c0.7,0.8,1.9,1.2,3.6,1.2c1.6,0,3.5-0.4,5.5-1.1l1.5,4.6c-3.3,1.5-6.4,2.3-9.4,2.3c-3.3,0-5.7-0.8-7.2-2.3
				c-1.5-1.5-2.3-3.8-2.3-7V66.7c0-0.4-0.2-0.5-0.5-0.7C466.5,65.3,463,65.2,463,65.2z"/>
		</g>
	</g>
	<g>
		
			<linearGradient id="SVGID_1_" gradientUnits="userSpaceOnUse" x1="41.052" y1="-109.1051" x2="42.7731" y2="-109.1051" gradientTransform="matrix(1.842 -6.1592 5.2134 2.1309 531.6277 573.0967)">
			<stop  offset="0" style="stop-color:#FF9700"/>
			<stop  offset="0.53" style="stop-color:#F48E00"/>
			<stop  offset="1" style="stop-color:#D06F00"/>
		</linearGradient>
		<path class="st2" d="M58,72.6c0-0.5-0.4-0.9-0.9-0.7L21.9,83.1c-0.5,0.2-0.9,0.8-0.9,1.3v11.4c0,0.5,0.4,0.9,0.9,0.7l35.2-11.2
			c0.5-0.2,0.9-0.8,0.9-1.3V72.6z"/>
		<path class="st3" d="M21.1,72.2c0,0.5,0.4,1.2,0.9,1.3l35.2,11.2c0.5,0.2,0.9-0.2,0.9-0.7V72.6c0-0.5-0.4-1.2-0.9-1.3L22,60.1
			c-0.5-0.2-0.9,0.2-0.9,0.7C21.1,60.9,21.1,72.2,21.1,72.2z"/>
		<path class="st3" d="M58,49.1c0-0.5-0.4-0.9-0.9-0.7L21.9,59.6c-0.5,0.2-0.9,0.8-0.9,1.3v11.4c0,0.5,0.4,0.9,0.9,0.7l35.2-11.2
			c0.5-0.2,0.9-0.8,0.9-1.3V49.1z"/>
	</g>
</g>
</svg>
