<?xml version="1.0" encoding="utf-8"?>
<!-- Generator: Adobe Illustrator 24.0.2, SVG Export Plug-In . SVG Version: 6.00 Build 0)  -->
<svg version="1.1" id="Capa_1" xmlns="http://www.w3.org/2000/svg" xmlns:xlink="http://www.w3.org/1999/xlink" x="0px" y="0px"
	 viewBox="0 0 566.9 141.7" style="enable-background:new 0 0 566.9 141.7;" xml:space="preserve">
<style type="text/css">
	.st0{fill:#007ACC;}
	.st1{fill:#FFFFFF;}
	.st2{fill-rule:evenodd;clip-rule:evenodd;fill:#FFFFFF;filter:url(#Adobe_OpacityMaskFilter);}
	.st3{mask:url(#mask0_1_);}
	.st4{fill:#D9D9D9;}
	.st5{fill:#E6E6E6;}
	.st6{opacity:0.25;}
	.st7{opacity:0.25;fill-rule:evenodd;clip-rule:evenodd;fill:url(#SVGID_1_);enable-background:new    ;}
</style>
<rect y="0" class="st0" width="566.9" height="141.7"/>
<g>
	<g>
		<g>
			<path class="st1" d="M165.5,54.9h-3.2l-9.6,26c-0.2,0.6-0.5,1.2-0.5,1.7c-0.1,0.5-0.2,0.9-0.3,1.4c-0.1-0.5-0.4-1-0.4-1.6
				l-0.4-1.4l-9.2-26h-3.4l11.8,32.5h3L165.5,54.9z"/>
			<path class="st1" d="M172.5,57.9c0.3-0.1,0.5-0.2,0.7-0.4c0.2-0.2,0.4-0.4,0.5-0.6c0-0.3,0-0.6,0-0.8c0-0.3-0.1-0.6-0.2-0.8
				c-0.1-0.2-0.2-0.5-0.4-0.6c-0.2-0.2-0.4-0.3-0.7-0.4c-0.3,0-0.6,0-0.8,0c-0.5,0-1.1,0.2-1.4,0.6c-0.4,0.4-0.6,0.9-0.6,1.4
				c-0.1,0.6,0.1,1.1,0.5,1.6c0.4,0.4,0.9,0.6,1.4,0.6C171.9,58.3,172.2,58.2,172.5,57.9z"/>
			<rect x="170" y="64.2" class="st1" width="3.1" height="23.2"/>
			<path class="st1" d="M179.2,86.4c1.8,1,3.8,1.5,5.9,1.5c1.1,0,2.3-0.1,3.4-0.4c1-0.3,1.9-0.7,2.7-1.3c0.7-0.6,1.4-1.3,1.8-2.1
				c0.4-0.9,0.7-1.8,0.6-2.8c0-0.8-0.1-1.5-0.4-2.2c-0.3-0.7-0.7-1.3-1.2-1.7c-0.6-0.6-1.3-1.1-2-1.5l-2.9-1.3
				c-0.9-0.4-1.6-0.6-2.2-1c-0.5-0.3-1.1-0.6-1.5-1c-0.4-0.3-0.6-0.7-0.8-1.2c-0.2-0.5-0.3-1-0.3-1.5c0-0.5,0.1-1.1,0.4-1.6
				c0.3-0.4,0.6-0.8,1-1.2c0.5-0.3,1-0.6,1.6-0.8c0.6-0.2,1.3-0.3,2-0.3c2,0,4,0.6,5.6,1.7v-3.1c-1.6-0.8-3.4-1.2-5.3-1.1
				c-1.1,0-2.1,0.1-3.1,0.4c-0.9,0.3-1.8,0.7-2.6,1.3c-0.7,0.6-1.4,1.3-1.8,2.1c-0.5,0.8-0.7,1.8-0.7,2.7c0,0.7,0.1,1.5,0.4,2.2
				c0.3,0.7,0.6,1.3,1.1,1.8c0.6,0.6,1.2,1.1,1.9,1.5c0.9,0.5,1.8,1,2.8,1.3l2.1,1c0.6,0.2,1.1,0.5,1.6,0.9c0.4,0.3,0.8,0.7,1,1.2
				c0.2,0.5,0.4,1,0.4,1.5c0,2.6-1.7,3.9-5.2,3.9c-0.5,0.1-1,0.1-1.6,0c-0.6-0.1-1.1-0.2-1.7-0.4c-1.1-0.4-2.1-0.9-3-1.6L179.2,86.4
				z"/>
			<path class="st1" d="M217.5,87.4V64.2h-2.9v13.2c0,1.1-0.1,2.2-0.5,3.2c-0.3,0.9-0.8,1.8-1.4,2.5c-0.6,0.7-1.3,1.3-2.1,1.7
				c-0.9,0.4-1.8,0.6-2.7,0.6c-1.8,0.1-3.5-0.6-4.5-2c-1.1-1.8-1.7-4-1.5-6.2V64.1h-2.9v13.7c0,6.7,2.8,10.1,8.3,10.1
				c3.1,0.1,5.9-1.7,7.2-4.5v4H217.5z"/>
			<path class="st1" d="M239.4,66.1c-1.6-1.5-3.7-2.3-5.9-2.2c-0.7-0.1-1.4-0.1-2.1,0c-0.7,0.1-1.4,0.3-2.1,0.5
				c-0.7,0.2-1.3,0.4-1.9,0.7c-0.6,0.3-1.1,0.6-1.6,0.9v3.2c2-1.9,4.7-3,7.5-3c3.5,0,5.2,2.2,5.2,6.7l-7.2,1c-2.2,0.2-4.2,1-5.9,2.5
				c-1.3,1.3-2,3.1-1.9,5c0,0.9,0.2,1.8,0.5,2.7c0.3,0.8,0.8,1.5,1.5,2.1c0.7,0.6,1.4,1.1,2.3,1.4c1,0.3,2,0.5,3,0.5
				c1.6,0,3.1-0.4,4.4-1.2c1.3-0.9,2.4-2.1,3.1-3.6v4.1l3.2,0.4V72.6C241.6,70.3,240.9,67.9,239.4,66.1z M238.3,77.5
				c0,1.1-0.2,2.2-0.5,3.2c-0.3,0.9-0.8,1.8-1.5,2.5c-0.6,0.7-1.4,1.2-2.2,1.6c-0.9,0.4-1.9,0.6-2.8,0.6c-0.7,0-1.4-0.1-2-0.3
				c-0.6-0.2-1.1-0.5-1.5-0.9c-0.4-0.4-0.8-0.8-1-1.4c-0.2-0.6-0.3-1.1-0.3-1.7c0-0.7,0.1-1.4,0.4-2.1c0.2-0.6,0.6-1.1,1-1.4
				c0.6-0.4,1.2-0.7,1.8-0.9c0.9-0.3,1.8-0.4,2.7-0.6l6-0.8V77.5z"/>
			<rect x="248.1" y="53" class="st1" width="2.9" height="34.4"/>
		</g>
		<g>
			<path class="st1" d="M270.7,86.1c0.5,0.3,1.1,0.5,1.6,0.7c0.7,0.2,1.4,0.4,2.1,0.5c0.7,0.2,1.4,0.3,2.2,0.4c0.6,0,1.2,0,1.8,0
				c1.5,0,2.9-0.2,4.3-0.5c1.2-0.3,2.4-0.9,3.4-1.6c1-0.7,1.7-1.6,2.2-2.7c0.5-1.1,0.8-2.4,0.8-3.6c0-0.9-0.2-1.9-0.5-2.8
				c-0.3-0.9-0.9-1.7-1.5-2.4c-0.7-0.8-1.6-1.6-2.5-2.2c-1.2-0.8-2.4-1.5-3.6-2.1l-3.2-1.8c-0.8-0.5-1.5-1-2.2-1.6
				c-0.5-0.5-0.9-1.1-1.2-1.7c-0.3-0.7-0.4-1.5-0.4-2.2c0-0.8,0.2-1.6,0.5-2.3c0.4-0.7,0.9-1.2,1.5-1.7c0.7-0.5,1.5-0.8,2.3-1
				c0.9-0.3,1.8-0.4,2.7-0.4c2.4-0.1,4.7,0.5,6.8,1.7v-3.4c-2.1-0.7-4.2-1.1-6.4-1c-1.4-0.1-2.9,0-4.3,0.4c-1.2,0.4-2.3,0.9-3.3,1.7
				c-1,0.7-1.7,1.6-2.3,2.7c-0.6,1.1-0.9,2.3-0.9,3.6c0,0.9,0.2,1.9,0.5,2.8c0.3,0.8,0.8,1.6,1.4,2.3c0.7,0.8,1.5,1.5,2.4,2.1
				l3.6,2.2l3.2,1.9c0.8,0.5,1.6,1,2.3,1.7c0.6,0.5,1,1.1,1.4,1.8c0.3,0.7,0.4,1.5,0.4,2.3c0.1,1.6-0.6,3.1-1.8,4.1
				c-1.7,1.1-3.6,1.5-5.6,1.4c-0.7,0.1-1.3,0.1-2,0c-0.6-0.1-1.4-0.3-2.1-0.5c-0.7-0.2-1.4-0.5-2-0.8c-0.6-0.3-1.2-0.7-1.8-1.1
				L270.7,86.1z"/>
			<path class="st1" d="M303.6,84.8c-0.8,0.5-1.7,0.8-2.6,0.8c-1,0.1-2-0.3-2.6-1c-0.6-1.1-0.9-2.4-0.8-3.6V66.7h6v-2.5h-6v-6.9
				l-2.9,1v5.8h-4.1v2.5h4.1v14.7c0,4.3,1.9,6.5,5.6,6.5c1.1,0,2.3-0.2,3.3-0.8L303.6,84.8z"/>
			<path class="st1" d="M326.7,87.4V64.2h-2.9v13.2c0,1.1-0.2,2.2-0.5,3.2c-0.3,0.9-0.8,1.8-1.4,2.5c-0.6,0.7-1.3,1.3-2.1,1.7
				c-0.9,0.4-1.8,0.6-2.7,0.6c-1.8,0.1-3.5-0.6-4.5-2c-1.1-1.9-1.6-4-1.5-6.2V64.1h-2.9v13.7c0,6.7,2.8,10.1,8.3,10.1
				c3.1,0.1,5.9-1.7,7.2-4.5v4L326.7,87.4z"/>
			<path class="st1" d="M350.4,53v14.4c-1.4-2.6-4.2-4.2-7.2-4c-1.5,0-3,0.3-4.4,0.9c-1.3,0.6-2.4,1.5-3.4,2.6
				c-1,1.2-1.8,2.7-2.2,4.2c-0.5,1.7-0.8,3.4-0.8,5.1c0,1.7,0.2,3.3,0.7,4.9c0.4,1.3,1.1,2.5,1.9,3.6c0.8,1,1.9,1.8,3.1,2.3
				c1.2,0.6,2.6,0.8,3.9,0.8c1.7,0,3.4-0.4,4.9-1.2c1.4-0.8,2.6-2,3.3-3.4v4.1l3,0V53H350.4z M349.8,80.4c-0.6,1.9-2,3.5-3.9,4.4
				c-1,0.4-2.1,0.7-3.2,0.6c-2,0-4-0.9-5.3-2.5c-0.7-0.9-1.2-1.9-1.5-3c-0.4-1.3-0.6-2.6-0.5-3.9c0-1.4,0.2-2.8,0.6-4.1
				c0.3-1.1,0.9-2.2,1.6-3.1c0.7-0.8,1.5-1.5,2.5-2c1-0.5,2.1-0.7,3.2-0.7c1,0,1.9,0.2,2.8,0.6c0.8,0.4,1.6,0.9,2.2,1.6
				c0.6,0.7,1.1,1.4,1.5,2.3c0.3,0.9,0.4,1.8,0.4,2.8l0,3.9C350.4,78.3,350.2,79.4,349.8,80.4z"/>
			<path class="st1" d="M362.9,58c0.3-0.1,0.5-0.2,0.6-0.4c0.2-0.2,0.4-0.4,0.5-0.6c0.2-0.5,0.2-1.1,0-1.7c-0.1-0.2-0.3-0.5-0.5-0.6
				c-0.2-0.2-0.4-0.3-0.7-0.4c-0.3,0-0.5,0-0.8,0c-0.5,0-1.1,0.2-1.4,0.6c-0.4,0.4-0.6,0.9-0.6,1.4c0,0.6,0.2,1.1,0.6,1.5
				c0.4,0.4,0.9,0.6,1.4,0.6C362.4,58.2,362.7,58.1,362.9,58z"/>
			<rect x="360.7" y="64.2" class="st1" width="2.9" height="23.2"/>
			<path class="st1" d="M391.1,70.6c-0.4-1.4-1.1-2.6-2-3.7c-1-1.1-2.2-1.9-3.6-2.4c-1.4-0.6-3-0.9-4.5-0.8c-1.6,0-3.2,0.2-4.8,0.8
				c-1.4,0.5-2.6,1.4-3.6,2.5c-1.1,1.1-1.9,2.5-2.4,3.9c-0.6,1.7-0.9,3.4-0.8,5.2c0,1.7,0.2,3.3,0.8,4.9c0.5,1.3,1.3,2.6,2.2,3.6
				c1,1.1,2.2,1.9,3.6,2.5c1.5,0.6,3.1,0.9,4.7,0.9c1.6,0,3.2-0.3,4.7-1c1.4-0.5,2.6-1.4,3.6-2.5c1-1.1,1.7-2.4,2.2-3.8
				C392.1,77.4,392.1,73.9,391.1,70.6z M388.5,79.9c-0.3,1.1-0.8,2.1-1.6,3c-0.7,0.8-1.6,1.5-2.6,1.9c-1.1,0.5-2.4,0.7-3.6,0.6
				c-1.2,0-2.5-0.2-3.6-0.7c-1-0.4-1.9-1.1-2.6-1.9c-0.8-0.9-1.3-1.9-1.7-3c-0.4-1.3-0.6-2.6-0.6-3.9c0-1.4,0.2-2.8,0.6-4.1
				c0.4-1.1,0.9-2.2,1.7-3.1c0.7-0.8,1.6-1.5,2.6-1.9c1.1-0.5,2.4-0.7,3.6-0.7c2.3-0.2,4.6,0.7,6.1,2.5c1.5,2.1,2.3,4.6,2.1,7.2
				C389,77.2,388.9,78.6,388.5,79.9z"/>
		</g>
		<g>
			<path class="st1" d="M432.8,83.3c-2.5,1.4-5.4,2.1-8.3,2c-1.8,0-3.7-0.3-5.4-1.1c-1.5-0.7-2.8-1.7-3.9-3c-1-1.3-1.8-2.8-2.3-4.3
				c-0.5-1.7-0.8-3.5-0.8-5.3c0-2,0.3-3.9,0.9-5.8c0.5-1.7,1.4-3.2,2.6-4.6c1.1-1.3,2.5-2.3,4.1-3c1.8-0.7,3.7-1.1,5.6-1.1
				c2.6,0,5.1,0.6,7.5,1.7v-3.2c-2.4-0.9-4.9-1.3-7.4-1.3c-2.3,0-4.6,0.4-6.8,1.3c-2,0.8-3.7,2.1-5.2,3.6c-1.5,1.6-2.6,3.5-3.3,5.6
				c-0.8,2.2-1.2,4.5-1.2,6.9c0,2.2,0.3,4.4,1.1,6.5c0.7,1.9,1.7,3.6,3.1,5.1c1.3,1.5,3,2.6,4.8,3.4c2,0.8,4.1,1.2,6.2,1.2
				c3,0.1,5.9-0.5,8.6-1.8V83.3z"/>
			<path class="st1" d="M459.4,70.8c-0.5-1.4-1.2-2.7-2.2-3.8c-1-1.1-2.2-1.9-3.6-2.4c-1.4-0.6-3-0.9-4.5-0.8
				c-1.6,0-3.2,0.2-4.8,0.8c-1.4,0.5-2.6,1.4-3.6,2.5c-1.1,1.1-1.9,2.5-2.5,3.9c-0.6,1.7-0.8,3.4-0.8,5.2c0,1.7,0.2,3.3,0.8,4.9
				c0.5,1.3,1.3,2.6,2.2,3.6c1,1.1,2.2,1.9,3.6,2.5c1.5,0.6,3,0.9,4.6,0.9c1.6,0.1,3.3-0.2,4.8-0.8c1.4-0.5,2.6-1.4,3.6-2.5
				c1-1.1,1.8-2.4,2.2-3.8c0.5-1.6,0.8-3.3,0.8-5C460.1,74.1,459.9,72.4,459.4,70.8z M456.3,79.9c-0.3,1.1-0.8,2.1-1.6,3
				c-0.7,0.8-1.5,1.5-2.5,1.9c-2.2,0.9-4.7,0.9-6.9,0c-1-0.4-1.9-1.1-2.6-1.9c-0.7-0.9-1.3-1.9-1.7-3c-0.4-1.3-0.6-2.6-0.6-3.9
				c0-1.4,0.2-2.8,0.6-4.1c0.3-1.1,0.9-2.2,1.7-3.1c0.7-0.8,1.6-1.5,2.6-1.9c1.1-0.5,2.4-0.7,3.6-0.7c2.2-0.1,4.3,0.8,5.8,2.4
				c1.5,2.1,2.3,4.6,2.1,7.2C456.8,77.2,456.7,78.5,456.3,79.9z"/>
			<path class="st1" d="M482.1,53v14.7c-1.4-2.6-4.2-4.2-7.2-4c-1.5,0-3,0.3-4.4,0.9c-1.3,0.6-2.5,1.5-3.4,2.6c-1,1.2-1.7,2.5-2.2,4
				c-0.5,1.7-0.8,3.4-0.8,5.1c0,1.6,0.2,3.3,0.7,4.9c0.4,1.3,1.1,2.5,1.9,3.6c0.8,1,1.9,1.8,3.1,2.3c2.8,1.2,6.1,1.1,8.8-0.4
				c1.4-0.8,2.5-2,3.3-3.4v4.1l2.9,0V53H482.1z M482.1,77.3c0,1.1-0.2,2.2-0.5,3.2c-0.3,1-0.9,1.9-1.5,2.6c-0.7,0.7-1.5,1.3-2.4,1.7
				c-1,0.4-2.1,0.7-3.2,0.6c-1,0-2.1-0.2-3-0.6c-0.9-0.4-1.7-1.1-2.3-1.8c-0.7-0.9-1.2-1.9-1.5-3c-0.3-1.3-0.5-2.6-0.5-3.9
				c0-1.4,0.2-2.8,0.6-4.2c0.3-1.1,0.9-2.2,1.6-3.1c0.7-0.8,1.5-1.5,2.5-2c1-0.4,2.1-0.7,3.2-0.7c1,0,2,0.2,2.9,0.6
				c0.8,0.4,1.6,0.9,2.2,1.6c0.6,0.7,1.1,1.4,1.4,2.3c0.4,0.9,0.5,1.9,0.5,2.8L482.1,77.3z"/>
			<path class="st1" d="M510.6,75c0-1.6-0.2-3.2-0.6-4.7c-0.3-1.3-0.9-2.5-1.8-3.6c-0.8-1-1.8-1.7-2.9-2.2c-1.3-0.5-2.6-0.8-4-0.8
				c-1.5,0-2.9,0.3-4.2,0.9c-1.3,0.6-2.4,1.5-3.4,2.6c-1,1.1-1.7,2.4-2.2,3.8c-0.5,1.6-0.8,3.2-0.8,4.8c0,1.7,0.2,3.5,0.7,5.2
				c0.4,1.4,1.1,2.7,2.1,3.8c0.9,1,2,1.9,3.2,2.4c1.3,0.6,2.8,0.8,4.2,0.8c2.9,0.1,5.7-0.7,8.1-2.4v-2.9c-2.1,1.7-4.7,2.7-7.4,2.7
				c-1.1,0-2.2-0.2-3.3-0.6c-1-0.4-1.8-1-2.5-1.8c-0.7-0.8-1.2-1.8-1.6-2.9c-0.4-1.2-0.6-2.5-0.6-3.8l16.8,0.1V75z M493.9,73.8
				c0.1-1.1,0.4-2.2,0.9-3.2c0.4-0.9,0.9-1.7,1.6-2.4c0.6-0.6,1.4-1.2,2.2-1.5c0.9-0.4,1.8-0.5,2.7-0.5c1.8-0.1,3.5,0.7,4.6,2
				c1.2,1.6,1.8,3.6,1.7,5.6H493.9z"/>
		</g>
	</g>
	<g>
		<g>
			<defs>
				<filter id="Adobe_OpacityMaskFilter" filterUnits="userSpaceOnUse" x="19.8" y="19.9" width="102" height="101.9">
					<feColorMatrix  type="matrix" values="1 0 0 0 0  0 1 0 0 0  0 0 1 0 0  0 0 0 1 0"/>
				</filter>
			</defs>
			<mask maskUnits="userSpaceOnUse" x="19.8" y="19.9" width="102" height="101.9" id="mask0_1_">
				<path class="st2" d="M92.1,121.4c1.6,0.6,3.4,0.6,5.1-0.2l21-10.1c2.2-1.1,3.6-3.3,3.6-5.8V36.4c0-2.5-1.4-4.7-3.6-5.8l-21-10.1
					c-2.1-1-4.6-0.8-6.5,0.6c-0.3,0.2-0.5,0.4-0.8,0.7L49.7,58.6L32.2,45.3c-1.6-1.2-3.9-1.1-5.4,0.2l-5.6,5.1
					c-1.9,1.7-1.9,4.6,0,6.3l15.2,13.9L21.2,84.8c-1.8,1.7-1.8,4.6,0,6.3l5.6,5.1c1.5,1.4,3.8,1.5,5.4,0.2l17.5-13.3l40.2,36.8
					C90.5,120.6,91.3,121.1,92.1,121.4z M96.3,47.6L65.8,70.9l30.5,23.3V47.6z"/>
			</mask>
			<g class="st3">
				<path class="st4" d="M118.1,30.7l-21-10.2c-2.4-1.2-5.3-0.7-7.2,1.2l-68.7,63c-1.8,1.7-1.8,4.6,0,6.3l5.6,5.1
					c1.5,1.4,3.8,1.5,5.4,0.2l82.8-63.1c2.8-2.1,6.8-0.1,6.8,3.4v-0.2C121.7,34,120.3,31.8,118.1,30.7z"/>
				<g>
					<path class="st5" d="M118.1,111l-21,10.2c-2.4,1.2-5.3,0.7-7.2-1.2l-68.7-63c-1.8-1.7-1.8-4.6,0-6.3l5.6-5.1
						c1.5-1.4,3.8-1.5,5.4-0.2l82.8,63.1c2.8,2.1,6.8,0.1,6.8-3.4v0.2C121.7,107.7,120.3,109.9,118.1,111z"/>
				</g>
				<g>
					<path class="st1" d="M97.1,121.2c-2.4,1.2-5.3,0.7-7.2-1.2c2.4,2.4,6.4,0.7,6.4-2.7V24.4c0-3.3-4-5-6.4-2.7
						c1.9-1.9,4.8-2.4,7.2-1.2l21,10.1c2.2,1.1,3.6,3.3,3.6,5.8v68.8c0,2.5-1.4,4.7-3.6,5.8L97.1,121.2z"/>
				</g>
				<g class="st6">
					
						<linearGradient id="SVGID_1_" gradientUnits="userSpaceOnUse" x1="70.6992" y1="123.3746" x2="70.6992" y2="21.4762" gradientTransform="matrix(1 0 0 -1 0 143.2756)">
						<stop  offset="0" style="stop-color:#FFFFFF"/>
						<stop  offset="1" style="stop-color:#FFFFFF;stop-opacity:0"/>
					</linearGradient>
					<path class="st7" d="M92,121.4c1.6,0.6,3.4,0.6,5.1-0.2l21-10.1c2.2-1.1,3.6-3.3,3.6-5.8V36.4c0-2.5-1.4-4.7-3.6-5.8l-21-10.1
						c-2.1-1-4.6-0.8-6.5,0.6c-0.3,0.2-0.5,0.4-0.8,0.7L49.7,58.6L32.2,45.3c-1.6-1.2-3.9-1.1-5.4,0.2l-5.6,5.1
						c-1.8,1.7-1.9,4.6,0,6.3l15.2,13.9L21.1,84.8c-1.8,1.7-1.8,4.6,0,6.3l5.6,5.1c1.5,1.4,3.8,1.5,5.4,0.2l17.5-13.3l40.2,36.8
						C90.5,120.6,91.2,121.1,92,121.4z M96.2,47.6L65.7,70.9l30.5,23.3V47.6z"/>
				</g>
			</g>
		</g>
	</g>
</g>
</svg>
