<?xml version="1.0" encoding="utf-8"?>
<!-- Generator: Adobe Illustrator 24.0.2, SVG Export Plug-In . SVG Version: 6.00 Build 0)  -->
<svg version="1.1" id="Capa_1" xmlns="http://www.w3.org/2000/svg" xmlns:xlink="http://www.w3.org/1999/xlink" x="0px" y="0px"
	 viewBox="0 0 566.9 141.7" style="enable-background:new 0 0 566.9 141.7;" xml:space="preserve">
<style type="text/css">
	.st0{fill:#F8F8F8;}
	.st1{fill:#41B883;}
	.st2{fill:#34495E;}
	.st3{fill:#273849;}
</style>
<rect y="0" class="st0" width="566.9" height="141.7"/>
<g>
	<g transform="matrix(1.3333 0 0 -1.3333 -76.311 313.34)">
		<g transform="translate(178.06 235.01)">
			<path class="st1" d="M-51.6-14.9l-10.2-17.7L-72-14.9h-34l44.2-76.5l44.2,76.5C-17.6-14.9-51.6-14.9-51.6-14.9z"/>
		</g>
		<g transform="translate(178.06 235.01)">
			<path class="st2" d="M-51.6-14.9l-10.2-17.7L-72-14.9h-16.3l26.5-45.9l26.5,45.9C-35.3-14.9-51.6-14.9-51.6-14.9z"/>
		</g>
	</g>
	<g>
		<path class="st3" d="M183,88.3c0.3-0.6,0.4-1.3,0.7-1.9c4-13.9,8.1-27.7,12.2-41.5c0.9-3,2.4-3.8,4.9-2.4c1.3,0.8,1.8,1.7,1.3,3.3
			C197,62.2,192,78.5,187,94.9c-0.8,2.4-1.9,3.3-4.2,3.4c-2.3,0-3.4-0.9-4.2-3.4c-5-16.3-10-32.4-15.1-48.7c-0.7-2.3-0.3-3.3,2.1-4
			c2.1-0.6,3.1,0,3.8,2.2c4.2,14,8.3,28.1,12.6,42c0.2,0.7,0.4,1.3,0.7,2C182.7,88.3,182.8,88.3,183,88.3z"/>
		<path class="st3" d="M259.4,81.3c-2.8,0-5.5,0-8.3,0c-1.3,0-1.7,0.4-1.7,1.7c-0.1,5,2.6,8.7,7.4,9.8c3.9,0.9,7.6,0.5,11-1.6
			c1.9-1.2,3.2-1,3.9,0.4c0.3,0.8,0.3,2.1-0.2,2.8c-0.6,0.9-1.7,1.6-2.8,2.2c-6.3,2.7-12.5,2.6-18.4-0.8c-4.1-2.3-6.5-5.9-6.8-10.7
			c-0.3-3.4-0.3-7-0.1-10.5c0.5-7.4,7-13.2,14.6-13.3c7.7-0.2,14,5,15,12.4c0.2,1,0.2,2.2,0,3.2c-0.4,3.1-1.9,4.4-5,4.6
			C265.1,81.4,262.3,81.3,259.4,81.3L259.4,81.3z M257.5,77.4c0.9,0,2,0,2.9,0s2,0,2.9,0c3.6-0.1,4.5-1.1,3.6-4.6
			c-1.1-4.7-5.8-7.6-10.5-6.6c-4.9,0.9-8,5.3-7.1,10.2c0.1,0.4,0.9,1,1.5,1C253,77.4,255.3,77.4,257.5,77.4z"/>
		<path class="st3" d="M205.5,74.6c0-3.2,0-6.3,0-9.5c0-2.4,0.9-3.4,3-3.5c2,0,3.1,1.1,3.1,3.4c0,5.9,0,11.7,0,17.6
			c0,1.2,0.1,2.4,0.4,3.5c1.1,4.1,5.1,7,9.1,6.7c4.1-0.3,7.9-3.8,8.2-8.1c0.3-4.8,0.2-9.6,0.2-14.4c0-2.1,0-4,0-6.1
			c0.1-1.7,1.2-2.7,3-2.7c1.8,0,3,0.9,3,2.7c0,6.7,0.2,13.4-0.1,20.1c-0.3,7.8-7.4,14-15.2,13.9c-8-0.2-14.6-6.6-14.8-14.5
			C205.5,80.7,205.5,77.7,205.5,74.6L205.5,74.6z"/>
		<path class="st3" d="M319.6,98.7c-2.9-0.8-5.7-1.4-8.4-2.3c-1.1-0.3-2.2-1.3-3-2.2c-1-1.1-0.9-2.4,0.1-3.6s2-0.6,2.9,0.1
			c3.4,2.6,7.2,3.3,11.4,2.5c2.6-0.5,4.1-1.9,4.5-3.9c0.3-2.3-0.7-4.5-3.1-5.7c-1.6-0.8-3.4-1.4-5.2-2c-1.2-0.4-2.5-0.8-3.8-1.2
			c-4.6-1.7-6.6-4.4-6.7-8.5c0-4.5,2.2-8.2,6.5-9.7c5-1.8,10-1.5,14.8,0.9c1.1,0.5,2.2,1.3,1.7,2.9c-0.6,1.9-1.8,2.5-3.6,1.7
			c-2.6-1.1-5.2-2.1-8-1.5c-1.4,0.3-2.8,0.7-4,1.5c-2.9,2.2-2.6,6.2,0.7,7.7c2.7,1.2,5.6,1.9,8.3,2.8c3.9,1.4,6.8,3.6,7.7,8
			c0.9,4.4-1.1,8.9-5.2,10.6C324.8,97.8,322.1,98,319.6,98.7z"/>
		<path class="st3" d="M294.1,84c0-6.5,0-12.9,0-19.4c0-2.2,0.9-3,2.9-3.1c2.1,0,3.1,0.9,3.1,2.9c0,12.7,0,25.4-0.2,38.1
			c0,2.2-0.6,4.5-1.4,6.5c-1.3,3.8-4.3,5.7-8.3,6.1c-2.2,0.2-3.5-0.8-3.8-2.3c-0.3-1.6,0.8-2.7,3.1-3c2-0.3,3.3-1.4,3.7-3.3
			c0.3-1.6,0.6-3.3,0.6-4.9C294.2,95.9,294.1,90,294.1,84L294.1,84z"/>
		<path class="st3" d="M286.5,94.3c-0.1,2.1-1.9,3.8-4,3.8c-2-0.1-3.7-1.8-3.7-3.8c0-2.2,1.8-3.9,3.9-3.9
			C284.7,90.5,286.5,92.3,286.5,94.3z"/>
		<path class="st3" d="M297.1,44.4c2.1,0,3.7,1.5,3.8,3.3c0.1,1.9-1.6,3.5-3.7,3.5c-2.1,0-3.8-1.5-3.8-3.5
			C293.3,45.9,295,44.4,297.1,44.4z"/>
	</g>
</g>
</svg>
