<?xml version="1.0" encoding="utf-8"?>
<!-- Generator: Adobe Illustrator 24.0.2, SVG Export Plug-In . SVG Version: 6.00 Build 0)  -->
<svg version="1.1" id="Capa_1" xmlns="http://www.w3.org/2000/svg" xmlns:xlink="http://www.w3.org/1999/xlink" x="0px" y="0px"
	 viewBox="0 0 566.9 141.7" style="enable-background:new 0 0 566.9 141.7;" xml:space="preserve">
<style type="text/css">
	.st0{fill:#002E3B;}
	.st1{fill:#FFFFFF;}
	.st2{font-family:'Quicksand-Medium';}
	.st3{font-size:75px;}
	.st4{letter-spacing:3;}
	.st5{fill:#00C391;}
	.st6{fill:#41B883;}
	.st7{fill:#34495E;}
</style>
<rect y="0.2" class="st0" width="566.9" height="141.7"/>
<g>
	<text transform="matrix(1 0 0 1 129.0498 96.4222)" class="st1 st2 st3 st4">VUE</text>
	<text transform="matrix(1 0 0 1 286.7498 96.4222)" class="st5 st2 st3 st4">JS</text>
</g>
<g transform="matrix(1.3333 0 0 -1.3333 -76.311 313.34)">
	<g transform="translate(178.06 235.01)">
		<path class="st6" d="M-64.5-23.9l-7.8-13.5L-80-23.9h-26l33.7-58.4l33.7,58.4C-38.5-23.9-64.5-23.9-64.5-23.9z"/>
	</g>
	<g transform="translate(178.06 235.01)">
		<path class="st7" d="M-64.5-23.9l-7.8-13.5L-80-23.9h-12.4l20.2-35l20.2,35C-52-23.9-64.5-23.9-64.5-23.9z"/>
	</g>
</g>
</svg>
