<?xml version="1.0" encoding="utf-8"?>
<!-- Generator: Adobe Illustrator 24.0.2, SVG Export Plug-In . SVG Version: 6.00 Build 0)  -->
<svg version="1.1" id="Capa_1" xmlns="http://www.w3.org/2000/svg" xmlns:xlink="http://www.w3.org/1999/xlink" x="0px" y="0px"
	 viewBox="0 0 566.9 141.7" style="enable-background:new 0 0 566.9 141.7;" xml:space="preserve">
<style type="text/css">
	.st0{fill:#002E3B;}
	.st1{fill:#FFFFFF;}
	.st2{font-family:'Quicksand-Medium';}
	.st3{font-size:75px;}
	.st4{letter-spacing:3;}
	.st5{fill:#00C391;}
	.st6{fill:#35495E;}
	.st7{fill:#4FBF8C;}
</style>
<rect y="0.2" class="st0" width="566.9" height="141.7"/>
<text transform="matrix(1 0 0 1 129.0501 96.4219)" class="st1 st2 st3 st4">VUEX</text>
<text transform="matrix(1 0 0 1 338.1501 96.4219)" class="st5 st2 st3 st4">JS</text>
<g>
	<g>
		<g>
			<polygon class="st6" points="46.9,26 20,26 42.4,70.9 55.8,43.9 			"/>
		</g>
		<g>
			<polygon class="st6" points="109.6,26 82.7,26 73.7,43.9 87.2,70.9 			"/>
		</g>
	</g>
	<path class="st7" d="M87.2,70.9l-13.5-27l-8.9,17.8l-8.9-17.8C47.7,60.2,28.3,99,20,115.7h26.9c4.5-8.9,13.5-26.8,17.9-35.7
		c4.5,8.9,13.5,26.8,17.9,35.7h26.8L87.2,70.9z"/>
</g>
</svg>
